{"glyphs":{"0":{"ha":674,"x_min":0,"x_max":0,"o":"m 140 482 b 639 533 349 725 628 715 b 672 531 649 533 660 532 b 250 -60 726 383 486 -39 b 140 482 -24 -81 -72 236 m 279 503 b 351 107 144 349 171 75 b 557 444 424 119 549 296 b 501 418 535 431 517 421 b 279 503 493 546 365 601 "},"1":{"ha":472,"x_min":0,"x_max":0,"o":"m 300 669 b 489 661 376 708 478 713 b 238 -58 372 432 247 89 b 113 -87 192 -106 117 -87 b 211 456 136 151 172 328 b 101 339 181 418 142 376 b 47 464 67 349 42 403 b 261 597 93 474 164 510 b 300 669 275 626 289 651 "},"2":{"ha":622,"x_min":0,"x_max":0,"o":"m 217 65 b 490 86 319 71 429 97 b 393 -92 497 43 451 -56 b 76 -39 267 -43 183 -25 b -115 -21 -72 -110 -162 -78 b 67 51 -65 40 10 46 b 433 494 335 218 494 425 b 142 321 390 542 279 497 b 81 465 106 333 51 379 b 608 649 293 686 532 754 b 217 65 696 526 500 247 "},"3":{"ha":642,"x_min":0,"x_max":0,"o":"m 192 692 b 538 650 275 674 414 646 b 639 692 574 672 607 688 b 547 585 746 704 685 599 b 524 582 539 583 531 581 b 379 443 474 536 426 486 b 574 333 492 454 571 426 b 115 -79 578 149 303 -103 b -19 164 -42 -56 -44 93 b 167 243 39 218 146 261 b 199 7 86 71 136 4 b 379 265 260 10 378 108 b 297 365 381 317 342 350 b 267 344 285 357 275 349 b 256 418 146 283 110 372 l 276 424 b 431 567 332 476 383 528 b 139 529 313 547 192 524 b 192 692 128 594 178 675 "},"4":{"ha":657,"x_min":0,"x_max":0,"o":"m 439 626 b 190 232 347 488 272 342 b 336 231 236 236 289 236 b 540 710 413 494 492 646 b 722 678 618 744 718 735 b 475 207 636 539 542 360 b 563 171 511 196 542 183 b 496 74 560 126 508 83 l 431 96 b 382 -62 406 35 389 -21 b 257 -81 332 -108 263 -79 b 306 125 274 -6 289 61 b 115 144 235 139 169 144 b -1 64 78 107 40 79 b 35 197 -94 32 -100 135 b 172 532 115 335 168 501 b 439 626 275 635 418 653 "},"5":{"ha":619,"x_min":0,"x_max":0,"o":"m 594 690 b 618 550 622 669 635 614 b 251 536 535 508 367 517 b 236 418 254 499 249 458 b 325 436 263 425 290 429 b 217 -81 788 514 503 -36 b 0 186 24 -110 -40 21 b 163 249 49 229 113 265 b 229 10 146 206 49 -11 b 207 343 411 29 519 365 b 99 347 167 278 93 301 b 168 400 100 367 121 382 b 154 560 168 449 161 511 l 139 568 b 204 638 58 625 131 696 b 224 615 211 631 217 624 b 594 690 314 625 454 649 "},"6":{"ha":597,"x_min":0,"x_max":0,"o":"m 550 535 b 215 397 528 540 342 564 b 286 428 246 411 265 419 b 381 33 644 560 626 246 b -18 150 185 -139 -72 -53 b 571 726 38 356 200 610 b 550 535 590 669 596 592 m 144 257 b 258 33 92 93 174 6 b 282 350 361 67 422 369 b 144 257 218 339 174 301 "},"7":{"ha":543,"x_min":0,"x_max":0,"o":"m 547 654 b 574 565 738 758 789 601 b 138 -65 428 429 211 119 b -22 19 76 -83 -3 -47 b 476 554 17 97 260 371 b 69 578 310 539 131 549 b 208 731 94 629 165 708 b 547 654 339 665 468 649 "},"8":{"ha":639,"x_min":0,"x_max":0,"o":"m 435 692 b 631 639 539 697 592 672 b 581 556 624 625 608 583 b 599 550 596 551 597 550 b 489 444 572 497 538 471 b 406 6 658 403 697 247 b -10 122 160 -200 -114 -142 b 190 351 35 229 108 299 b 435 692 79 443 229 682 m 258 319 b 279 15 67 196 106 -31 b 276 319 451 63 571 285 b 260 322 272 319 268 319 l 258 319 m 390 461 b 522 549 440 489 486 515 b 451 615 521 579 496 604 b 390 461 328 642 243 500 "},"9":{"ha":583,"x_min":0,"x_max":0,"o":"m 124 14 b 360 238 192 47 281 128 b 311 215 335 226 324 219 b 217 610 -47 83 -29 397 b 593 482 414 781 615 683 b 236 -85 567 251 390 36 b 124 14 181 -81 124 -56 m 315 294 b 426 353 363 300 399 324 b 339 610 496 518 425 640 b 315 294 236 576 175 274 "}," ":{"ha":414,"x_min":0,"x_max":0,"o":""},"A":{"ha":1376,"x_min":0,"x_max":0,"o":"m 68 -287 b -165 -167 -33 -308 -147 -242 b 332 376 -75 -29 114 175 b 26 338 229 374 124 361 b 93 494 19 369 33 428 b 449 482 171 514 301 506 b 1121 963 676 681 924 865 b 1164 892 1150 944 1163 915 l 1156 886 b 1161 886 1157 886 1160 886 b 1004 135 974 564 901 200 b 1376 388 1104 72 1285 199 l 1438 347 b 842 4 1288 14 967 -81 b 817 317 776 47 774 161 b 526 374 743 344 640 364 b 68 -287 304 140 124 -111 m 604 453 b 842 396 685 436 765 417 b 1028 807 883 517 947 657 b 604 453 886 710 739 586 "},"Á":{"ha":1376,"x_min":0,"x_max":0,"o":"m 68 -287 b -165 -167 -33 -308 -147 -242 b 332 376 -75 -29 114 175 b 26 338 229 374 124 361 b 93 494 19 369 33 428 b 449 482 171 514 301 506 b 1121 963 676 681 924 865 b 1164 892 1150 944 1163 915 l 1156 886 b 1161 886 1157 886 1160 886 b 1004 135 974 564 901 200 b 1376 388 1104 72 1285 199 l 1438 347 b 842 4 1288 14 967 -81 b 817 317 776 47 774 161 b 526 374 743 344 640 364 b 68 -287 304 140 124 -111 m 604 453 b 842 396 685 436 765 417 b 1028 807 883 517 947 657 b 604 453 886 710 739 586 m 1051 1011 b 1051 1078 1036 1018 1039 1054 b 1314 1314 1140 1133 1247 1217 b 1383 1168 1376 1322 1404 1247 b 1051 1011 1301 1088 1160 1035 "},"Ă":{"ha":1376,"x_min":0,"x_max":0,"o":"m 68 -287 b -165 -167 -33 -308 -147 -242 b 332 376 -75 -29 114 175 b 26 338 229 374 124 361 b 93 494 19 369 33 428 b 449 482 171 514 301 506 b 1121 963 676 681 924 865 b 1164 892 1150 944 1163 915 l 1156 886 b 1161 886 1157 886 1160 886 b 1004 135 974 564 901 200 b 1376 388 1104 72 1285 199 l 1438 347 b 842 4 1288 14 967 -81 b 817 317 776 47 774 161 b 526 374 743 344 640 364 b 68 -287 304 140 124 -111 m 604 453 b 842 396 685 436 765 417 b 1028 807 883 517 947 657 b 604 453 886 710 739 586 m 963 1174 b 1146 1203 1039 1250 1140 1239 b 1329 1200 1138 1064 1244 1038 b 1433 1181 1389 1232 1442 1211 b 963 1174 1321 972 1007 943 "},"Ắ":{"ha":1376,"x_min":0,"x_max":0,"o":"m 68 -287 b -165 -167 -33 -308 -147 -242 b 332 376 -75 -29 114 175 b 26 338 229 374 124 361 b 93 494 19 369 33 428 b 449 482 171 514 301 506 b 1121 963 676 681 924 865 b 1164 892 1150 944 1163 915 l 1156 886 b 1161 886 1157 886 1160 886 b 1004 135 974 564 901 200 b 1376 388 1104 72 1285 199 l 1438 347 b 842 4 1288 14 967 -81 b 817 317 776 47 774 161 b 526 374 743 344 640 364 b 68 -287 304 140 124 -111 m 604 453 b 842 396 685 436 765 417 b 1028 807 883 517 947 657 b 604 453 886 710 739 586 m 965 1172 b 1149 1201 1042 1249 1143 1238 b 1332 1199 1140 1063 1247 1036 b 1436 1179 1392 1231 1444 1210 b 965 1172 1324 971 1010 942 m 1128 1253 b 1128 1319 1113 1260 1115 1296 b 1390 1556 1217 1375 1324 1458 b 1460 1410 1453 1564 1481 1489 b 1128 1253 1378 1329 1236 1276 "},"Ặ":{"ha":1376,"x_min":0,"x_max":0,"o":"m 68 -287 b -165 -167 -33 -308 -147 -242 b 332 376 -75 -29 114 175 b 26 338 229 374 124 361 b 93 494 19 369 33 428 b 449 482 171 514 301 506 b 1121 963 676 681 924 865 b 1164 892 1150 944 1163 915 l 1156 886 b 1161 886 1157 886 1160 886 b 1004 135 974 564 901 200 b 1376 388 1104 72 1285 199 l 1438 347 b 842 4 1288 14 967 -81 b 817 317 776 47 774 161 b 526 374 743 344 640 364 b 68 -287 304 140 124 -111 m 343 -204 b 496 -82 365 -185 426 -150 b 626 -172 510 -100 556 -150 b 449 -331 583 -225 515 -293 b 343 -204 413 -299 367 -249 m 604 453 b 842 396 685 436 765 417 b 1028 807 883 517 947 657 b 604 453 886 710 739 586 m 963 1174 b 1146 1203 1039 1250 1140 1239 b 1329 1200 1138 1064 1244 1038 b 1433 1181 1389 1232 1442 1211 b 963 1174 1321 972 1007 943 "},"Ằ":{"ha":1376,"x_min":0,"x_max":0,"o":"m 68 -287 b -165 -167 -33 -308 -147 -242 b 332 376 -75 -29 114 175 b 26 338 229 374 124 361 b 93 494 19 369 33 428 b 449 482 171 514 301 506 b 1121 963 676 681 924 865 b 1164 892 1150 944 1163 915 l 1156 886 b 1161 886 1157 886 1160 886 b 1004 135 974 564 901 200 b 1376 388 1104 72 1285 199 l 1438 347 b 842 4 1288 14 967 -81 b 817 317 776 47 774 161 b 526 374 743 344 640 364 b 68 -287 304 140 124 -111 m 604 453 b 842 396 685 436 765 417 b 1028 807 883 517 947 657 b 604 453 886 710 739 586 m 969 1172 b 1153 1201 1046 1249 1147 1238 b 1336 1199 1144 1063 1251 1036 b 1440 1179 1396 1231 1449 1210 b 969 1172 1328 971 1014 942 m 1133 1364 b 1265 1488 1144 1424 1206 1489 b 1431 1318 1293 1415 1367 1357 b 1404 1264 1433 1300 1421 1271 b 1133 1364 1303 1274 1183 1304 "},"Ẳ":{"ha":1376,"x_min":0,"x_max":0,"o":"m 68 -287 b -165 -167 -33 -308 -147 -242 b 332 376 -75 -29 114 175 b 26 338 229 374 124 361 b 93 494 19 369 33 428 b 449 482 171 514 301 506 b 1121 963 676 681 924 865 b 1164 892 1150 944 1163 915 l 1156 886 b 1161 886 1157 886 1160 886 b 1004 135 974 564 901 200 b 1376 388 1104 72 1285 199 l 1438 347 b 842 4 1288 14 967 -81 b 817 317 776 47 774 161 b 526 374 743 344 640 364 b 68 -287 304 140 124 -111 m 604 453 b 842 396 685 436 765 417 b 1028 807 883 517 947 657 b 604 453 886 710 739 586 m 985 1171 b 1168 1200 1061 1247 1163 1236 b 1351 1197 1160 1061 1267 1035 b 1456 1178 1411 1229 1464 1208 b 985 1171 1343 969 1029 940 m 1186 1235 b 1419 1485 1399 1311 1456 1439 b 1304 1499 1385 1525 1333 1511 b 1292 1532 1293 1503 1286 1515 b 1581 1582 1403 1629 1522 1650 b 1203 1201 1651 1499 1558 1310 l 1186 1235 "},"Ẵ":{"ha":1376,"x_min":0,"x_max":0,"o":"m 68 -287 b -165 -167 -33 -308 -147 -242 b 332 376 -75 -29 114 175 b 26 338 229 374 124 361 b 93 494 19 369 33 428 b 449 482 171 514 301 506 b 1121 963 676 681 924 865 b 1164 892 1150 944 1163 915 l 1156 886 b 1161 886 1157 886 1160 886 b 1004 135 974 564 901 200 b 1376 388 1104 72 1285 199 l 1438 347 b 842 4 1288 14 967 -81 b 817 317 776 47 774 161 b 526 374 743 344 640 364 b 68 -287 304 140 124 -111 m 604 453 b 842 396 685 436 765 417 b 1028 807 883 517 947 657 b 604 453 886 710 739 586 m 965 1183 b 1149 1213 1042 1260 1143 1249 b 1332 1210 1140 1074 1247 1047 b 1436 1190 1392 1242 1444 1221 b 965 1183 1324 982 1010 953 m 1051 1406 b 1329 1401 1304 1629 1263 1375 b 1400 1479 1369 1417 1392 1450 b 1531 1421 1463 1506 1543 1499 b 1271 1290 1435 1313 1308 1281 b 1211 1411 1225 1297 1238 1414 b 1142 1288 1182 1407 1147 1338 b 1051 1406 1081 1272 1043 1357 "},"Ǎ":{"ha":1376,"x_min":0,"x_max":0,"o":"m 68 -287 b -165 -167 -33 -308 -147 -242 b 332 376 -75 -29 114 175 b 26 338 229 374 124 361 b 93 494 19 369 33 428 b 449 482 171 514 301 506 b 1121 963 676 681 924 865 b 1164 892 1150 944 1163 915 l 1156 886 b 1161 886 1157 886 1160 886 b 1004 135 974 564 901 200 b 1376 388 1104 72 1285 199 l 1438 347 b 842 4 1288 14 967 -81 b 817 317 776 47 774 161 b 526 374 743 344 640 364 b 68 -287 304 140 124 -111 m 604 453 b 842 396 685 436 765 417 b 1028 807 883 517 947 657 b 604 453 886 710 739 586 m 988 1194 b 1072 1274 1003 1225 1033 1264 b 1156 1106 1089 1235 1119 1172 b 1336 1275 1188 1139 1251 1200 b 1388 1179 1360 1254 1385 1219 b 1194 999 1308 1126 1240 1060 b 1107 1032 1158 1004 1118 1015 b 988 1194 1101 1076 1082 1108 "},"Â":{"ha":1376,"x_min":0,"x_max":0,"o":"m 68 -287 b -165 -167 -33 -308 -147 -242 b 332 376 -75 -29 114 175 b 26 338 229 374 124 361 b 93 494 19 369 33 428 b 449 482 171 514 301 506 b 1121 963 676 681 924 865 b 1164 892 1150 944 1163 915 l 1156 886 b 1161 886 1157 886 1160 886 b 1004 135 974 564 901 200 b 1376 388 1104 72 1285 199 l 1438 347 b 842 4 1288 14 967 -81 b 817 317 776 47 774 161 b 526 374 743 344 640 364 b 68 -287 304 140 124 -111 m 604 453 b 842 396 685 436 765 417 b 1028 807 883 517 947 657 b 604 453 886 710 739 586 m 986 1071 b 1178 1251 1064 1124 1132 1190 b 1267 1218 1214 1246 1256 1235 b 1383 1057 1269 1174 1289 1142 b 1300 976 1368 1025 1338 988 b 1218 1143 1283 1015 1253 1079 b 1036 975 1186 1111 1121 1050 b 986 1071 1013 996 988 1031 "},"Ấ":{"ha":1376,"x_min":0,"x_max":0,"o":"m 68 -287 b -165 -167 -33 -308 -147 -242 b 332 376 -75 -29 114 175 b 26 338 229 374 124 361 b 93 494 19 369 33 428 b 449 482 171 514 301 506 b 1121 963 676 681 924 865 b 1164 892 1150 944 1163 915 l 1156 886 b 1161 886 1157 886 1160 886 b 1004 135 974 564 901 200 b 1376 388 1104 72 1285 199 l 1438 347 b 842 4 1288 14 967 -81 b 817 317 776 47 774 161 b 526 374 743 344 640 364 b 68 -287 304 140 124 -111 m 604 453 b 842 396 685 436 765 417 b 1028 807 883 517 947 657 b 604 453 886 710 739 586 m 958 1057 b 1150 1238 1036 1110 1104 1176 b 1239 1204 1186 1232 1228 1221 b 1356 1043 1242 1160 1261 1128 b 1272 963 1340 1011 1310 974 b 1190 1129 1256 1001 1225 1065 b 1008 961 1158 1097 1093 1036 b 958 1057 985 982 960 1017 m 1136 1264 b 1136 1331 1121 1271 1124 1307 b 1399 1567 1225 1386 1332 1469 b 1468 1421 1461 1575 1489 1500 b 1136 1264 1386 1340 1244 1288 "},"Ậ":{"ha":1376,"x_min":0,"x_max":0,"o":"m 68 -287 b -165 -167 -33 -308 -147 -242 b 332 376 -75 -29 114 175 b 26 338 229 374 124 361 b 93 494 19 369 33 428 b 449 482 171 514 301 506 b 1121 963 676 681 924 865 b 1164 892 1150 944 1163 915 l 1156 886 b 1161 886 1157 886 1160 886 b 1004 135 974 564 901 200 b 1376 388 1104 72 1285 199 l 1438 347 b 842 4 1288 14 967 -81 b 817 317 776 47 774 161 b 526 374 743 344 640 364 b 68 -287 304 140 124 -111 m 343 -204 b 496 -82 365 -185 426 -150 b 626 -172 510 -100 556 -150 b 449 -331 583 -225 515 -293 b 343 -204 413 -299 367 -249 m 604 453 b 842 396 685 436 765 417 b 1028 807 883 517 947 657 b 604 453 886 710 739 586 m 986 1071 b 1178 1251 1064 1124 1132 1190 b 1267 1218 1214 1246 1256 1235 b 1383 1057 1269 1174 1289 1142 b 1300 976 1368 1025 1338 988 b 1218 1143 1283 1015 1253 1079 b 1036 975 1186 1111 1121 1050 b 986 1071 1013 996 988 1031 "},"Ầ":{"ha":1376,"x_min":0,"x_max":0,"o":"m 68 -287 b -165 -167 -33 -308 -147 -242 b 332 376 -75 -29 114 175 b 26 338 229 374 124 361 b 93 494 19 369 33 428 b 449 482 171 514 301 506 b 1121 963 676 681 924 865 b 1164 892 1150 944 1163 915 l 1156 886 b 1161 886 1157 886 1160 886 b 1004 135 974 564 901 200 b 1376 388 1104 72 1285 199 l 1438 347 b 842 4 1288 14 967 -81 b 817 317 776 47 774 161 b 526 374 743 344 640 364 b 68 -287 304 140 124 -111 m 604 453 b 842 396 685 436 765 417 b 1028 807 883 517 947 657 b 604 453 886 710 739 586 m 968 1076 b 1160 1257 1046 1129 1114 1196 b 1249 1224 1196 1251 1238 1240 b 1365 1063 1251 1179 1271 1147 b 1282 982 1350 1031 1319 993 b 1200 1149 1265 1021 1235 1085 b 1018 981 1168 1117 1103 1056 b 968 1076 994 1001 969 1036 m 1147 1394 b 1279 1518 1158 1454 1219 1519 b 1444 1349 1307 1446 1381 1388 b 1418 1294 1447 1331 1435 1301 b 1147 1394 1317 1304 1197 1335 "},"Ẩ":{"ha":1376,"x_min":0,"x_max":0,"o":"m 68 -287 b -165 -167 -33 -308 -147 -242 b 332 376 -75 -29 114 175 b 26 338 229 374 124 361 b 93 494 19 369 33 428 b 449 482 171 514 301 506 b 1121 963 676 681 924 865 b 1164 892 1150 944 1163 915 l 1156 886 b 1161 886 1157 886 1160 886 b 1004 135 974 564 901 200 b 1376 388 1104 72 1285 199 l 1438 347 b 842 4 1288 14 967 -81 b 817 317 776 47 774 161 b 526 374 743 344 640 364 b 68 -287 304 140 124 -111 m 604 453 b 842 396 685 436 765 417 b 1028 807 883 517 947 657 b 604 453 886 710 739 586 m 992 1090 b 1183 1271 1069 1143 1138 1210 b 1272 1238 1219 1265 1261 1254 b 1389 1076 1275 1193 1294 1161 b 1306 996 1374 1044 1343 1007 b 1224 1163 1289 1035 1258 1099 b 1042 994 1192 1131 1126 1069 b 992 1090 1018 1015 993 1050 m 1139 1325 b 1372 1575 1351 1401 1408 1529 b 1257 1589 1338 1615 1286 1601 b 1244 1622 1246 1593 1239 1606 b 1533 1672 1356 1719 1475 1740 b 1156 1292 1604 1589 1511 1400 l 1139 1325 "},"Ẫ":{"ha":1376,"x_min":0,"x_max":0,"o":"m 68 -287 b -165 -167 -33 -308 -147 -242 b 332 376 -75 -29 114 175 b 26 338 229 374 124 361 b 93 494 19 369 33 428 b 449 482 171 514 301 506 b 1121 963 676 681 924 865 b 1164 892 1150 944 1163 915 l 1156 886 b 1161 886 1157 886 1160 886 b 1004 135 974 564 901 200 b 1376 388 1104 72 1285 199 l 1438 347 b 842 4 1288 14 967 -81 b 817 317 776 47 774 161 b 526 374 743 344 640 364 b 68 -287 304 140 124 -111 m 604 453 b 842 396 685 436 765 417 b 1028 807 883 517 947 657 b 604 453 886 710 739 586 m 986 1101 b 1178 1282 1064 1154 1132 1221 b 1267 1249 1214 1276 1256 1265 b 1383 1088 1269 1204 1289 1172 b 1300 1007 1368 1056 1338 1018 b 1218 1174 1283 1046 1253 1110 b 1036 1006 1186 1142 1121 1081 b 986 1101 1013 1026 988 1061 m 1088 1450 b 1365 1446 1340 1674 1299 1419 b 1436 1524 1406 1461 1428 1494 b 1567 1465 1499 1550 1579 1543 b 1307 1335 1471 1357 1344 1325 b 1247 1456 1261 1342 1274 1458 b 1178 1332 1218 1451 1183 1382 b 1088 1450 1117 1317 1079 1401 "},"Ä":{"ha":1376,"x_min":0,"x_max":0,"o":"m 68 -287 b -165 -167 -33 -308 -147 -242 b 332 376 -75 -29 114 175 b 26 338 229 374 124 361 b 93 494 19 369 33 428 b 449 482 171 514 301 506 b 1121 963 676 681 924 865 b 1164 892 1150 944 1163 915 l 1156 886 b 1161 886 1157 886 1160 886 b 1004 135 974 564 901 200 b 1376 388 1104 72 1285 199 l 1438 347 b 842 4 1288 14 967 -81 b 817 317 776 47 774 161 b 526 374 743 344 640 364 b 68 -287 304 140 124 -111 m 604 453 b 842 396 685 436 765 417 b 1028 807 883 517 947 657 b 604 453 886 710 739 586 m 951 1124 b 1104 1246 974 1143 1036 1179 b 1201 1168 1117 1229 1153 1194 b 1321 1265 1232 1190 1275 1221 b 1451 1175 1335 1247 1381 1197 b 1274 1017 1408 1122 1340 1054 b 1190 1106 1249 1038 1215 1071 b 1057 997 1157 1071 1111 1028 b 951 1124 1021 1031 974 1079 "},"Ǟ":{"ha":1376,"x_min":0,"x_max":0,"o":"m 68 -287 b -165 -167 -33 -308 -147 -242 b 332 376 -75 -29 114 175 b 26 338 229 374 124 361 b 93 494 19 369 33 428 b 449 482 171 514 301 506 b 1121 963 676 681 924 865 b 1164 892 1150 944 1163 915 l 1156 886 b 1161 886 1157 886 1160 886 b 1004 135 974 564 901 200 b 1376 388 1104 72 1285 199 l 1438 347 b 842 4 1288 14 967 -81 b 817 317 776 47 774 161 b 526 374 743 344 640 364 b 68 -287 304 140 124 -111 m 604 453 b 842 396 685 436 765 417 b 1028 807 883 517 947 657 b 604 453 886 710 739 586 m 951 1124 b 1104 1246 974 1143 1036 1179 b 1201 1168 1117 1229 1153 1194 b 1321 1265 1232 1190 1275 1221 b 1451 1175 1335 1247 1381 1197 b 1274 1017 1408 1122 1340 1054 b 1190 1106 1249 1038 1215 1071 b 1057 997 1157 1071 1111 1028 b 951 1124 1021 1031 974 1079 m 1060 1354 b 1099 1438 1060 1376 1079 1411 b 1453 1436 1226 1425 1364 1419 b 1438 1308 1482 1410 1457 1339 b 1060 1354 1272 1276 1089 1340 "},"Ạ":{"ha":1376,"x_min":0,"x_max":0,"o":"m 68 -287 b -165 -167 -33 -308 -147 -242 b 332 376 -75 -29 114 175 b 26 338 229 374 124 361 b 93 494 19 369 33 428 b 449 482 171 514 301 506 b 1121 963 676 681 924 865 b 1164 892 1150 944 1163 915 l 1156 886 b 1161 886 1157 886 1160 886 b 1004 135 974 564 901 200 b 1376 388 1104 72 1285 199 l 1438 347 b 842 4 1288 14 967 -81 b 817 317 776 47 774 161 b 526 374 743 344 640 364 b 68 -287 304 140 124 -111 m 343 -204 b 496 -82 365 -185 426 -150 b 626 -172 510 -100 556 -150 b 449 -331 583 -225 515 -293 b 343 -204 413 -299 367 -249 m 604 453 b 842 396 685 436 765 417 b 1028 807 883 517 947 657 b 604 453 886 710 739 586 "},"À":{"ha":1376,"x_min":0,"x_max":0,"o":"m 68 -287 b -165 -167 -33 -308 -147 -242 b 332 376 -75 -29 114 175 b 26 338 229 374 124 361 b 93 494 19 369 33 428 b 449 482 171 514 301 506 b 1121 963 676 681 924 865 b 1164 892 1150 944 1163 915 l 1156 886 b 1161 886 1157 886 1160 886 b 1004 135 974 564 901 200 b 1376 388 1104 72 1285 199 l 1438 347 b 842 4 1288 14 967 -81 b 817 317 776 47 774 161 b 526 374 743 344 640 364 b 68 -287 304 140 124 -111 m 604 453 b 842 396 685 436 765 417 b 1028 807 883 517 947 657 b 604 453 886 710 739 586 m 1053 1122 b 1185 1246 1064 1182 1125 1247 b 1350 1076 1213 1174 1286 1115 b 1324 1022 1353 1058 1340 1029 b 1053 1122 1222 1032 1103 1063 "},"Ả":{"ha":1376,"x_min":0,"x_max":0,"o":"m 68 -287 b -165 -167 -33 -308 -147 -242 b 332 376 -75 -29 114 175 b 26 338 229 374 124 361 b 93 494 19 369 33 428 b 449 482 171 514 301 506 b 1121 963 676 681 924 865 b 1164 892 1150 944 1163 915 l 1156 886 b 1161 886 1157 886 1160 886 b 1004 135 974 564 901 200 b 1376 388 1104 72 1285 199 l 1438 347 b 842 4 1288 14 967 -81 b 817 317 776 47 774 161 b 526 374 743 344 640 364 b 68 -287 304 140 124 -111 m 604 453 b 842 396 685 436 765 417 b 1028 807 883 517 947 657 b 604 453 886 710 739 586 m 1021 1039 b 1254 1289 1233 1115 1290 1243 b 1139 1303 1219 1329 1168 1315 b 1126 1336 1128 1307 1121 1319 b 1415 1386 1238 1433 1357 1454 b 1038 1006 1486 1303 1393 1114 l 1021 1039 "},"Ā":{"ha":1376,"x_min":0,"x_max":0,"o":"m 68 -287 b -165 -167 -33 -308 -147 -242 b 332 376 -75 -29 114 175 b 26 338 229 374 124 361 b 93 494 19 369 33 428 b 449 482 171 514 301 506 b 1121 963 676 681 924 865 b 1164 892 1150 944 1163 915 l 1156 886 b 1161 886 1157 886 1160 886 b 1004 135 974 564 901 200 b 1376 388 1104 72 1285 199 l 1438 347 b 842 4 1288 14 967 -81 b 817 317 776 47 774 161 b 526 374 743 344 640 364 b 68 -287 304 140 124 -111 m 604 453 b 842 396 685 436 765 417 b 1028 807 883 517 947 657 b 604 453 886 710 739 586 m 958 1072 b 997 1156 958 1094 978 1129 b 1351 1154 1125 1143 1263 1138 b 1336 1026 1381 1128 1356 1057 b 958 1072 1171 994 988 1058 "},"Ą":{"ha":1376,"x_min":0,"x_max":0,"o":"m 68 -287 b -165 -167 -33 -308 -147 -242 b 332 376 -75 -29 114 175 b 26 338 229 374 124 361 b 93 494 19 369 33 428 b 449 482 171 514 301 506 b 1121 963 676 681 924 865 b 1164 892 1150 944 1163 915 l 1156 886 b 1161 886 1157 886 1160 886 b 1004 135 974 564 901 200 b 1376 388 1104 72 1285 199 l 1438 347 b 1013 -19 1336 122 1157 6 b 821 -253 835 -97 788 -210 b 936 -267 856 -293 907 -279 b 949 -300 947 -271 954 -283 b 660 -350 839 -397 718 -418 b 901 -19 599 -279 658 -129 b 842 4 879 -15 858 -7 b 817 317 776 47 774 161 b 526 374 743 344 640 364 b 68 -287 304 140 124 -111 m 604 453 b 842 396 685 436 765 417 b 1028 807 883 517 947 657 b 604 453 886 710 739 586 "},"Å":{"ha":1376,"x_min":0,"x_max":0,"o":"m 68 -287 b -165 -167 -33 -308 -147 -242 b 332 376 -75 -29 114 175 b 26 338 229 374 124 361 b 93 494 19 369 33 428 b 449 482 171 514 301 506 b 1121 963 676 681 924 865 b 1164 892 1150 944 1163 915 l 1156 886 b 1161 886 1157 886 1160 886 b 1004 135 974 564 901 200 b 1376 388 1104 72 1285 199 l 1438 347 b 842 4 1288 14 967 -81 b 817 317 776 47 774 161 b 526 374 743 344 640 364 b 68 -287 304 140 124 -111 m 604 453 b 842 396 685 436 765 417 b 1028 807 883 517 947 657 b 604 453 886 710 739 586 m 1190 1029 b 1301 1297 889 969 1006 1229 b 1190 1029 1593 1361 1497 1090 m 1199 1086 b 1263 1231 1267 1093 1408 1243 b 1199 1086 1140 1218 1103 1076 "},"Ã":{"ha":1376,"x_min":0,"x_max":0,"o":"m 68 -287 b -165 -167 -33 -308 -147 -242 b 332 376 -75 -29 114 175 b 26 338 229 374 124 361 b 93 494 19 369 33 428 b 449 482 171 514 301 506 b 1121 963 676 681 924 865 b 1164 892 1150 944 1163 915 l 1156 886 b 1161 886 1157 886 1160 886 b 1004 135 974 564 901 200 b 1376 388 1104 72 1285 199 l 1438 347 b 842 4 1288 14 967 -81 b 817 317 776 47 774 161 b 526 374 743 344 640 364 b 68 -287 304 140 124 -111 m 604 453 b 842 396 685 436 765 417 b 1028 807 883 517 947 657 b 604 453 886 710 739 586 m 975 1153 b 1253 1149 1228 1376 1186 1122 b 1324 1226 1293 1164 1315 1197 b 1454 1168 1386 1253 1467 1246 b 1194 1038 1358 1060 1232 1028 b 1135 1158 1149 1044 1161 1161 b 1065 1035 1106 1154 1071 1085 b 975 1153 1004 1019 967 1104 "},"Æ":{"ha":1872,"x_min":0,"x_max":0,"o":"m 68 -287 b -165 -167 -33 -308 -147 -242 b 332 376 -75 -29 114 175 b 26 338 229 374 124 361 b 93 494 19 369 33 428 b 449 482 171 514 301 506 b 1121 963 676 681 924 865 b 1157 919 1139 951 1151 936 b 1676 933 1321 1006 1546 1019 b 1681 554 1847 821 1676 663 b 1438 604 1622 536 1471 546 b 1596 864 1481 726 1658 778 b 1131 531 1507 982 1139 839 b 1404 443 1329 556 1426 521 b 1064 431 1382 364 1179 329 b 1067 18 900 347 881 113 b 1878 386 1289 -93 1744 78 l 1939 349 b 894 -85 1763 -53 1208 -239 b 761 335 678 22 675 204 b 526 374 694 353 614 367 b 68 -287 304 140 124 -111 m 604 453 b 818 403 676 438 749 421 b 1008 489 872 453 940 486 b 1007 793 942 608 951 711 b 604 453 872 697 733 579 "},"Ǣ":{"ha":1872,"x_min":0,"x_max":0,"o":"m 68 -287 b -165 -167 -33 -308 -147 -242 b 332 376 -75 -29 114 175 b 26 338 229 374 124 361 b 93 494 19 369 33 428 b 449 482 171 514 301 506 b 1121 963 676 681 924 865 b 1157 919 1139 951 1151 936 b 1676 933 1321 1006 1546 1019 b 1681 554 1847 821 1676 663 b 1438 604 1622 536 1471 546 b 1596 864 1481 726 1658 778 b 1131 531 1507 982 1139 839 b 1404 443 1329 556 1426 521 b 1064 431 1382 364 1179 329 b 1067 18 900 347 881 113 b 1878 386 1289 -93 1744 78 l 1939 349 b 894 -85 1763 -53 1208 -239 b 761 335 678 22 675 204 b 526 374 694 353 614 367 b 68 -287 304 140 124 -111 m 604 453 b 818 403 676 438 749 421 b 1008 489 872 453 940 486 b 1007 793 942 608 951 711 b 604 453 872 697 733 579 m 958 1072 b 997 1156 958 1094 978 1129 b 1351 1154 1125 1143 1263 1138 b 1336 1026 1381 1128 1356 1057 b 958 1072 1171 994 988 1058 "},"B":{"ha":1394,"x_min":0,"x_max":0,"o":"m 635 -179 b 72 200 390 -203 61 -96 b 256 226 108 226 197 249 b 731 -89 199 18 386 -164 b 896 356 1104 -7 1056 256 b 647 356 821 343 738 342 b 519 -22 590 247 540 124 b 357 65 461 -37 368 13 b 783 893 399 261 650 513 b 939 865 821 904 931 883 b 683 418 907 732 788 596 b 1054 892 1083 347 1283 711 b 281 690 824 1072 444 810 b 192 831 233 708 192 754 b 1192 958 461 953 856 1126 b 1113 429 1418 846 1357 569 b 635 -179 1342 257 1129 -137 "},"Ḅ":{"ha":1394,"x_min":0,"x_max":0,"o":"m 635 -179 b 72 200 390 -203 61 -96 b 256 226 108 226 197 249 b 731 -89 199 18 386 -164 b 896 356 1104 -7 1056 256 b 647 356 821 343 738 342 b 519 -22 590 247 540 124 b 357 65 461 -37 368 13 b 783 893 399 261 650 513 b 939 865 821 904 931 883 b 683 418 907 732 788 596 b 1054 892 1083 347 1283 711 b 281 690 824 1072 444 810 b 192 831 233 708 192 754 b 1192 958 461 953 856 1126 b 1113 429 1418 846 1357 569 b 635 -179 1342 257 1129 -137 m 351 -351 b 504 -229 374 -332 435 -297 b 635 -319 518 -247 564 -297 b 457 -478 592 -372 524 -440 b 351 -351 421 -446 375 -396 "},"Ƀ":{"ha":1394,"x_min":0,"x_max":0,"o":"m 635 -179 b 72 200 390 -203 61 -96 b 256 226 108 226 197 249 b 731 -89 199 18 386 -164 b 896 356 1104 -7 1056 256 b 647 356 821 343 738 342 l 625 311 b 825 274 708 308 779 296 b 783 125 824 206 813 172 b 560 151 732 142 650 154 b 519 -22 542 97 528 39 b 357 65 461 -37 368 13 b 374 122 361 83 367 103 b 281 86 342 113 311 101 b 379 290 275 167 329 246 b 469 304 410 296 440 301 b 783 893 565 461 699 651 b 939 865 821 904 931 883 b 683 418 907 732 788 596 b 1054 892 1083 347 1283 711 b 281 690 824 1072 444 810 b 192 831 233 708 192 754 b 1192 958 461 953 856 1126 b 1113 429 1418 846 1357 569 b 635 -179 1342 257 1129 -137 "},"C":{"ha":1156,"x_min":0,"x_max":0,"o":"m 221 -69 b 957 933 -372 275 467 1253 b 910 500 1126 822 908 607 b 667 551 853 483 700 490 b 875 864 713 674 936 778 b 371 678 779 990 519 886 b 378 40 229 475 182 160 b 1157 388 588 -89 1024 78 l 1219 349 b 221 -69 1043 -54 522 -246 "},"Ć":{"ha":1156,"x_min":0,"x_max":0,"o":"m 221 -69 b 957 933 -372 275 467 1253 b 910 500 1126 822 908 607 b 667 551 853 483 700 490 b 875 864 713 674 936 778 b 371 678 779 990 519 886 b 378 40 229 475 182 160 b 1157 388 588 -89 1024 78 l 1219 349 b 221 -69 1043 -54 522 -246 m 714 1017 b 714 1083 699 1024 701 1060 b 976 1319 803 1139 910 1222 b 1046 1174 1039 1328 1067 1253 b 714 1017 964 1093 822 1040 "},"Č":{"ha":1156,"x_min":0,"x_max":0,"o":"m 221 -69 b 957 933 -372 275 467 1253 b 910 500 1126 822 908 607 b 667 551 853 483 700 490 b 875 864 713 674 936 778 b 371 678 779 990 519 886 b 378 40 229 475 182 160 b 1157 388 588 -89 1024 78 l 1219 349 b 221 -69 1043 -54 522 -246 m 650 1200 b 735 1279 665 1231 696 1269 b 818 1111 751 1240 782 1178 b 999 1281 850 1144 914 1206 b 1050 1185 1022 1260 1047 1225 b 857 1004 971 1132 903 1065 b 769 1038 821 1010 781 1021 b 650 1200 764 1082 744 1114 "},"Ç":{"ha":1156,"x_min":0,"x_max":0,"o":"m 221 -69 b 957 933 -372 275 467 1253 b 910 500 1126 822 908 607 b 667 551 853 483 700 490 b 875 864 713 674 936 778 b 371 678 779 990 519 886 b 378 40 229 475 182 160 b 1157 388 588 -89 1024 78 l 1219 349 b 368 -124 1069 6 669 -185 l 304 -176 b 458 -411 479 -182 543 -307 b 61 -444 375 -511 167 -531 b 86 -400 60 -429 69 -410 b 297 -354 167 -432 249 -415 b 175 -229 344 -292 310 -221 l 201 -182 l 313 -110 b 221 -69 281 -100 250 -86 "},"Ĉ":{"ha":1156,"x_min":0,"x_max":0,"o":"m 221 -69 b 686 993 -271 217 224 939 b 649 1076 667 1014 650 1043 b 840 1257 726 1129 794 1196 b 929 1224 876 1251 918 1240 b 1046 1063 932 1179 951 1147 b 963 982 1031 1031 1000 993 b 881 1149 946 1021 915 1085 b 715 996 851 1119 792 1064 b 957 933 800 1000 882 982 b 910 500 1126 822 908 607 b 667 551 853 483 700 490 b 875 864 713 674 936 778 b 371 678 779 990 519 886 b 378 40 229 475 182 160 b 1157 388 588 -89 1024 78 l 1219 349 b 221 -69 1043 -54 522 -246 "},"Ċ":{"ha":1156,"x_min":0,"x_max":0,"o":"m 221 -69 b 957 933 -372 275 467 1253 b 910 500 1126 822 908 607 b 667 551 853 483 700 490 b 875 864 713 674 936 778 b 371 678 779 990 519 886 b 378 40 229 475 182 160 b 1157 388 588 -89 1024 78 l 1219 349 b 221 -69 1043 -54 522 -246 m 733 1157 b 886 1279 756 1176 817 1211 b 1017 1189 900 1261 946 1211 b 839 1031 974 1136 906 1068 b 733 1157 803 1064 757 1113 "},"D":{"ha":1529,"x_min":0,"x_max":0,"o":"m 533 -22 b 371 65 475 -37 382 13 b 796 893 413 261 664 513 b 953 864 835 904 944 882 b 533 -22 897 640 596 407 m 72 200 b 257 226 108 226 197 249 b 731 -89 199 18 386 -162 b 1039 924 1196 10 1381 753 b 282 690 778 1056 444 811 b 192 831 232 708 192 754 b 1192 958 461 953 856 1126 b 750 -162 1683 711 1321 -54 b 72 200 354 -236 61 -96 "},"Ɖ":{"ha":1529,"x_min":0,"x_max":0,"o":"m 533 -22 b 371 65 475 -37 382 13 b 517 357 389 150 446 246 b 356 306 461 347 407 331 b 454 510 350 386 404 465 b 624 531 511 521 569 528 b 796 893 686 638 749 757 b 953 864 835 904 944 882 b 764 526 926 760 847 654 b 900 493 819 521 867 508 b 858 344 899 425 888 392 b 669 371 813 360 746 371 b 533 -22 608 260 556 131 m 72 200 b 257 226 108 226 197 249 b 731 -89 199 18 386 -162 b 1039 924 1196 10 1381 753 b 282 690 778 1056 444 811 b 192 831 232 708 192 754 b 1192 958 461 953 856 1126 b 750 -162 1683 711 1321 -54 b 72 200 354 -236 61 -96 "},"Ð":{"ha":1529,"x_min":0,"x_max":0,"o":"m 533 -22 b 371 65 475 -37 382 13 b 517 357 389 150 446 246 b 356 306 461 347 407 331 b 454 510 350 386 404 465 b 624 531 511 521 569 528 b 796 893 686 638 749 757 b 953 864 835 904 944 882 b 764 526 926 760 847 654 b 900 493 819 521 867 508 b 858 344 899 425 888 392 b 669 371 813 360 746 371 b 533 -22 608 260 556 131 m 72 200 b 257 226 108 226 197 249 b 731 -89 199 18 386 -162 b 1039 924 1196 10 1381 753 b 282 690 778 1056 444 811 b 192 831 232 708 192 754 b 1192 958 461 953 856 1126 b 750 -162 1683 711 1321 -54 b 72 200 354 -236 61 -96 "},"Ď":{"ha":1529,"x_min":0,"x_max":0,"o":"m 533 -22 b 371 65 475 -37 382 13 b 796 893 413 261 664 513 b 953 864 835 904 944 882 b 533 -22 897 640 596 407 m 72 200 b 257 226 108 226 197 249 b 731 -89 199 18 386 -162 b 1039 924 1196 10 1381 753 b 282 690 778 1056 444 811 b 192 831 232 708 192 754 b 1192 958 461 953 856 1126 b 750 -162 1683 711 1321 -54 b 72 200 354 -236 61 -96 m 915 1203 b 1000 1282 931 1233 961 1272 b 1083 1114 1017 1243 1047 1181 b 1264 1283 1115 1147 1179 1208 b 1315 1188 1288 1263 1313 1228 b 1122 1007 1236 1135 1168 1068 b 1035 1040 1086 1013 1046 1024 b 915 1203 1029 1085 1010 1117 "},"Đ":{"ha":1529,"x_min":0,"x_max":0,"o":"m 533 -22 b 371 65 475 -37 382 13 b 517 357 389 150 446 246 b 356 306 461 347 407 331 b 454 510 350 386 404 465 b 624 531 511 521 569 528 b 796 893 686 638 749 757 b 953 864 835 904 944 882 b 764 526 926 760 847 654 b 900 493 819 521 867 508 b 858 344 899 425 888 392 b 669 371 813 360 746 371 b 533 -22 608 260 556 131 m 72 200 b 257 226 108 226 197 249 b 731 -89 199 18 386 -162 b 1039 924 1196 10 1381 753 b 282 690 778 1056 444 811 b 192 831 232 708 192 754 b 1192 958 461 953 856 1126 b 750 -162 1683 711 1321 -54 b 72 200 354 -236 61 -96 "},"Ḍ":{"ha":1529,"x_min":0,"x_max":0,"o":"m 533 -22 b 371 65 475 -37 382 13 b 796 893 413 261 664 513 b 953 864 835 904 944 882 b 533 -22 897 640 596 407 m 72 200 b 257 226 108 226 197 249 b 731 -89 199 18 386 -162 b 1039 924 1196 10 1381 753 b 282 690 778 1056 444 811 b 192 831 232 708 192 754 b 1192 958 461 953 856 1126 b 750 -162 1683 711 1321 -54 b 72 200 354 -236 61 -96 m 257 -371 b 410 -249 279 -351 340 -317 b 540 -339 424 -267 469 -317 b 363 -497 497 -392 429 -460 b 257 -371 326 -465 281 -415 "},"Ḏ":{"ha":1529,"x_min":0,"x_max":0,"o":"m 533 -22 b 371 65 475 -37 382 13 b 796 893 413 261 664 513 b 953 864 835 904 944 882 b 533 -22 897 640 596 407 m 72 200 b 257 226 108 226 197 249 b 731 -89 199 18 386 -162 b 1039 924 1196 10 1381 753 b 282 690 778 1056 444 811 b 192 831 232 708 192 754 b 1192 958 461 953 856 1126 b 750 -162 1683 711 1321 -54 b 72 200 354 -236 61 -96 m 206 -346 b 244 -262 206 -324 225 -287 b 599 -262 372 -275 510 -281 b 583 -390 628 -289 603 -360 b 206 -346 418 -422 235 -358 "},"E":{"ha":1135,"x_min":0,"x_max":0,"o":"m 153 -85 b 267 489 -208 93 25 479 b 935 933 44 882 676 1103 b 939 554 1106 821 935 663 b 696 604 881 536 729 546 b 854 864 739 726 917 778 b 389 531 765 982 397 839 b 663 443 588 556 685 521 b 322 431 640 364 438 329 b 325 18 158 347 139 113 b 1136 386 547 -93 1003 78 l 1197 349 b 153 -85 1021 -53 467 -239 "},"É":{"ha":1135,"x_min":0,"x_max":0,"o":"m 153 -85 b 267 489 -208 93 25 479 b 935 933 44 882 676 1103 b 939 554 1106 821 935 663 b 696 604 881 536 729 546 b 854 864 739 726 917 778 b 389 531 765 982 397 839 b 663 443 588 556 685 521 b 322 431 640 364 438 329 b 325 18 158 347 139 113 b 1136 386 547 -93 1003 78 l 1197 349 b 153 -85 1021 -53 467 -239 m 667 1036 b 667 1103 651 1043 654 1079 b 929 1339 756 1158 863 1242 b 999 1193 992 1347 1019 1272 b 667 1036 917 1113 775 1060 "},"Ě":{"ha":1135,"x_min":0,"x_max":0,"o":"m 153 -85 b 267 489 -208 93 25 479 b 935 933 44 882 676 1103 b 939 554 1106 821 935 663 b 696 604 881 536 729 546 b 854 864 739 726 917 778 b 389 531 765 982 397 839 b 663 443 588 556 685 521 b 322 431 640 364 438 329 b 325 18 158 347 139 113 b 1136 386 547 -93 1003 78 l 1197 349 b 153 -85 1021 -53 467 -239 m 603 1219 b 688 1299 618 1250 649 1289 b 771 1131 704 1260 735 1197 b 951 1300 803 1164 867 1225 b 1003 1204 975 1279 1000 1244 b 810 1024 924 1151 856 1085 b 722 1057 774 1029 733 1040 b 603 1219 717 1101 697 1133 "},"Ȩ":{"ha":1135,"x_min":0,"x_max":0,"o":"m 153 -85 b 267 489 -208 93 25 479 b 935 933 44 882 676 1103 b 939 554 1106 821 935 663 b 696 604 881 536 729 546 b 854 864 739 726 917 778 b 389 531 765 982 397 839 b 663 443 588 556 685 521 b 322 431 640 364 438 329 b 325 18 158 347 139 113 b 1136 386 547 -93 1003 78 l 1197 349 b 307 -132 1047 7 624 -179 l 254 -175 b 408 -410 429 -181 493 -306 b 11 -443 325 -510 117 -529 b 36 -399 10 -428 19 -408 b 247 -353 117 -431 199 -414 b 125 -228 294 -290 260 -219 l 151 -181 l 246 -119 b 153 -85 214 -111 182 -99 "},"Ê":{"ha":1135,"x_min":0,"x_max":0,"o":"m 153 -85 b 267 489 -208 93 25 479 b 935 933 44 882 676 1103 b 939 554 1106 821 935 663 b 696 604 881 536 729 546 b 854 864 739 726 917 778 b 389 531 765 982 397 839 b 663 443 588 556 685 521 b 322 431 640 364 438 329 b 325 18 158 347 139 113 b 1136 386 547 -93 1003 78 l 1197 349 b 153 -85 1021 -53 467 -239 m 601 1096 b 793 1276 679 1149 747 1215 b 882 1243 829 1271 871 1260 b 999 1082 885 1199 904 1167 b 915 1001 983 1050 953 1013 b 833 1168 899 1040 868 1104 b 651 1000 801 1136 736 1075 b 601 1096 628 1021 603 1056 "},"Ế":{"ha":1135,"x_min":0,"x_max":0,"o":"m 153 -85 b 267 489 -208 93 25 479 b 935 933 44 882 676 1103 b 939 554 1106 821 935 663 b 696 604 881 536 729 546 b 854 864 739 726 917 778 b 389 531 765 982 397 839 b 663 443 588 556 685 521 b 322 431 640 364 438 329 b 325 18 158 347 139 113 b 1136 386 547 -93 1003 78 l 1197 349 b 153 -85 1021 -53 467 -239 m 574 1082 b 765 1263 651 1135 719 1201 b 854 1229 801 1257 843 1246 b 971 1068 857 1185 876 1153 b 888 988 956 1036 925 999 b 806 1154 871 1026 840 1090 b 624 986 774 1122 708 1061 b 574 1082 600 1007 575 1042 m 751 1289 b 751 1356 736 1296 739 1332 b 1014 1592 840 1411 947 1494 b 1083 1446 1076 1600 1104 1525 b 751 1289 1001 1365 860 1313 "},"Ệ":{"ha":1135,"x_min":0,"x_max":0,"o":"m 153 -85 b 267 489 -208 93 25 479 b 935 933 44 882 676 1103 b 939 554 1106 821 935 663 b 696 604 881 536 729 546 b 854 864 739 726 917 778 b 389 531 765 982 397 839 b 663 443 588 556 685 521 b 322 431 640 364 438 329 b 325 18 158 347 139 113 b 1136 386 547 -93 1003 78 l 1197 349 b 153 -85 1021 -53 467 -239 m 117 -319 b 269 -197 139 -300 200 -265 b 400 -287 283 -215 329 -265 b 222 -446 357 -340 289 -408 b 117 -319 186 -414 140 -364 m 601 1096 b 793 1276 679 1149 747 1215 b 882 1243 829 1271 871 1260 b 999 1082 885 1199 904 1167 b 915 1001 983 1050 953 1013 b 833 1168 899 1040 868 1104 b 651 1000 801 1136 736 1075 b 601 1096 628 1021 603 1056 "},"Ề":{"ha":1135,"x_min":0,"x_max":0,"o":"m 153 -85 b 267 489 -208 93 25 479 b 935 933 44 882 676 1103 b 939 554 1106 821 935 663 b 696 604 881 536 729 546 b 854 864 739 726 917 778 b 389 531 765 982 397 839 b 663 443 588 556 685 521 b 322 431 640 364 438 329 b 325 18 158 347 139 113 b 1136 386 547 -93 1003 78 l 1197 349 b 153 -85 1021 -53 467 -239 m 583 1101 b 775 1282 661 1154 729 1221 b 864 1249 811 1276 853 1265 b 981 1088 867 1204 886 1172 b 897 1007 965 1056 935 1018 b 815 1174 881 1046 850 1110 b 633 1006 783 1142 718 1081 b 583 1101 610 1026 585 1061 m 763 1419 b 894 1543 774 1479 835 1544 b 1060 1374 922 1471 996 1413 b 1033 1319 1063 1356 1050 1326 b 763 1419 932 1329 813 1360 "},"Ể":{"ha":1135,"x_min":0,"x_max":0,"o":"m 153 -85 b 267 489 -208 93 25 479 b 935 933 44 882 676 1103 b 939 554 1106 821 935 663 b 696 604 881 536 729 546 b 854 864 739 726 917 778 b 389 531 765 982 397 839 b 663 443 588 556 685 521 b 322 431 640 364 438 329 b 325 18 158 347 139 113 b 1136 386 547 -93 1003 78 l 1197 349 b 153 -85 1021 -53 467 -239 m 607 1115 b 799 1296 685 1168 753 1235 b 888 1263 835 1290 876 1279 b 1004 1101 890 1218 910 1186 b 921 1021 989 1069 958 1032 b 839 1188 904 1060 874 1124 b 657 1019 807 1156 742 1094 b 607 1115 633 1040 608 1075 m 754 1350 b 988 1600 967 1426 1024 1554 b 872 1614 953 1640 901 1626 b 860 1647 861 1618 854 1631 b 1149 1697 971 1744 1090 1765 b 771 1317 1219 1614 1126 1425 l 754 1350 "},"Ễ":{"ha":1135,"x_min":0,"x_max":0,"o":"m 153 -85 b 267 489 -208 93 25 479 b 935 933 44 882 676 1103 b 939 554 1106 821 935 663 b 696 604 881 536 729 546 b 854 864 739 726 917 778 b 389 531 765 982 397 839 b 663 443 588 556 685 521 b 322 431 640 364 438 329 b 325 18 158 347 139 113 b 1136 386 547 -93 1003 78 l 1197 349 b 153 -85 1021 -53 467 -239 m 601 1126 b 793 1307 679 1179 747 1246 b 882 1274 829 1301 871 1290 b 999 1113 885 1229 904 1197 b 915 1032 983 1081 953 1043 b 833 1199 899 1071 868 1135 b 651 1031 801 1167 736 1106 b 601 1126 628 1051 603 1086 m 703 1475 b 981 1471 956 1699 914 1444 b 1051 1549 1021 1486 1043 1519 b 1182 1490 1114 1575 1194 1568 b 922 1360 1086 1382 960 1350 b 863 1481 876 1367 889 1483 b 793 1357 833 1476 799 1407 b 703 1475 732 1342 694 1426 "},"Ë":{"ha":1135,"x_min":0,"x_max":0,"o":"m 153 -85 b 267 489 -208 93 25 479 b 935 933 44 882 676 1103 b 939 554 1106 821 935 663 b 696 604 881 536 729 546 b 854 864 739 726 917 778 b 389 531 765 982 397 839 b 663 443 588 556 685 521 b 322 431 640 364 438 329 b 325 18 158 347 139 113 b 1136 386 547 -93 1003 78 l 1197 349 b 153 -85 1021 -53 467 -239 m 567 1149 b 719 1271 589 1168 651 1204 b 817 1193 732 1254 768 1219 b 936 1290 847 1215 890 1246 b 1067 1200 950 1272 996 1222 b 889 1042 1024 1147 956 1079 b 806 1131 864 1063 831 1096 b 672 1022 772 1096 726 1053 b 567 1149 636 1056 589 1104 "},"Ė":{"ha":1135,"x_min":0,"x_max":0,"o":"m 153 -85 b 267 489 -208 93 25 479 b 935 933 44 882 676 1103 b 939 554 1106 821 935 663 b 696 604 881 536 729 546 b 854 864 739 726 917 778 b 389 531 765 982 397 839 b 663 443 588 556 685 521 b 322 431 640 364 438 329 b 325 18 158 347 139 113 b 1136 386 547 -93 1003 78 l 1197 349 b 153 -85 1021 -53 467 -239 m 686 1176 b 839 1299 708 1196 769 1231 b 969 1208 853 1281 899 1231 b 792 1050 926 1156 858 1088 b 686 1176 756 1083 710 1132 "},"Ẹ":{"ha":1135,"x_min":0,"x_max":0,"o":"m 153 -85 b 267 489 -208 93 25 479 b 935 933 44 882 676 1103 b 939 554 1106 821 935 663 b 696 604 881 536 729 546 b 854 864 739 726 917 778 b 389 531 765 982 397 839 b 663 443 588 556 685 521 b 322 431 640 364 438 329 b 325 18 158 347 139 113 b 1136 386 547 -93 1003 78 l 1197 349 b 153 -85 1021 -53 467 -239 m 117 -319 b 269 -197 139 -300 200 -265 b 400 -287 283 -215 329 -265 b 222 -446 357 -340 289 -408 b 117 -319 186 -414 140 -364 "},"È":{"ha":1135,"x_min":0,"x_max":0,"o":"m 153 -85 b 267 489 -208 93 25 479 b 935 933 44 882 676 1103 b 939 554 1106 821 935 663 b 696 604 881 536 729 546 b 854 864 739 726 917 778 b 389 531 765 982 397 839 b 663 443 588 556 685 521 b 322 431 640 364 438 329 b 325 18 158 347 139 113 b 1136 386 547 -93 1003 78 l 1197 349 b 153 -85 1021 -53 467 -239 m 668 1147 b 800 1271 679 1207 740 1272 b 965 1101 828 1199 901 1140 b 939 1047 968 1083 956 1054 b 668 1147 838 1057 718 1088 "},"Ẻ":{"ha":1135,"x_min":0,"x_max":0,"o":"m 153 -85 b 267 489 -208 93 25 479 b 935 933 44 882 676 1103 b 939 554 1106 821 935 663 b 696 604 881 536 729 546 b 854 864 739 726 917 778 b 389 531 765 982 397 839 b 663 443 588 556 685 521 b 322 431 640 364 438 329 b 325 18 158 347 139 113 b 1136 386 547 -93 1003 78 l 1197 349 b 153 -85 1021 -53 467 -239 m 636 1064 b 869 1314 849 1140 906 1268 b 754 1328 835 1354 783 1340 b 742 1361 743 1332 736 1344 b 1031 1411 853 1458 972 1479 b 653 1031 1101 1328 1008 1139 l 636 1064 "},"Ē":{"ha":1135,"x_min":0,"x_max":0,"o":"m 153 -85 b 267 489 -208 93 25 479 b 935 933 44 882 676 1103 b 939 554 1106 821 935 663 b 696 604 881 536 729 546 b 854 864 739 726 917 778 b 389 531 765 982 397 839 b 663 443 588 556 685 521 b 322 431 640 364 438 329 b 325 18 158 347 139 113 b 1136 386 547 -93 1003 78 l 1197 349 b 153 -85 1021 -53 467 -239 m 574 1097 b 613 1181 574 1119 593 1154 b 967 1179 740 1168 878 1163 b 951 1051 996 1153 971 1082 b 574 1097 786 1019 603 1083 "},"Ę":{"ha":1135,"x_min":0,"x_max":0,"o":"m 153 -85 b 267 489 -208 93 25 479 b 935 933 44 882 676 1103 b 939 554 1106 821 935 663 b 696 604 881 536 729 546 b 854 864 739 726 917 778 b 389 531 765 982 397 839 b 663 443 588 556 685 521 b 322 431 640 364 438 329 b 325 18 158 347 139 113 b 1136 386 547 -93 1003 78 l 1197 349 b 464 -136 1071 61 750 -117 b 269 -371 283 -214 236 -328 b 385 -385 304 -411 356 -397 b 397 -418 396 -389 403 -401 b 108 -468 288 -515 167 -536 b 353 -136 47 -396 108 -246 b 153 -85 281 -131 213 -114 "},"Ẽ":{"ha":1135,"x_min":0,"x_max":0,"o":"m 153 -85 b 267 489 -208 93 25 479 b 935 933 44 882 676 1103 b 939 554 1106 821 935 663 b 696 604 881 536 729 546 b 854 864 739 726 917 778 b 389 531 765 982 397 839 b 663 443 588 556 685 521 b 322 431 640 364 438 329 b 325 18 158 347 139 113 b 1136 386 547 -93 1003 78 l 1197 349 b 153 -85 1021 -53 467 -239 m 590 1178 b 868 1174 843 1401 801 1147 b 939 1251 908 1189 931 1222 b 1069 1193 1001 1278 1082 1271 b 810 1063 974 1085 847 1053 b 750 1183 764 1069 776 1186 b 681 1060 721 1179 686 1110 b 590 1178 619 1044 582 1129 "},"F":{"ha":1335,"x_min":0,"x_max":0,"o":"m 1161 297 b 789 369 1094 332 953 357 b 361 -242 581 154 413 -79 b 151 -133 271 -261 168 -201 b 621 378 236 -6 414 189 b 108 338 436 382 244 369 b 176 494 104 369 115 428 b 719 467 271 518 481 500 b 1221 840 888 613 1065 749 b 197 799 925 876 533 869 b 303 1014 189 846 210 924 b 1342 908 543 1064 1067 968 l 1526 940 b 1521 778 1540 892 1544 825 b 1347 821 1471 794 1413 810 b 864 443 1189 731 1018 594 b 1179 386 968 426 1076 407 b 1161 297 1179 361 1176 324 "},"G":{"ha":1074,"x_min":0,"x_max":0,"o":"m 354 -664 b 294 -575 328 -642 297 -607 b 456 -43 340 -379 394 -199 b 97 -103 317 -121 182 -149 b 1008 933 -376 150 518 1253 b 961 500 1176 821 957 607 b 718 551 903 483 751 490 b 925 864 763 674 989 778 b 422 678 831 990 571 886 b 271 60 279 476 133 167 b 501 63 314 26 403 17 b 743 428 574 224 656 350 b 915 317 811 415 865 379 b 354 -664 736 194 432 -296 "},"Ğ":{"ha":1074,"x_min":0,"x_max":0,"o":"m 354 -664 b 294 -575 328 -642 297 -607 b 456 -43 340 -379 394 -199 b 97 -103 317 -121 182 -149 b 1008 933 -376 150 518 1253 b 961 500 1176 821 957 607 b 718 551 903 483 751 490 b 925 864 763 674 989 778 b 422 678 831 990 571 886 b 271 60 279 476 133 167 b 501 63 314 26 403 17 b 743 428 574 224 656 350 b 915 317 811 415 865 379 b 354 -664 736 194 432 -296 m 585 1157 b 768 1186 661 1233 763 1222 b 951 1183 760 1047 867 1021 b 1056 1164 1011 1215 1064 1194 b 585 1157 943 956 629 926 "},"Ǧ":{"ha":1074,"x_min":0,"x_max":0,"o":"m 354 -664 b 294 -575 328 -642 297 -607 b 456 -43 340 -379 394 -199 b 97 -103 317 -121 182 -149 b 779 990 -308 114 290 956 b 729 1015 756 996 736 1004 b 610 1178 724 1060 704 1092 b 694 1257 625 1208 656 1247 b 778 1089 711 1218 742 1156 b 958 1258 810 1122 874 1183 b 1010 1163 982 1238 1007 1203 b 824 990 935 1113 869 1050 b 1008 933 889 989 951 971 b 961 500 1176 821 957 607 b 718 551 903 483 751 490 b 925 864 763 674 989 778 b 422 678 831 990 571 886 b 271 60 279 476 133 167 b 501 63 314 26 403 17 b 743 428 574 224 656 350 b 915 317 811 415 865 379 b 354 -664 736 194 432 -296 "},"Ĝ":{"ha":1074,"x_min":0,"x_max":0,"o":"m 354 -664 b 294 -575 328 -642 297 -607 b 456 -43 340 -379 394 -199 b 97 -103 317 -121 182 -149 b 651 964 -274 96 196 817 b 608 1054 631 985 610 1018 b 800 1235 686 1107 754 1174 b 889 1201 836 1229 878 1218 b 1006 1040 892 1157 911 1125 b 940 968 993 1014 969 983 b 1008 933 964 958 986 947 b 961 500 1176 821 957 607 b 718 551 903 483 751 490 b 925 864 763 674 989 778 b 422 678 831 990 571 886 b 271 60 279 476 133 167 b 501 63 314 26 403 17 b 743 428 574 224 656 350 b 915 317 811 415 865 379 b 354 -664 736 194 432 -296 m 672 971 b 915 976 756 994 839 999 b 840 1126 897 1015 871 1071 b 672 971 810 1096 750 1040 "},"Ģ":{"ha":1074,"x_min":0,"x_max":0,"o":"m 354 -664 b 294 -575 328 -642 297 -607 b 456 -43 340 -379 394 -199 b 97 -103 317 -121 182 -149 b 1008 933 -376 150 518 1253 b 961 500 1176 821 957 607 b 718 551 903 483 751 490 b 925 864 763 674 989 778 b 422 678 831 990 571 886 b 271 60 279 476 133 167 b 501 63 314 26 403 17 b 743 428 574 224 656 350 b 915 317 811 415 865 379 b 354 -664 736 194 432 -296 m -50 -461 b 56 -362 -1 -426 33 -390 b -8 -301 31 -347 7 -328 b 142 -151 14 -256 64 -194 b 229 -268 174 -178 214 -222 b -26 -507 185 -367 71 -454 b -50 -461 -39 -497 -54 -479 "},"Ġ":{"ha":1074,"x_min":0,"x_max":0,"o":"m 354 -664 b 294 -575 328 -642 297 -607 b 456 -43 340 -379 394 -199 b 97 -103 317 -121 182 -149 b 1008 933 -376 150 518 1253 b 961 500 1176 821 957 607 b 718 551 903 483 751 490 b 925 864 763 674 989 778 b 422 678 831 990 571 886 b 271 60 279 476 133 167 b 501 63 314 26 403 17 b 743 428 574 224 656 350 b 915 317 811 415 865 379 b 354 -664 736 194 432 -296 m 693 1135 b 846 1257 715 1154 776 1189 b 976 1167 860 1239 906 1189 b 799 1008 933 1114 865 1046 b 693 1135 763 1042 717 1090 "},"Ḡ":{"ha":1074,"x_min":0,"x_max":0,"o":"m 354 -664 b 294 -575 328 -642 297 -607 b 456 -43 340 -379 394 -199 b 97 -103 317 -121 182 -149 b 1008 933 -376 150 518 1253 b 961 500 1176 821 957 607 b 718 551 903 483 751 490 b 925 864 763 674 989 778 b 422 678 831 990 571 886 b 271 60 279 476 133 167 b 501 63 314 26 403 17 b 743 428 574 224 656 350 b 915 317 811 415 865 379 b 354 -664 736 194 432 -296 m 581 1056 b 619 1139 581 1078 600 1113 b 974 1138 747 1126 885 1121 b 958 1010 1003 1111 978 1040 b 581 1056 793 978 610 1042 "},"Ǥ":{"ha":1074,"x_min":0,"x_max":0,"o":"m 354 -664 b 294 -575 328 -642 297 -607 b 456 -43 340 -379 394 -199 b 97 -103 317 -121 182 -149 b 1008 933 -376 150 518 1253 b 961 500 1176 821 957 607 b 718 551 903 483 751 490 b 925 864 763 674 989 778 b 422 678 831 990 571 886 b 271 60 279 476 133 167 b 501 63 314 26 403 17 b 547 158 515 96 532 128 b 417 113 503 147 458 133 b 515 317 411 193 465 272 b 660 336 564 326 613 333 b 743 428 686 371 714 403 b 915 317 811 415 865 379 b 961 300 932 313 947 307 b 919 151 960 232 949 199 b 774 176 883 164 832 174 b 354 -664 606 -29 414 -382 "},"H":{"ha":1465,"x_min":0,"x_max":0,"o":"m 53 -322 b -183 -200 -49 -342 -164 -275 b 471 378 28 -75 282 126 b 121 338 354 376 233 364 b 188 494 114 369 128 428 b 543 482 265 514 396 506 b 733 972 638 631 708 796 b 894 936 796 988 853 961 b 678 457 860 807 785 638 b 892 407 750 443 822 425 b 1292 979 953 583 1079 790 b 1401 878 1340 969 1378 921 b 1068 135 1008 633 942 207 b 1467 388 1169 72 1374 199 l 1528 347 b 906 4 1376 14 1031 -81 b 869 332 847 44 828 169 b 628 372 803 351 719 365 b 53 -322 476 131 276 -122 "},"Ħ":{"ha":1465,"x_min":0,"x_max":0,"o":"m 53 -322 b -183 -200 -49 -342 -164 -275 b 471 378 28 -75 282 126 b 121 338 354 376 233 364 b 188 494 114 369 128 428 b 396 500 239 507 311 508 b 551 646 388 557 472 614 l 636 653 b 733 972 683 754 717 861 b 894 936 796 988 853 961 b 788 660 874 857 838 763 b 1017 660 868 663 946 663 b 1292 979 1085 765 1175 875 b 1401 878 1340 969 1378 921 b 1151 650 1294 811 1213 732 b 1249 635 1188 646 1221 640 b 1185 528 1247 586 1229 561 b 1082 539 1156 532 1121 536 b 1068 135 986 354 992 179 b 1467 388 1169 72 1374 199 l 1528 347 b 906 4 1376 14 1031 -81 b 869 332 847 44 828 169 b 628 372 803 351 719 365 b 53 -322 476 131 276 -122 m 397 500 b 543 482 443 496 492 490 l 572 529 b 397 500 513 522 453 513 m 678 457 b 892 407 750 443 822 425 b 951 546 908 451 928 499 b 726 543 882 549 806 547 b 678 457 711 515 696 486 "},"Ḫ":{"ha":1465,"x_min":0,"x_max":0,"o":"m 53 -322 b -183 -200 -49 -342 -164 -275 b 471 378 28 -75 282 126 b 121 338 354 376 233 364 b 188 494 114 369 128 428 b 543 482 265 514 396 506 b 733 972 638 631 708 796 b 894 936 796 988 853 961 b 678 457 860 807 785 638 b 892 407 750 443 822 425 b 1292 979 953 583 1079 790 b 1401 878 1340 969 1378 921 b 1068 135 1008 633 942 207 b 1467 388 1169 72 1374 199 l 1528 347 b 906 4 1376 14 1031 -81 b 869 332 847 44 828 169 b 628 372 803 351 719 365 b 53 -322 476 131 276 -122 m 326 -128 b 510 -99 403 -51 504 -62 b 693 -101 501 -237 608 -264 b 797 -121 753 -69 806 -90 b 326 -128 685 -329 371 -358 "},"Ĥ":{"ha":1465,"x_min":0,"x_max":0,"o":"m 53 -322 b -183 -200 -49 -342 -164 -275 b 471 378 28 -75 282 126 b 121 338 354 376 233 364 b 188 494 114 369 128 428 b 543 482 265 514 396 506 b 733 972 638 631 708 796 b 894 936 796 988 853 961 b 678 457 860 807 785 638 b 892 407 750 443 822 425 b 1292 979 953 583 1079 790 b 1401 878 1340 969 1378 921 b 1068 135 1008 633 942 207 b 1467 388 1169 72 1374 199 l 1528 347 b 906 4 1376 14 1031 -81 b 869 332 847 44 828 169 b 628 372 803 351 719 365 b 53 -322 476 131 276 -122 m 913 1096 b 1104 1276 990 1149 1058 1215 b 1193 1243 1140 1271 1182 1260 b 1310 1082 1196 1199 1215 1167 b 1226 1001 1294 1050 1264 1013 b 1144 1168 1210 1040 1179 1104 b 963 1000 1113 1136 1047 1075 b 913 1096 939 1021 914 1056 "},"Ḥ":{"ha":1465,"x_min":0,"x_max":0,"o":"m 53 -322 b -183 -200 -49 -342 -164 -275 b 471 378 28 -75 282 126 b 121 338 354 376 233 364 b 188 494 114 369 128 428 b 543 482 265 514 396 506 b 733 972 638 631 708 796 b 894 936 796 988 853 961 b 678 457 860 807 785 638 b 892 407 750 443 822 425 b 1292 979 953 583 1079 790 b 1401 878 1340 969 1378 921 b 1068 135 1008 633 942 207 b 1467 388 1169 72 1374 199 l 1528 347 b 906 4 1376 14 1031 -81 b 869 332 847 44 828 169 b 628 372 803 351 719 365 b 53 -322 476 131 276 -122 m 388 -231 b 540 -108 410 -211 471 -176 b 671 -199 554 -126 600 -176 b 493 -357 628 -251 560 -319 b 388 -231 457 -325 411 -275 "},"I":{"ha":729,"x_min":0,"x_max":0,"o":"m -25 -160 b 276 1013 -262 42 197 475 b 474 901 326 1003 410 950 b 107 -49 418 567 -7 43 b 731 388 240 -157 615 151 l 790 347 b -25 -160 671 79 176 -329 "},"Ĳ":{"ha":1842,"x_min":0,"x_max":0,"o":"m -25 -160 b 276 1013 -262 42 197 475 b 474 901 326 1003 410 950 b 107 -49 418 567 -7 43 b 731 388 240 -157 615 151 l 790 347 b -25 -160 671 79 176 -329 m 578 -124 b 735 38 586 -47 658 10 b 1193 -83 842 -142 1029 -193 b 1704 821 1367 38 1565 333 b 938 733 1496 836 1258 801 b 1042 947 928 781 949 857 b 1739 904 1304 957 1533 947 b 1922 999 1779 947 1858 981 b 1969 768 1965 939 1989 842 b 1793 810 1913 788 1854 801 b 1233 -247 1651 292 1451 -64 b 578 -124 1011 -432 689 -367 "},"Í":{"ha":729,"x_min":0,"x_max":0,"o":"m -25 -160 b 276 1013 -262 42 197 475 b 474 901 326 1003 410 950 b 107 -49 418 567 -7 43 b 731 388 240 -157 615 151 l 790 347 b -25 -160 671 79 176 -329 m 297 1024 b 297 1090 282 1031 285 1067 b 560 1326 386 1146 493 1229 b 629 1181 622 1335 650 1260 b 297 1024 547 1100 406 1047 "},"Ǐ":{"ha":729,"x_min":0,"x_max":0,"o":"m -25 -160 b 276 1013 -262 42 197 475 b 474 901 326 1003 410 950 b 107 -49 418 567 -7 43 b 731 388 240 -157 615 151 l 790 347 b -25 -160 671 79 176 -329 m 233 1207 b 318 1286 249 1238 279 1276 b 401 1118 335 1247 365 1185 b 582 1288 433 1151 497 1213 b 633 1192 606 1267 631 1232 b 440 1011 554 1139 486 1072 b 353 1044 404 1017 364 1028 b 233 1207 347 1089 328 1121 "},"Î":{"ha":729,"x_min":0,"x_max":0,"o":"m -25 -160 b 274 996 -260 39 188 465 b 232 1083 253 1017 233 1047 b 424 1264 310 1136 378 1203 b 513 1231 460 1258 501 1247 b 629 1069 515 1186 535 1154 b 546 989 614 1038 583 1000 b 464 1156 529 1028 499 1092 b 301 1006 435 1126 376 1072 b 474 901 351 986 419 943 b 107 -49 418 567 -7 43 b 731 388 240 -157 615 151 l 790 347 b -25 -160 671 79 176 -329 "},"Ï":{"ha":729,"x_min":0,"x_max":0,"o":"m -25 -160 b 276 1013 -262 42 197 475 b 474 901 326 1003 410 950 b 107 -49 418 567 -7 43 b 731 388 240 -157 615 151 l 790 347 b -25 -160 671 79 176 -329 m 197 1136 b 350 1258 219 1156 282 1192 b 447 1181 363 1242 399 1207 b 567 1278 478 1203 521 1233 b 697 1188 581 1260 626 1210 b 519 1029 654 1135 586 1067 b 436 1118 494 1050 461 1083 b 303 1010 403 1083 357 1040 b 197 1136 267 1043 219 1092 "},"Ḯ":{"ha":729,"x_min":0,"x_max":0,"o":"m -25 -160 b 276 1013 -262 42 197 475 b 474 901 326 1003 410 950 b 107 -49 418 567 -7 43 b 731 388 240 -157 615 151 l 790 347 b -25 -160 671 79 176 -329 m 197 1136 b 350 1258 219 1156 282 1192 b 447 1181 363 1242 399 1207 b 567 1278 478 1203 521 1233 b 697 1188 581 1260 626 1210 b 519 1029 654 1135 586 1067 b 436 1118 494 1050 461 1083 b 303 1010 403 1083 357 1040 b 197 1136 267 1043 219 1092 m 399 1306 b 399 1372 383 1313 386 1349 b 661 1608 488 1428 594 1511 b 731 1463 724 1617 751 1542 b 399 1306 649 1382 507 1329 "},"İ":{"ha":729,"x_min":0,"x_max":0,"o":"m -25 -160 b 276 1013 -262 42 197 475 b 474 901 326 1003 410 950 b 107 -49 418 567 -7 43 b 731 388 240 -157 615 151 l 790 347 b -25 -160 671 79 176 -329 m 317 1164 b 469 1286 339 1183 400 1218 b 600 1196 483 1268 529 1218 b 422 1038 557 1143 489 1075 b 317 1164 386 1071 340 1119 "},"Ị":{"ha":729,"x_min":0,"x_max":0,"o":"m -25 -160 b 276 1013 -262 42 197 475 b 474 901 326 1003 410 950 b 107 -49 418 567 -7 43 b 731 388 240 -157 615 151 l 790 347 b -25 -160 671 79 176 -329 m -132 -358 b 21 -236 -110 -339 -49 -304 b 151 -326 35 -254 81 -304 b -26 -485 108 -379 40 -447 b -132 -358 -62 -453 -108 -403 "},"Ì":{"ha":729,"x_min":0,"x_max":0,"o":"m -25 -160 b 276 1013 -262 42 197 475 b 474 901 326 1003 410 950 b 107 -49 418 567 -7 43 b 731 388 240 -157 615 151 l 790 347 b -25 -160 671 79 176 -329 m 299 1135 b 431 1258 310 1194 371 1260 b 596 1089 458 1186 532 1128 b 569 1035 599 1071 586 1042 b 299 1135 468 1044 349 1075 "},"Ỉ":{"ha":729,"x_min":0,"x_max":0,"o":"m -25 -160 b 276 1013 -262 42 197 475 b 474 901 326 1003 410 950 b 107 -49 418 567 -7 43 b 731 388 240 -157 615 151 l 790 347 b -25 -160 671 79 176 -329 m 267 1051 b 500 1301 479 1128 536 1256 b 385 1315 465 1342 414 1328 b 372 1349 374 1319 367 1332 b 661 1399 483 1446 603 1467 b 283 1018 732 1315 639 1126 l 267 1051 "},"Ī":{"ha":729,"x_min":0,"x_max":0,"o":"m -25 -160 b 276 1013 -262 42 197 475 b 474 901 326 1003 410 950 b 107 -49 418 567 -7 43 b 731 388 240 -157 615 151 l 790 347 b -25 -160 671 79 176 -329 m 204 1085 b 243 1168 204 1107 224 1142 b 597 1167 371 1156 508 1150 b 582 1039 626 1140 601 1069 b 204 1085 417 1007 233 1071 "},"Į":{"ha":729,"x_min":0,"x_max":0,"o":"m -25 -160 b 276 1013 -262 42 197 475 b 474 901 326 1003 410 950 b 107 -49 418 567 -7 43 b 731 388 240 -157 615 151 l 790 347 b 136 -196 696 136 369 -162 b -33 -419 -24 -274 -65 -379 b 82 -433 1 -460 53 -446 b 94 -467 93 -437 100 -450 b -194 -517 -17 -564 -136 -585 b 36 -192 -254 -446 -197 -301 b -25 -160 14 -186 -7 -175 "},"Ĩ":{"ha":729,"x_min":0,"x_max":0,"o":"m -25 -160 b 276 1013 -262 42 197 475 b 474 901 326 1003 410 950 b 107 -49 418 567 -7 43 b 731 388 240 -157 615 151 l 790 347 b -25 -160 671 79 176 -329 m 221 1165 b 499 1161 474 1389 432 1135 b 569 1239 539 1176 561 1210 b 700 1181 632 1265 713 1258 b 440 1050 604 1072 478 1040 b 381 1171 394 1057 407 1174 b 311 1047 351 1167 317 1097 b 221 1165 250 1032 213 1117 "},"J":{"ha":1113,"x_min":0,"x_max":0,"o":"m 504 -247 b -153 -124 282 -432 -40 -367 b 6 38 -143 -47 -71 10 b 464 -83 113 -142 300 -193 b 975 821 638 38 836 333 b 208 733 767 836 529 801 b 313 947 199 781 219 857 b 1010 904 575 957 804 947 b 1193 999 1050 947 1129 981 b 1240 768 1236 939 1260 842 b 1064 810 1183 788 1125 801 b 504 -247 922 292 722 -64 "},"Ĵ":{"ha":1113,"x_min":0,"x_max":0,"o":"m 504 -247 b -153 -124 282 -432 -40 -367 b 6 38 -143 -47 -71 10 b 464 -83 113 -142 300 -193 b 975 821 638 38 836 333 b 208 733 767 836 529 801 b 313 947 199 781 219 857 b 1010 904 575 957 804 947 b 1193 999 1050 947 1129 981 b 1240 768 1236 939 1260 842 b 1064 810 1183 788 1125 801 b 504 -247 922 292 722 -64 m 628 1054 b 819 1235 706 1107 774 1174 b 908 1201 856 1229 897 1218 b 1025 1040 911 1157 931 1125 b 942 960 1010 1008 979 971 b 860 1126 925 999 894 1063 b 678 958 828 1094 763 1033 b 628 1054 654 979 629 1014 "},"K":{"ha":1049,"x_min":0,"x_max":0,"o":"m 129 -114 b -115 -14 31 -144 -90 -87 b 513 971 117 151 482 504 b 675 949 571 989 629 969 b 533 550 658 865 607 715 b 1138 1053 711 618 974 822 b 1217 872 1164 1033 1218 961 b 586 481 1133 751 850 597 b 1260 -407 668 229 943 -161 b 1014 -511 1229 -442 1140 -517 b 478 429 846 -383 633 43 b 129 -114 379 228 256 21 "},"Ǩ":{"ha":1049,"x_min":0,"x_max":0,"o":"m 129 -114 b -115 -14 31 -144 -90 -87 b 513 971 117 151 482 504 b 675 949 571 989 629 969 b 533 550 658 865 607 715 b 1138 1053 711 618 974 822 b 1217 872 1164 1033 1218 961 b 586 481 1133 751 850 597 b 1260 -407 668 229 943 -161 b 1014 -511 1229 -442 1140 -517 b 478 429 846 -383 633 43 b 129 -114 379 228 256 21 m 676 1178 b 761 1257 692 1208 722 1247 b 844 1089 778 1218 808 1156 b 1025 1258 876 1122 940 1183 b 1076 1163 1049 1238 1074 1203 b 883 982 997 1110 929 1043 b 796 1015 847 988 807 999 b 676 1178 790 1060 771 1092 "},"Ķ":{"ha":1049,"x_min":0,"x_max":0,"o":"m 129 -114 b -115 -14 31 -144 -90 -87 b 513 971 117 151 482 504 b 675 949 571 989 629 969 b 533 550 658 865 607 715 b 1138 1053 711 618 974 822 b 1217 872 1164 1033 1218 961 b 586 481 1133 751 850 597 b 1260 -407 668 229 943 -161 b 1014 -511 1229 -442 1140 -517 b 478 429 846 -383 633 43 b 129 -114 379 228 256 21 m 204 -383 b 310 -285 253 -349 288 -312 b 246 -224 285 -269 261 -250 b 396 -74 268 -178 318 -117 b 483 -190 428 -100 468 -144 b 228 -429 439 -289 325 -376 b 204 -383 215 -419 200 -401 "},"Ḵ":{"ha":1049,"x_min":0,"x_max":0,"o":"m 129 -114 b -115 -14 31 -144 -90 -87 b 513 971 117 151 482 504 b 675 949 571 989 629 969 b 533 550 658 865 607 715 b 1138 1053 711 618 974 822 b 1217 872 1164 1033 1218 961 b 586 481 1133 751 850 597 b 1260 -407 668 229 943 -161 b 1014 -511 1229 -442 1140 -517 b 478 429 846 -383 633 43 b 129 -114 379 228 256 21 m 169 -206 b 208 -122 169 -183 189 -147 b 563 -122 336 -135 474 -140 b 547 -250 592 -149 567 -219 b 169 -206 382 -282 199 -218 "},"L":{"ha":1015,"x_min":0,"x_max":0,"o":"m 1125 -375 b 154 -208 815 -258 447 -207 b -149 -343 35 -265 -60 -319 b -151 -110 -179 -278 -171 -181 l 103 -97 b 989 1017 494 389 471 826 b 1193 838 1064 1013 1201 924 b 210 -92 604 718 613 358 b 1051 -114 422 -68 825 -29 b 1125 -375 1129 -229 1142 -322 "},"Ĺ":{"ha":1015,"x_min":0,"x_max":0,"o":"m 1125 -375 b 154 -208 815 -258 447 -207 b -149 -343 35 -265 -60 -319 b -151 -110 -179 -278 -171 -181 l 103 -97 b 989 1017 494 389 471 826 b 1193 838 1064 1013 1201 924 b 210 -92 604 718 613 358 b 1051 -114 422 -68 825 -29 b 1125 -375 1129 -229 1142 -322 m 896 1042 b 896 1108 881 1049 883 1085 b 1158 1344 985 1164 1092 1247 b 1228 1199 1221 1353 1249 1278 b 896 1042 1146 1118 1004 1065 "},"Ľ":{"ha":1015,"x_min":0,"x_max":0,"o":"m 1125 -375 b 154 -208 815 -258 447 -207 b -149 -343 35 -265 -60 -319 b -151 -110 -179 -278 -171 -181 l 103 -97 b 989 1017 494 389 471 826 b 1193 838 1064 1013 1201 924 b 210 -92 604 718 613 358 b 1051 -114 422 -68 825 -29 b 1125 -375 1129 -229 1142 -322 m 1247 1019 b 1481 1022 1300 1057 1392 1099 b 1350 701 1424 975 1342 806 b 1258 686 1331 683 1285 681 b 1247 1019 1247 708 1210 853 "},"Ļ":{"ha":1015,"x_min":0,"x_max":0,"o":"m 1125 -375 b 154 -208 815 -258 447 -207 b -149 -343 35 -265 -60 -319 b -151 -110 -179 -278 -171 -181 l 103 -97 b 989 1017 494 389 471 826 b 1193 838 1064 1013 1201 924 b 210 -92 604 718 613 358 b 1051 -114 422 -68 825 -29 b 1125 -375 1129 -229 1142 -322 m 131 -569 b 236 -471 179 -535 214 -499 b 172 -410 211 -456 188 -436 b 322 -260 194 -364 244 -303 b 410 -376 354 -286 394 -331 b 154 -615 365 -475 251 -562 b 131 -569 142 -606 126 -587 "},"Ḷ":{"ha":1015,"x_min":0,"x_max":0,"o":"m 1125 -375 b 154 -208 815 -258 447 -207 b -149 -343 35 -265 -60 -319 b -151 -110 -179 -278 -171 -181 l 103 -97 b 989 1017 494 389 471 826 b 1193 838 1064 1013 1201 924 b 210 -92 604 718 613 358 b 1051 -114 422 -68 825 -29 b 1125 -375 1129 -229 1142 -322 m 147 -417 b 300 -294 169 -397 231 -362 b 431 -385 314 -312 360 -362 b 253 -543 388 -437 319 -506 b 147 -417 217 -511 171 -461 "},"Ḹ":{"ha":1015,"x_min":0,"x_max":0,"o":"m 1125 -375 b 154 -208 815 -258 447 -207 b -149 -343 35 -265 -60 -319 b -151 -110 -179 -278 -171 -181 l 103 -97 b 989 1017 494 389 471 826 b 1193 838 1064 1013 1201 924 b 210 -92 604 718 613 358 b 1051 -114 422 -68 825 -29 b 1125 -375 1129 -229 1142 -322 m 147 -417 b 300 -294 169 -397 231 -362 b 431 -385 314 -312 360 -362 b 253 -543 388 -437 319 -506 b 147 -417 217 -511 171 -461 m 803 1103 b 842 1186 803 1125 822 1160 b 1196 1185 969 1174 1107 1168 b 1181 1057 1225 1158 1200 1088 b 803 1103 1015 1025 832 1089 "},"Ḻ":{"ha":1015,"x_min":0,"x_max":0,"o":"m 1125 -375 b 154 -208 815 -258 447 -207 b -149 -343 35 -265 -60 -319 b -151 -110 -179 -278 -171 -181 l 103 -97 b 989 1017 494 389 471 826 b 1193 838 1064 1013 1201 924 b 210 -92 604 718 613 358 b 1051 -114 422 -68 825 -29 b 1125 -375 1129 -229 1142 -322 m 96 -392 b 135 -308 96 -369 115 -333 b 489 -308 263 -321 400 -326 b 474 -436 518 -335 493 -406 b 96 -392 308 -468 125 -404 "},"Ł":{"ha":1015,"x_min":0,"x_max":0,"o":"m 1125 -375 b 154 -208 815 -258 447 -207 b -149 -343 35 -265 -60 -319 b -151 -110 -179 -278 -171 -181 l 103 -97 b 367 318 219 47 299 188 b 210 267 314 307 260 290 b 308 471 204 347 258 426 b 456 490 358 481 408 488 b 989 1017 575 721 694 908 b 1193 838 1064 1013 1201 924 b 624 488 893 776 747 653 b 754 454 676 481 721 469 b 713 306 753 386 742 353 b 519 332 667 321 597 332 b 210 -92 438 206 347 63 b 1051 -114 422 -68 825 -29 b 1125 -375 1129 -229 1142 -322 "},"M":{"ha":1721,"x_min":0,"x_max":0,"o":"m 47 -325 b -185 -203 -51 -344 -168 -278 b 731 969 171 8 654 440 b 846 960 767 981 806 985 l 843 950 b 931 463 857 932 910 693 b 1528 961 1078 636 1297 840 l 1547 979 b 1657 878 1596 969 1633 921 b 1324 135 1264 633 1197 207 b 1722 388 1425 72 1629 199 l 1783 347 b 1161 4 1632 14 1286 -81 b 1322 733 1058 74 1078 400 b 939 350 1178 619 1040 475 b 882 51 943 213 931 94 b 756 210 763 -57 692 54 b 822 324 768 239 790 278 b 751 693 818 461 792 593 b 47 -325 614 372 368 -39 "},"Ḿ":{"ha":1721,"x_min":0,"x_max":0,"o":"m 47 -325 b -185 -203 -51 -344 -168 -278 b 731 969 171 8 654 440 b 846 960 767 981 806 985 l 843 950 b 931 463 857 932 910 693 b 1528 961 1078 636 1297 840 l 1547 979 b 1657 878 1596 969 1633 921 b 1324 135 1264 633 1197 207 b 1722 388 1425 72 1629 199 l 1783 347 b 1161 4 1632 14 1286 -81 b 1322 733 1058 74 1078 400 b 939 350 1178 619 1040 475 b 882 51 943 213 931 94 b 756 210 763 -57 692 54 b 822 324 768 239 790 278 b 751 693 818 461 792 593 b 47 -325 614 372 368 -39 m 1033 908 b 1033 975 1018 915 1021 951 b 1296 1211 1122 1031 1229 1114 b 1365 1065 1358 1219 1386 1144 b 1033 908 1283 985 1142 932 "},"Ṁ":{"ha":1721,"x_min":0,"x_max":0,"o":"m 47 -325 b -185 -203 -51 -344 -168 -278 b 731 969 171 8 654 440 b 846 960 767 981 806 985 l 843 950 b 931 463 857 932 910 693 b 1528 961 1078 636 1297 840 l 1547 979 b 1657 878 1596 969 1633 921 b 1324 135 1264 633 1197 207 b 1722 388 1425 72 1629 199 l 1783 347 b 1161 4 1632 14 1286 -81 b 1322 733 1058 74 1078 400 b 939 350 1178 619 1040 475 b 882 51 943 213 931 94 b 756 210 763 -57 692 54 b 822 324 768 239 790 278 b 751 693 818 461 792 593 b 47 -325 614 372 368 -39 m 1053 1049 b 1206 1171 1075 1068 1136 1103 b 1336 1081 1219 1153 1265 1103 b 1158 922 1293 1028 1225 960 b 1053 1049 1122 956 1076 1004 "},"Ṃ":{"ha":1721,"x_min":0,"x_max":0,"o":"m 47 -325 b -185 -203 -51 -344 -168 -278 b 731 969 171 8 654 440 b 846 960 767 981 806 985 l 843 950 b 931 463 857 932 910 693 b 1528 961 1078 636 1297 840 l 1547 979 b 1657 878 1596 969 1633 921 b 1324 135 1264 633 1197 207 b 1722 388 1425 72 1629 199 l 1783 347 b 1161 4 1632 14 1286 -81 b 1322 733 1058 74 1078 400 b 939 350 1178 619 1040 475 b 882 51 943 213 931 94 b 756 210 763 -57 692 54 b 822 324 768 239 790 278 b 751 693 818 461 792 593 b 47 -325 614 372 368 -39 m 581 -194 b 733 -72 603 -175 664 -140 b 864 -162 747 -90 793 -140 b 686 -321 821 -215 753 -283 b 581 -194 650 -289 604 -239 "},"N":{"ha":1299,"x_min":0,"x_max":0,"o":"m 49 -325 b -185 -203 -51 -344 -167 -278 b 732 969 171 10 656 440 b 849 960 769 981 807 985 l 842 935 b 854 947 846 939 850 943 b 936 464 874 865 917 660 b 1643 1064 1115 675 1394 942 b 1782 926 1694 1043 1747 979 b 943 357 1415 846 1121 569 b 882 51 949 218 935 99 b 756 210 763 -57 692 54 b 807 299 765 232 783 263 b 751 689 801 439 786 583 b 49 -325 613 369 368 -40 "},"Ń":{"ha":1299,"x_min":0,"x_max":0,"o":"m 49 -325 b -185 -203 -51 -344 -167 -278 b 732 969 171 10 656 440 b 849 960 769 981 807 985 l 842 935 b 854 947 846 939 850 943 b 936 464 874 865 917 660 b 1643 1064 1115 675 1394 942 b 1782 926 1694 1043 1747 979 b 943 357 1415 846 1121 569 b 882 51 949 218 935 99 b 756 210 763 -57 692 54 b 807 299 765 232 783 263 b 751 689 801 439 786 583 b 49 -325 613 369 368 -40 m 1022 918 b 1022 985 1007 925 1010 961 b 1285 1221 1111 1040 1218 1124 b 1354 1075 1347 1229 1375 1154 b 1022 918 1272 994 1131 942 "},"Ň":{"ha":1299,"x_min":0,"x_max":0,"o":"m 49 -325 b -185 -203 -51 -344 -167 -278 b 732 969 171 10 656 440 b 849 960 769 981 807 985 l 842 935 b 854 947 846 939 850 943 b 936 464 874 865 917 660 b 1643 1064 1115 675 1394 942 b 1782 926 1694 1043 1747 979 b 943 357 1415 846 1121 569 b 882 51 949 218 935 99 b 756 210 763 -57 692 54 b 807 299 765 232 783 263 b 751 689 801 439 786 583 b 49 -325 613 369 368 -40 m 958 1101 b 1043 1181 974 1132 1004 1171 b 1126 1013 1060 1142 1090 1079 b 1307 1182 1158 1046 1222 1107 b 1358 1086 1331 1161 1356 1126 b 1165 906 1279 1033 1211 967 b 1078 939 1129 911 1089 922 b 958 1101 1072 983 1053 1015 "},"Ņ":{"ha":1299,"x_min":0,"x_max":0,"o":"m 49 -325 b -185 -203 -51 -344 -167 -278 b 732 969 171 10 656 440 b 849 960 769 981 807 985 l 842 935 b 854 947 846 939 850 943 b 936 464 874 865 917 660 b 1643 1064 1115 675 1394 942 b 1782 926 1694 1043 1747 979 b 943 357 1415 846 1121 569 b 882 51 949 218 935 99 b 756 210 763 -57 692 54 b 807 299 765 232 783 263 b 751 689 801 439 786 583 b 49 -325 613 369 368 -40 m 344 -368 b 450 -269 393 -333 428 -297 b 386 -208 425 -254 401 -235 b 536 -58 408 -162 458 -101 b 624 -175 568 -85 608 -129 b 368 -414 579 -274 465 -361 b 344 -368 356 -404 340 -386 "},"Ṅ":{"ha":1299,"x_min":0,"x_max":0,"o":"m 49 -325 b -185 -203 -51 -344 -167 -278 b 732 969 171 10 656 440 b 849 960 769 981 807 985 l 842 935 b 854 947 846 939 850 943 b 936 464 874 865 917 660 b 1643 1064 1115 675 1394 942 b 1782 926 1694 1043 1747 979 b 943 357 1415 846 1121 569 b 882 51 949 218 935 99 b 756 210 763 -57 692 54 b 807 299 765 232 783 263 b 751 689 801 439 786 583 b 49 -325 613 369 368 -40 m 1042 1058 b 1194 1181 1064 1078 1125 1113 b 1325 1090 1208 1163 1254 1113 b 1147 932 1282 1038 1214 969 b 1042 1058 1111 965 1065 1014 "},"Ṇ":{"ha":1299,"x_min":0,"x_max":0,"o":"m 49 -325 b -185 -203 -51 -344 -167 -278 b 732 969 171 10 656 440 b 849 960 769 981 807 985 l 842 935 b 854 947 846 939 850 943 b 936 464 874 865 917 660 b 1643 1064 1115 675 1394 942 b 1782 926 1694 1043 1747 979 b 943 357 1415 846 1121 569 b 882 51 949 218 935 99 b 756 210 763 -57 692 54 b 807 299 765 232 783 263 b 751 689 801 439 786 583 b 49 -325 613 369 368 -40 m 361 -215 b 514 -93 383 -196 444 -161 b 644 -183 528 -111 574 -161 b 467 -342 601 -236 533 -304 b 361 -215 431 -310 385 -260 "},"Ṉ":{"ha":1299,"x_min":0,"x_max":0,"o":"m 49 -325 b -185 -203 -51 -344 -167 -278 b 732 969 171 10 656 440 b 849 960 769 981 807 985 l 842 935 b 854 947 846 939 850 943 b 936 464 874 865 917 660 b 1643 1064 1115 675 1394 942 b 1782 926 1694 1043 1747 979 b 943 357 1415 846 1121 569 b 882 51 949 218 935 99 b 756 210 763 -57 692 54 b 807 299 765 232 783 263 b 751 689 801 439 786 583 b 49 -325 613 369 368 -40 m 310 -190 b 349 -107 310 -168 329 -132 b 703 -107 476 -119 614 -125 b 688 -235 732 -133 707 -204 b 310 -190 522 -267 339 -203 "},"Ñ":{"ha":1299,"x_min":0,"x_max":0,"o":"m 49 -325 b -185 -203 -51 -344 -167 -278 b 732 969 171 10 656 440 b 849 960 769 981 807 985 l 842 935 b 854 947 846 939 850 943 b 936 464 874 865 917 660 b 1643 1064 1115 675 1394 942 b 1782 926 1694 1043 1747 979 b 943 357 1415 846 1121 569 b 882 51 949 218 935 99 b 756 210 763 -57 692 54 b 807 299 765 232 783 263 b 751 689 801 439 786 583 b 49 -325 613 369 368 -40 m 946 1060 b 1224 1056 1199 1283 1157 1029 b 1294 1133 1264 1071 1286 1104 b 1425 1075 1357 1160 1438 1153 b 1165 944 1329 967 1203 935 b 1106 1065 1119 951 1132 1068 b 1036 942 1076 1061 1042 992 b 946 1060 975 926 938 1011 "},"Ŋ":{"ha":1271,"x_min":0,"x_max":0,"o":"m 51 -325 b -182 -203 -49 -344 -164 -278 b 735 969 174 10 658 440 b 853 960 772 979 811 985 b 919 440 878 864 911 644 b 1646 1064 1097 654 1388 938 b 1785 926 1697 1043 1750 979 b 853 24 1275 813 893 201 b 1272 388 1014 61 1203 254 l 1332 347 b 740 -126 1293 258 1090 -37 b 367 -251 583 -374 396 -324 b 625 -57 322 -146 439 -57 l 633 -57 b 843 344 672 21 797 283 b 754 692 822 471 790 600 b 51 -325 617 372 371 -39 m 482 -203 b 583 -140 490 -225 550 -190 b 482 -203 494 -131 467 -178 "},"O":{"ha":1153,"x_min":0,"x_max":0,"o":"m 364 39 b 856 549 604 -90 860 232 b 664 617 763 528 685 551 b 775 872 847 644 867 814 b 360 678 676 935 506 882 b 364 39 217 474 163 146 m 207 -72 b 253 763 -89 81 -12 504 b 782 993 406 914 604 1015 b 440 -115 1183 940 1114 150 b 207 -72 389 -124 288 -114 "},"Ó":{"ha":1153,"x_min":0,"x_max":0,"o":"m 364 39 b 856 549 604 -90 860 232 b 664 617 763 528 685 551 b 775 872 847 644 867 814 b 360 678 676 935 506 882 b 364 39 217 474 163 146 m 207 -72 b 253 763 -89 81 -12 504 b 782 993 406 914 604 1015 b 440 -115 1183 940 1114 150 b 207 -72 389 -124 288 -114 m 665 1044 b 665 1111 650 1051 653 1088 b 928 1347 754 1167 861 1250 b 997 1201 990 1356 1018 1281 b 665 1044 915 1121 774 1068 "},"Ǒ":{"ha":1153,"x_min":0,"x_max":0,"o":"m 364 39 b 856 549 604 -90 860 232 b 664 617 763 528 685 551 b 775 872 847 644 867 814 b 360 678 676 935 506 882 b 364 39 217 474 163 146 m 207 -72 b 253 763 -89 81 -12 504 b 782 993 406 914 604 1015 b 440 -115 1183 940 1114 150 b 207 -72 389 -124 288 -114 m 601 1228 b 686 1307 617 1258 647 1297 b 769 1139 703 1268 733 1206 b 950 1308 801 1172 865 1233 b 1001 1213 974 1288 999 1253 b 808 1032 922 1160 854 1093 b 721 1065 772 1038 732 1049 b 601 1228 715 1110 696 1142 "},"Ô":{"ha":1153,"x_min":0,"x_max":0,"o":"m 364 39 b 856 549 604 -90 860 232 b 664 617 763 528 685 551 b 775 872 847 644 867 814 b 360 678 676 935 506 882 b 364 39 217 474 163 146 m 207 -72 b 253 763 -89 81 -12 504 b 782 993 406 914 604 1015 b 440 -115 1183 940 1114 150 b 207 -72 389 -124 288 -114 m 600 1104 b 792 1285 678 1157 746 1224 b 881 1251 828 1279 869 1268 b 997 1090 883 1207 903 1175 b 914 1010 982 1058 951 1021 b 832 1176 897 1049 867 1113 b 650 1008 800 1144 735 1083 b 600 1104 626 1029 601 1064 "},"Ố":{"ha":1153,"x_min":0,"x_max":0,"o":"m 364 39 b 856 549 604 -90 860 232 b 664 617 763 528 685 551 b 775 872 847 644 867 814 b 360 678 676 935 506 882 b 364 39 217 474 163 146 m 207 -72 b 253 763 -89 81 -12 504 b 782 993 406 914 604 1015 b 440 -115 1183 940 1114 150 b 207 -72 389 -124 288 -114 m 572 1090 b 764 1271 650 1143 718 1210 b 853 1238 800 1265 842 1254 b 969 1076 856 1193 875 1161 b 886 996 954 1044 924 1007 b 804 1163 869 1035 839 1099 b 622 994 772 1131 707 1069 b 572 1090 599 1015 574 1050 m 750 1297 b 750 1364 735 1304 738 1340 b 1013 1600 839 1419 946 1503 b 1082 1454 1075 1608 1103 1533 b 750 1297 1000 1374 858 1321 "},"Ộ":{"ha":1153,"x_min":0,"x_max":0,"o":"m 364 39 b 856 549 604 -90 860 232 b 664 617 763 528 685 551 b 775 872 847 644 867 814 b 360 678 676 935 506 882 b 364 39 217 474 163 146 m 76 -278 b 229 -156 99 -258 160 -224 b 360 -246 243 -174 289 -224 b 182 -404 317 -299 249 -367 b 76 -278 146 -372 100 -322 m 207 -72 b 253 763 -89 81 -12 504 b 782 993 406 914 604 1015 b 440 -115 1183 940 1114 150 b 207 -72 389 -124 288 -114 m 600 1104 b 792 1285 678 1157 746 1224 b 881 1251 828 1279 869 1268 b 997 1090 883 1207 903 1175 b 914 1010 982 1058 951 1021 b 832 1176 897 1049 867 1113 b 650 1008 800 1144 735 1083 b 600 1104 626 1029 601 1064 "},"Ồ":{"ha":1153,"x_min":0,"x_max":0,"o":"m 364 39 b 856 549 604 -90 860 232 b 664 617 763 528 685 551 b 775 872 847 644 867 814 b 360 678 676 935 506 882 b 364 39 217 474 163 146 m 207 -72 b 253 763 -89 81 -12 504 b 782 993 406 914 604 1015 b 440 -115 1183 940 1114 150 b 207 -72 389 -124 288 -114 m 582 1110 b 774 1290 660 1163 728 1229 b 863 1257 810 1285 851 1274 b 979 1096 865 1213 885 1181 b 896 1015 964 1064 933 1026 b 814 1182 879 1054 849 1118 b 632 1014 782 1150 717 1089 b 582 1110 608 1035 583 1069 m 761 1428 b 893 1551 772 1488 833 1553 b 1058 1382 921 1479 994 1421 b 1032 1328 1061 1364 1049 1335 b 761 1428 931 1338 811 1368 "},"Ổ":{"ha":1153,"x_min":0,"x_max":0,"o":"m 364 39 b 856 549 604 -90 860 232 b 664 617 763 528 685 551 b 775 872 847 644 867 814 b 360 678 676 935 506 882 b 364 39 217 474 163 146 m 207 -72 b 253 763 -89 81 -12 504 b 782 993 406 914 604 1015 b 440 -115 1183 940 1114 150 b 207 -72 389 -124 288 -114 m 606 1124 b 797 1304 683 1176 751 1243 b 886 1271 833 1299 875 1288 b 1003 1110 889 1226 908 1194 b 919 1029 988 1078 957 1040 b 838 1196 903 1068 872 1132 b 656 1028 806 1164 740 1103 b 606 1124 632 1049 607 1083 m 753 1358 b 986 1608 965 1435 1022 1563 b 871 1622 951 1649 900 1635 b 858 1656 860 1626 853 1639 b 1147 1706 969 1753 1089 1774 b 769 1325 1218 1622 1125 1433 l 753 1358 "},"Ỗ":{"ha":1153,"x_min":0,"x_max":0,"o":"m 364 39 b 856 549 604 -90 860 232 b 664 617 763 528 685 551 b 775 872 847 644 867 814 b 360 678 676 935 506 882 b 364 39 217 474 163 146 m 207 -72 b 253 763 -89 81 -12 504 b 782 993 406 914 604 1015 b 440 -115 1183 940 1114 150 b 207 -72 389 -124 288 -114 m 600 1135 b 792 1315 678 1188 746 1254 b 881 1282 828 1310 869 1299 b 997 1121 883 1238 903 1206 b 914 1040 982 1089 951 1051 b 832 1207 897 1079 867 1143 b 650 1039 800 1175 735 1114 b 600 1135 626 1060 601 1094 m 701 1483 b 979 1479 954 1707 913 1453 b 1050 1557 1019 1494 1042 1528 b 1181 1499 1113 1583 1193 1576 b 921 1368 1085 1390 958 1358 b 861 1489 875 1375 888 1492 b 792 1365 832 1485 797 1415 b 701 1483 731 1350 693 1435 "},"Ö":{"ha":1153,"x_min":0,"x_max":0,"o":"m 364 39 b 856 549 604 -90 860 232 b 664 617 763 528 685 551 b 775 872 847 644 867 814 b 360 678 676 935 506 882 b 364 39 217 474 163 146 m 207 -72 b 253 763 -89 81 -12 504 b 782 993 406 914 604 1015 b 440 -115 1183 940 1114 150 b 207 -72 389 -124 288 -114 m 565 1157 b 718 1279 588 1176 650 1213 b 815 1201 731 1263 767 1228 b 935 1299 846 1224 889 1254 b 1065 1208 949 1281 994 1231 b 888 1050 1022 1156 954 1088 b 804 1139 863 1071 829 1104 b 671 1031 771 1104 725 1061 b 565 1157 635 1064 588 1113 "},"Ȫ":{"ha":1153,"x_min":0,"x_max":0,"o":"m 364 39 b 856 549 604 -90 860 232 b 664 617 763 528 685 551 b 775 872 847 644 867 814 b 360 678 676 935 506 882 b 364 39 217 474 163 146 m 207 -72 b 253 763 -89 81 -12 504 b 782 993 406 914 604 1015 b 440 -115 1183 940 1114 150 b 207 -72 389 -124 288 -114 m 565 1157 b 718 1279 588 1176 650 1213 b 815 1201 731 1263 767 1228 b 935 1299 846 1224 889 1254 b 1065 1208 949 1281 994 1231 b 888 1050 1022 1156 954 1088 b 804 1139 863 1071 829 1104 b 671 1031 771 1104 725 1061 b 565 1157 635 1064 588 1113 m 674 1388 b 713 1471 674 1410 693 1444 b 1067 1469 840 1458 978 1453 b 1051 1342 1096 1443 1071 1372 b 674 1388 886 1310 703 1374 "},"Ọ":{"ha":1153,"x_min":0,"x_max":0,"o":"m 364 39 b 856 549 604 -90 860 232 b 664 617 763 528 685 551 b 775 872 847 644 867 814 b 360 678 676 935 506 882 b 364 39 217 474 163 146 m 76 -278 b 229 -156 99 -258 160 -224 b 360 -246 243 -174 289 -224 b 182 -404 317 -299 249 -367 b 76 -278 146 -372 100 -322 m 207 -72 b 253 763 -89 81 -12 504 b 782 993 406 914 604 1015 b 440 -115 1183 940 1114 150 b 207 -72 389 -124 288 -114 "},"Ò":{"ha":1153,"x_min":0,"x_max":0,"o":"m 364 39 b 856 549 604 -90 860 232 b 664 617 763 528 685 551 b 775 872 847 644 867 814 b 360 678 676 935 506 882 b 364 39 217 474 163 146 m 207 -72 b 253 763 -89 81 -12 504 b 782 993 406 914 604 1015 b 440 -115 1183 940 1114 150 b 207 -72 389 -124 288 -114 m 667 1156 b 799 1279 678 1215 739 1281 b 964 1110 826 1207 900 1149 b 938 1056 967 1092 954 1063 b 667 1156 836 1065 717 1096 "},"Ỏ":{"ha":1153,"x_min":0,"x_max":0,"o":"m 364 39 b 856 549 604 -90 860 232 b 664 617 763 528 685 551 b 775 872 847 644 867 814 b 360 678 676 935 506 882 b 364 39 217 474 163 146 m 207 -72 b 253 763 -89 81 -12 504 b 782 993 406 914 604 1015 b 440 -115 1183 940 1114 150 b 207 -72 389 -124 288 -114 m 635 1072 b 868 1322 847 1149 904 1276 b 753 1336 833 1363 782 1349 b 740 1369 742 1340 735 1353 b 1029 1419 851 1467 971 1488 b 651 1039 1100 1336 1007 1147 l 635 1072 "},"Ơ":{"ha":1153,"x_min":0,"x_max":0,"o":"m 364 39 b 856 549 604 -90 860 232 b 664 617 763 528 685 551 b 775 872 847 644 867 814 b 360 678 676 935 506 882 b 364 39 217 474 163 146 m 207 -72 b 253 763 -89 81 -12 504 b 782 993 406 914 604 1015 b 1022 740 915 975 997 875 b 1386 978 1129 711 1313 769 l 1419 960 b 1028 617 1322 639 1178 533 b 440 -115 1013 358 825 36 b 207 -72 389 -124 288 -114 "},"Ớ":{"ha":1153,"x_min":0,"x_max":0,"o":"m 364 39 b 856 549 604 -90 860 232 b 664 617 763 528 685 551 b 775 872 847 644 867 814 b 360 678 676 935 506 882 b 364 39 217 474 163 146 m 207 -72 b 253 763 -89 81 -12 504 b 782 993 406 914 604 1015 b 1022 740 915 975 997 875 b 1386 978 1129 711 1313 769 l 1419 960 b 1028 617 1322 639 1178 533 b 440 -115 1013 358 825 36 b 207 -72 389 -124 288 -114 m 665 1044 b 665 1111 650 1051 653 1088 b 928 1347 754 1167 861 1250 b 997 1201 990 1356 1018 1281 b 665 1044 915 1121 774 1068 "},"Ợ":{"ha":1153,"x_min":0,"x_max":0,"o":"m 364 39 b 856 549 604 -90 860 232 b 664 617 763 528 685 551 b 775 872 847 644 867 814 b 360 678 676 935 506 882 b 364 39 217 474 163 146 m 76 -278 b 229 -156 99 -258 160 -224 b 360 -246 243 -174 289 -224 b 182 -404 317 -299 249 -367 b 76 -278 146 -372 100 -322 m 207 -72 b 253 763 -89 81 -12 504 b 782 993 406 914 604 1015 b 1022 740 915 975 997 875 b 1386 978 1129 711 1313 769 l 1419 960 b 1028 617 1322 639 1178 533 b 440 -115 1013 358 825 36 b 207 -72 389 -124 288 -114 "},"Ờ":{"ha":1153,"x_min":0,"x_max":0,"o":"m 364 39 b 856 549 604 -90 860 232 b 664 617 763 528 685 551 b 775 872 847 644 867 814 b 360 678 676 935 506 882 b 364 39 217 474 163 146 m 207 -72 b 253 763 -89 81 -12 504 b 782 993 406 914 604 1015 b 1022 740 915 975 997 875 b 1386 978 1129 711 1313 769 l 1419 960 b 1028 617 1322 639 1178 533 b 440 -115 1013 358 825 36 b 207 -72 389 -124 288 -114 m 667 1156 b 799 1279 678 1215 739 1281 b 964 1110 826 1207 900 1149 b 938 1056 967 1092 954 1063 b 667 1156 836 1065 717 1096 "},"Ở":{"ha":1153,"x_min":0,"x_max":0,"o":"m 364 39 b 856 549 604 -90 860 232 b 664 617 763 528 685 551 b 775 872 847 644 867 814 b 360 678 676 935 506 882 b 364 39 217 474 163 146 m 207 -72 b 253 763 -89 81 -12 504 b 782 993 406 914 604 1015 b 1022 740 915 975 997 875 b 1386 978 1129 711 1313 769 l 1419 960 b 1028 617 1322 639 1178 533 b 440 -115 1013 358 825 36 b 207 -72 389 -124 288 -114 m 635 1072 b 868 1322 847 1149 904 1276 b 753 1336 833 1363 782 1349 b 740 1369 742 1340 735 1353 b 1029 1419 851 1467 971 1488 b 651 1039 1100 1336 1007 1147 l 635 1072 "},"Ỡ":{"ha":1153,"x_min":0,"x_max":0,"o":"m 364 39 b 856 549 604 -90 860 232 b 664 617 763 528 685 551 b 775 872 847 644 867 814 b 360 678 676 935 506 882 b 364 39 217 474 163 146 m 207 -72 b 253 763 -89 81 -12 504 b 782 993 406 914 604 1015 b 1022 740 915 975 997 875 b 1386 978 1129 711 1313 769 l 1419 960 b 1028 617 1322 639 1178 533 b 440 -115 1013 358 825 36 b 207 -72 389 -124 288 -114 m 589 1186 b 867 1182 842 1410 800 1156 b 938 1260 907 1197 929 1231 b 1068 1201 1000 1286 1081 1279 b 808 1071 972 1093 846 1061 b 749 1192 763 1078 775 1194 b 679 1068 719 1188 685 1118 b 589 1186 618 1053 581 1138 "},"Ő":{"ha":1153,"x_min":0,"x_max":0,"o":"m 364 39 b 856 549 604 -90 860 232 b 664 617 763 528 685 551 b 775 872 847 644 867 814 b 360 678 676 935 506 882 b 364 39 217 474 163 146 m 207 -72 b 253 763 -89 81 -12 504 b 782 993 406 914 604 1015 b 440 -115 1183 940 1114 150 b 207 -72 389 -124 288 -114 m 597 1057 b 597 1124 582 1064 585 1100 b 860 1360 686 1179 793 1263 b 929 1233 914 1365 942 1306 b 1046 1360 974 1269 1011 1314 b 1115 1214 1108 1368 1136 1293 b 783 1057 1033 1133 892 1081 b 786 1121 774 1064 772 1090 b 597 1057 717 1088 644 1067 "},"Ō":{"ha":1153,"x_min":0,"x_max":0,"o":"m 364 39 b 856 549 604 -90 860 232 b 664 617 763 528 685 551 b 775 872 847 644 867 814 b 360 678 676 935 506 882 b 364 39 217 474 163 146 m 207 -72 b 253 763 -89 81 -12 504 b 782 993 406 914 604 1015 b 440 -115 1183 940 1114 150 b 207 -72 389 -124 288 -114 m 572 1106 b 611 1189 572 1128 592 1163 b 965 1188 739 1176 876 1171 b 950 1060 994 1161 969 1090 b 572 1106 785 1028 601 1092 "},"Ṓ":{"ha":1153,"x_min":0,"x_max":0,"o":"m 364 39 b 856 549 604 -90 860 232 b 664 617 763 528 685 551 b 775 872 847 644 867 814 b 360 678 676 935 506 882 b 364 39 217 474 163 146 m 207 -72 b 253 763 -89 81 -12 504 b 782 993 406 914 604 1015 b 440 -115 1183 940 1114 150 b 207 -72 389 -124 288 -114 m 592 1106 b 631 1189 592 1128 611 1163 b 985 1188 758 1176 896 1171 b 969 1060 1014 1161 989 1090 b 592 1106 804 1028 621 1092 m 728 1214 b 728 1281 713 1221 715 1257 b 990 1517 817 1336 924 1419 b 1060 1371 1053 1525 1081 1450 b 728 1214 978 1290 836 1238 "},"Ṑ":{"ha":1153,"x_min":0,"x_max":0,"o":"m 364 39 b 856 549 604 -90 860 232 b 664 617 763 528 685 551 b 775 872 847 644 867 814 b 360 678 676 935 506 882 b 364 39 217 474 163 146 m 207 -72 b 253 763 -89 81 -12 504 b 782 993 406 914 604 1015 b 440 -115 1183 940 1114 150 b 207 -72 389 -124 288 -114 m 593 1107 b 632 1190 593 1129 613 1164 b 986 1189 760 1178 897 1172 b 971 1061 1015 1163 990 1092 b 593 1107 806 1029 622 1093 m 731 1326 b 863 1450 742 1386 803 1451 b 1028 1281 890 1378 964 1319 b 1001 1226 1031 1263 1018 1233 b 731 1326 900 1236 781 1267 "},"Ø":{"ha":1153,"x_min":0,"x_max":0,"o":"m 364 39 b 856 549 604 -90 860 232 b 715 558 800 536 751 539 b 286 106 556 411 404 249 b 364 39 306 79 332 56 m -11 -143 b 97 15 22 -90 58 -37 b 253 763 -61 207 28 543 b 782 993 406 914 604 1015 b 944 910 850 985 904 954 b 1050 994 989 947 1025 976 b 1153 896 1146 996 1167 938 b 1007 799 1106 868 1057 836 b 440 -115 1096 535 924 75 b 207 -72 389 -124 288 -114 b 165 -47 193 -65 179 -57 b 86 -169 133 -93 106 -135 b -11 -143 44 -187 -7 -189 m 242 203 b 824 806 439 443 658 657 b 775 872 817 832 800 857 b 360 678 676 935 506 882 b 242 203 264 540 208 347 "},"Ǿ":{"ha":1153,"x_min":0,"x_max":0,"o":"m 364 39 b 856 549 604 -90 860 232 b 715 558 800 536 751 539 b 286 106 556 411 404 249 b 364 39 306 79 332 56 m -11 -143 b 97 15 22 -90 58 -37 b 253 763 -61 207 28 543 b 782 993 406 914 604 1015 b 944 910 850 985 904 954 b 1050 994 989 947 1025 976 b 1153 896 1146 996 1167 938 b 1007 799 1106 868 1057 836 b 440 -115 1096 535 924 75 b 207 -72 389 -124 288 -114 b 165 -47 193 -65 179 -57 b 86 -169 133 -93 106 -135 b -11 -143 44 -187 -7 -189 m 242 203 b 824 806 439 443 658 657 b 775 872 817 832 800 857 b 360 678 676 935 506 882 b 242 203 264 540 208 347 m 665 1044 b 665 1111 650 1051 653 1088 b 928 1347 754 1167 861 1250 b 997 1201 990 1356 1018 1281 b 665 1044 915 1121 774 1068 "},"Õ":{"ha":1153,"x_min":0,"x_max":0,"o":"m 364 39 b 856 549 604 -90 860 232 b 664 617 763 528 685 551 b 775 872 847 644 867 814 b 360 678 676 935 506 882 b 364 39 217 474 163 146 m 207 -72 b 253 763 -89 81 -12 504 b 782 993 406 914 604 1015 b 440 -115 1183 940 1114 150 b 207 -72 389 -124 288 -114 m 589 1186 b 867 1182 842 1410 800 1156 b 938 1260 907 1197 929 1231 b 1068 1201 1000 1286 1081 1279 b 808 1071 972 1093 846 1061 b 749 1192 763 1078 775 1194 b 679 1068 719 1188 685 1118 b 589 1186 618 1053 581 1138 "},"Ṍ":{"ha":1153,"x_min":0,"x_max":0,"o":"m 364 39 b 856 549 604 -90 860 232 b 664 617 763 528 685 551 b 775 872 847 644 867 814 b 360 678 676 935 506 882 b 364 39 217 474 163 146 m 207 -72 b 253 763 -89 81 -12 504 b 782 993 406 914 604 1015 b 440 -115 1183 940 1114 150 b 207 -72 389 -124 288 -114 m 589 1186 b 867 1182 842 1410 800 1156 b 938 1260 907 1197 929 1231 b 1068 1201 1000 1286 1081 1279 b 808 1071 972 1093 846 1061 b 749 1192 763 1078 775 1194 b 679 1068 719 1188 685 1118 b 589 1186 618 1053 581 1138 m 768 1304 b 768 1371 753 1311 756 1347 b 1031 1607 857 1426 964 1510 b 1100 1461 1093 1615 1121 1540 b 768 1304 1018 1381 876 1328 "},"Œ":{"ha":1904,"x_min":0,"x_max":0,"o":"m 364 39 b 704 131 485 -26 611 24 b 846 432 686 244 751 363 b 856 549 853 469 856 510 b 664 617 763 528 685 551 b 775 872 847 644 867 814 b 360 678 676 935 506 882 b 364 39 217 474 163 146 m 207 -72 b 253 763 -89 81 -12 504 b 782 993 406 914 604 1015 b 1006 801 894 978 971 904 b 1669 933 1139 982 1492 1050 b 1674 554 1840 821 1669 663 b 1431 604 1615 536 1464 546 b 1589 864 1474 726 1651 778 b 1124 531 1500 982 1132 839 b 1397 443 1322 556 1419 521 b 1057 431 1375 364 1172 329 b 1060 18 893 347 874 113 b 1871 386 1282 -93 1738 78 l 1932 349 b 888 -85 1756 -53 1201 -239 b 729 57 808 -46 757 4 b 440 -115 650 -11 553 -71 b 207 -72 389 -124 288 -114 "},"P":{"ha":1522,"x_min":0,"x_max":0,"o":"m 599 -328 b 361 -300 519 -376 399 -357 b 1013 893 432 17 717 578 b 1086 863 1044 889 1072 874 b 756 326 956 706 840 515 b 1190 868 1213 247 1453 663 b 269 639 919 1082 475 781 b 171 800 215 660 172 714 b 1318 946 479 939 932 1139 b 724 253 1700 756 1386 163 b 599 -328 636 39 589 -169 "},"Þ":{"ha":1522,"x_min":0,"x_max":0,"o":"m 599 -328 b 361 -300 519 -376 399 -357 b 817 671 414 -62 601 347 b 153 368 572 656 299 464 b 54 529 97 389 54 443 b 875 754 278 631 579 764 b 1042 961 929 832 986 901 b 1115 931 1074 957 1101 942 b 978 744 1068 874 1022 811 b 1200 675 1054 733 1128 711 b 635 -22 1576 488 1278 -92 b 599 -328 607 -137 593 -242 m 656 53 b 1074 597 1101 -12 1333 394 b 928 664 1028 632 979 653 b 656 53 810 468 714 250 "},"Q":{"ha":1146,"x_min":0,"x_max":0,"o":"m 1017 -446 b 532 -74 808 -378 651 -236 b 439 -115 503 -89 472 -103 b 206 -72 388 -124 285 -114 b 251 763 -89 81 -14 504 b 782 993 404 914 604 1015 b 618 -25 1144 946 1122 296 b 1068 -215 733 -133 881 -206 b 1017 -446 1110 -297 1078 -414 m 357 678 b 364 39 214 474 160 146 b 472 17 400 19 438 13 b 389 167 442 67 414 117 b 428 236 397 197 415 224 b 553 46 463 168 504 103 b 854 543 706 136 825 406 b 774 872 888 714 863 815 b 357 678 676 935 506 882 "},"R":{"ha":1308,"x_min":0,"x_max":0,"o":"m 381 -194 b 139 -94 282 -224 161 -168 b 586 372 274 3 454 163 b 425 519 497 379 361 439 b 661 508 468 571 565 556 b 764 892 717 625 754 753 b 926 868 822 911 882 892 b 772 438 911 779 854 617 b 807 407 785 428 796 418 b 1056 889 1131 411 1264 726 b 282 689 824 1069 446 808 b 192 829 233 704 192 753 b 1192 957 461 951 856 1125 b 894 351 1478 814 1314 408 b 1464 -404 960 139 1193 -194 b 1256 -493 1438 -435 1363 -497 b 788 344 1107 -379 919 8 b 729 346 768 344 749 344 b 381 -194 632 146 508 -60 "},"Ŕ":{"ha":1308,"x_min":0,"x_max":0,"o":"m 381 -194 b 139 -94 282 -224 161 -168 b 586 372 274 3 454 163 b 425 519 497 379 361 439 b 661 508 468 571 565 556 b 764 892 717 625 754 753 b 926 868 822 911 882 892 b 772 438 911 779 854 617 b 807 407 785 428 796 418 b 1056 889 1131 411 1264 726 b 282 689 824 1069 446 808 b 192 829 233 704 192 753 b 1192 957 461 951 856 1125 b 894 351 1478 814 1314 408 b 1464 -404 960 139 1193 -194 b 1256 -493 1438 -435 1363 -497 b 788 344 1107 -379 919 8 b 729 346 768 344 749 344 b 381 -194 632 146 508 -60 m 982 1035 b 982 1101 967 1042 969 1078 b 1244 1338 1071 1157 1178 1240 b 1314 1192 1307 1346 1335 1271 b 982 1035 1232 1111 1090 1058 "},"Ř":{"ha":1308,"x_min":0,"x_max":0,"o":"m 381 -194 b 139 -94 282 -224 161 -168 b 586 372 274 3 454 163 b 425 519 497 379 361 439 b 661 508 468 571 565 556 b 764 892 717 625 754 753 b 926 868 822 911 882 892 b 772 438 911 779 854 617 b 807 407 785 428 796 418 b 1056 889 1131 411 1264 726 b 282 689 824 1069 446 808 b 192 829 233 704 192 753 b 1192 957 461 951 856 1125 b 894 351 1478 814 1314 408 b 1464 -404 960 139 1193 -194 b 1256 -493 1438 -435 1363 -497 b 788 344 1107 -379 919 8 b 729 346 768 344 749 344 b 381 -194 632 146 508 -60 m 918 1218 b 1003 1297 933 1249 964 1288 b 1086 1129 1019 1258 1050 1196 b 1267 1299 1118 1163 1182 1224 b 1318 1203 1290 1278 1315 1243 b 1125 1022 1239 1150 1171 1083 b 1038 1056 1089 1028 1049 1039 b 918 1218 1032 1100 1013 1132 "},"Ŗ":{"ha":1308,"x_min":0,"x_max":0,"o":"m 381 -194 b 139 -94 282 -224 161 -168 b 586 372 274 3 454 163 b 425 519 497 379 361 439 b 661 508 468 571 565 556 b 764 892 717 625 754 753 b 926 868 822 911 882 892 b 772 438 911 779 854 617 b 807 407 785 428 796 418 b 1056 889 1131 411 1264 726 b 282 689 824 1069 446 808 b 192 829 233 704 192 753 b 1192 957 461 951 856 1125 b 894 351 1478 814 1314 408 b 1464 -404 960 139 1193 -194 b 1256 -493 1438 -435 1363 -497 b 788 344 1107 -379 919 8 b 729 346 768 344 749 344 b 381 -194 632 146 508 -60 m 496 -410 b 601 -311 544 -375 579 -339 b 538 -250 576 -296 553 -276 b 688 -100 560 -204 610 -143 b 775 -217 719 -126 760 -171 b 519 -456 731 -315 617 -403 b 496 -410 507 -446 492 -428 "},"Ṝ":{"ha":1308,"x_min":0,"x_max":0,"o":"m 381 -194 b 139 -94 282 -224 161 -168 b 586 372 274 3 454 163 b 425 519 497 379 361 439 b 661 508 468 571 565 556 b 764 892 717 625 754 753 b 926 868 822 911 882 892 b 772 438 911 779 854 617 b 807 407 785 428 796 418 b 1056 889 1131 411 1264 726 b 282 689 824 1069 446 808 b 192 829 233 704 192 753 b 1192 957 461 951 856 1125 b 894 351 1478 814 1314 408 b 1464 -404 960 139 1193 -194 b 1256 -493 1438 -435 1363 -497 b 788 344 1107 -379 919 8 b 729 346 768 344 749 344 b 381 -194 632 146 508 -60 m 513 -257 b 665 -135 535 -237 596 -203 b 796 -225 679 -153 725 -203 b 618 -383 753 -278 685 -346 b 513 -257 582 -351 536 -301 m 889 1096 b 928 1179 889 1118 908 1153 b 1282 1178 1056 1167 1193 1161 b 1267 1050 1311 1151 1286 1081 b 889 1096 1101 1018 918 1082 "},"Ṟ":{"ha":1308,"x_min":0,"x_max":0,"o":"m 381 -194 b 139 -94 282 -224 161 -168 b 586 372 274 3 454 163 b 425 519 497 379 361 439 b 661 508 468 571 565 556 b 764 892 717 625 754 753 b 926 868 822 911 882 892 b 772 438 911 779 854 617 b 807 407 785 428 796 418 b 1056 889 1131 411 1264 726 b 282 689 824 1069 446 808 b 192 829 233 704 192 753 b 1192 957 461 951 856 1125 b 894 351 1478 814 1314 408 b 1464 -404 960 139 1193 -194 b 1256 -493 1438 -435 1363 -497 b 788 344 1107 -379 919 8 b 729 346 768 344 749 344 b 381 -194 632 146 508 -60 m 461 -232 b 500 -149 461 -210 481 -174 b 854 -149 628 -161 765 -167 b 839 -276 883 -175 858 -246 b 461 -232 674 -308 490 -244 "},"S":{"ha":1088,"x_min":0,"x_max":0,"o":"m 686 -212 b -24 240 394 -481 -201 -251 b 199 239 39 276 133 267 b 607 -157 -14 -7 381 -444 b 525 433 769 49 571 179 b 1082 883 461 774 864 1025 b 1086 563 1228 789 1082 656 b 878 604 1036 547 907 553 b 1013 825 918 707 1068 750 b 708 453 929 935 579 753 b 686 -212 829 174 864 -50 "},"Ś":{"ha":1088,"x_min":0,"x_max":0,"o":"m 686 -212 b -24 240 394 -481 -201 -251 b 199 239 39 276 133 267 b 607 -157 -14 -7 381 -444 b 525 433 769 49 571 179 b 1082 883 461 774 864 1025 b 1086 563 1228 789 1082 656 b 878 604 1036 547 907 553 b 1013 825 918 707 1068 750 b 708 453 929 935 579 753 b 686 -212 829 174 864 -50 m 874 994 b 874 1061 858 1001 861 1038 b 1136 1297 963 1117 1069 1200 b 1206 1151 1199 1306 1226 1231 b 874 994 1124 1071 982 1018 "},"Ꞌ":{"ha":544,"x_min":0,"x_max":0,"o":"m 576 828 b 322 367 503 760 354 515 b 225 344 297 340 250 336 b 343 822 222 376 242 585 b 576 828 410 878 517 939 "},"Š":{"ha":1088,"x_min":0,"x_max":0,"o":"m 686 -212 b -24 240 394 -481 -201 -251 b 199 239 39 276 133 267 b 607 -157 -14 -7 381 -444 b 525 433 769 49 571 179 b 1082 883 461 774 864 1025 b 1086 563 1228 789 1082 656 b 878 604 1036 547 907 553 b 1013 825 918 707 1068 750 b 708 453 929 935 579 753 b 686 -212 829 174 864 -50 m 810 1178 b 894 1257 825 1208 856 1247 b 978 1089 911 1218 942 1156 b 1158 1258 1010 1122 1074 1183 b 1210 1163 1182 1238 1207 1203 b 1017 982 1131 1110 1063 1043 b 929 1015 981 988 940 999 b 810 1178 924 1060 904 1092 "},"Ş":{"ha":1088,"x_min":0,"x_max":0,"o":"m 686 -212 b 178 -282 547 -340 339 -356 l 122 -328 b 276 -562 297 -333 361 -458 b -122 -596 193 -662 -15 -682 b -96 -551 -122 -581 -112 -561 b 115 -506 -15 -583 67 -567 b -8 -381 163 -443 128 -372 l 19 -333 l 133 -260 b -24 240 -17 -169 -108 6 b 199 239 39 276 133 267 b 607 -157 -14 -7 381 -444 b 525 433 769 49 571 179 b 1082 883 461 774 864 1025 b 1086 563 1228 789 1082 656 b 878 604 1036 547 907 553 b 1013 825 918 707 1068 750 b 708 453 929 935 579 753 b 686 -212 829 174 864 -50 "},"Ŝ":{"ha":1088,"x_min":0,"x_max":0,"o":"m 686 -212 b -24 240 394 -481 -201 -251 b 199 239 39 276 133 267 b 607 -157 -14 -7 381 -444 b 525 433 769 49 571 179 b 1082 883 461 774 864 1025 b 1086 563 1228 789 1082 656 b 878 604 1036 547 907 553 b 1013 825 918 707 1068 750 b 708 453 929 935 579 753 b 686 -212 829 174 864 -50 m 808 1054 b 1000 1235 886 1107 954 1174 b 1089 1201 1036 1229 1078 1218 b 1206 1040 1092 1157 1111 1125 b 1122 960 1190 1008 1160 971 b 1040 1126 1106 999 1075 1063 b 858 958 1008 1094 943 1033 b 808 1054 835 979 810 1014 "},"Ș":{"ha":1088,"x_min":0,"x_max":0,"o":"m 686 -212 b -24 240 394 -481 -201 -251 b 199 239 39 276 133 267 b 607 -157 -14 -7 381 -444 b 525 433 769 49 571 179 b 1082 883 461 774 864 1025 b 1086 563 1228 789 1082 656 b 878 604 1036 547 907 553 b 1013 825 918 707 1068 750 b 708 453 929 935 579 753 b 686 -212 829 174 864 -50 m -32 -625 b 74 -526 17 -590 51 -554 b 10 -465 49 -511 25 -492 b 160 -315 32 -419 82 -358 b 247 -432 192 -342 232 -386 b -8 -671 203 -531 89 -618 b -32 -625 -21 -661 -36 -643 "},"Ṣ":{"ha":1088,"x_min":0,"x_max":0,"o":"m 686 -212 b -24 240 394 -481 -201 -251 b 199 239 39 276 133 267 b 607 -157 -14 -7 381 -444 b 525 433 769 49 571 179 b 1082 883 461 774 864 1025 b 1086 563 1228 789 1082 656 b 878 604 1036 547 907 553 b 1013 825 918 707 1068 750 b 708 453 929 935 579 753 b 686 -212 829 174 864 -50 m -15 -472 b 138 -350 7 -453 68 -418 b 268 -440 151 -368 197 -418 b 90 -599 225 -493 157 -561 b -15 -472 54 -567 8 -517 "},"ẞ":{"ha":654,"x_min":0,"x_max":0,"o":"m -304 -171 b 149 668 -162 29 49 507 b 590 908 246 829 454 918 b 222 294 638 800 674 597 b 319 101 458 343 421 225 b 656 388 421 128 578 235 l 715 347 b 179 -35 664 229 371 -10 b 71 -107 146 -60 110 -83 b 71 49 8 -76 43 0 b 50 226 207 124 350 278 b -104 -217 -8 89 -61 -65 b -304 -171 -153 -243 -307 -243 m 92 324 b 424 749 281 388 444 613 b 92 324 324 744 203 565 "},"Ə":{"ha":1317,"x_min":0,"x_max":0,"o":"m 531 738 b 1071 186 964 928 1440 636 b 579 15 921 -1 722 -28 b 696 457 358 86 308 335 b 964 528 764 476 863 503 b 594 643 949 649 814 711 b 83 226 419 588 175 407 l -6 282 b 531 738 46 396 286 633 m 632 124 b 836 240 683 118 749 144 b 957 440 901 311 940 379 b 758 368 879 417 814 390 b 632 124 543 276 517 143 "},"T":{"ha":1032,"x_min":0,"x_max":0,"o":"m 476 -306 b 249 -237 389 -342 275 -301 b 1024 857 363 39 701 569 b 197 799 763 871 463 854 b 303 1014 189 846 210 924 b 1157 946 543 1064 954 988 b 1507 979 1207 956 1368 969 b 1521 778 1531 913 1546 826 b 1138 849 1424 811 1290 835 b 476 -306 790 547 511 4 "},"Ŧ":{"ha":1032,"x_min":0,"x_max":0,"o":"m 476 -306 b 249 -237 389 -342 275 -301 b 624 399 314 -78 454 165 b 440 343 561 389 499 371 b 539 547 435 424 489 503 b 754 569 613 563 686 569 b 1024 857 842 676 933 776 b 197 799 763 871 463 854 b 303 1014 189 846 210 924 b 1157 946 543 1064 954 988 b 1507 979 1207 956 1368 969 b 1521 778 1531 913 1546 826 b 1138 849 1424 811 1290 835 b 875 561 1043 768 954 668 b 985 531 918 554 956 544 b 943 382 983 463 972 429 b 769 408 901 396 839 407 b 476 -306 608 154 497 -118 "},"Ť":{"ha":1032,"x_min":0,"x_max":0,"o":"m 476 -306 b 249 -237 389 -342 275 -301 b 1024 857 363 39 701 569 b 197 799 763 871 463 854 b 303 1014 189 846 210 924 b 1157 946 543 1064 954 988 b 1507 979 1207 956 1368 969 b 1521 778 1531 913 1546 826 b 1138 849 1424 811 1290 835 b 476 -306 790 547 511 4 m 950 1178 b 1035 1257 965 1208 996 1247 b 1118 1089 1051 1218 1082 1156 b 1299 1258 1150 1122 1214 1183 b 1350 1163 1322 1238 1347 1203 b 1157 982 1271 1110 1203 1043 b 1069 1015 1121 988 1081 999 b 950 1178 1064 1060 1044 1092 "},"Ţ":{"ha":1032,"x_min":0,"x_max":0,"o":"m 476 -306 b 343 -310 433 -324 385 -322 l 279 -362 b 433 -597 454 -368 518 -493 b 36 -631 350 -697 142 -717 b 61 -586 35 -615 44 -596 b 272 -540 142 -618 224 -601 b 150 -415 319 -478 285 -407 l 176 -368 l 297 -290 b 249 -237 275 -276 257 -258 b 1024 857 363 39 701 569 b 197 799 763 871 463 854 b 303 1014 189 846 210 924 b 1157 946 543 1064 954 988 b 1507 979 1207 956 1368 969 b 1521 778 1531 913 1546 826 b 1138 849 1424 811 1290 835 b 476 -306 790 547 511 4 "},"Ț":{"ha":1032,"x_min":0,"x_max":0,"o":"m 476 -306 b 249 -237 389 -342 275 -301 b 1024 857 363 39 701 569 b 197 799 763 871 463 854 b 303 1014 189 846 210 924 b 1157 946 543 1064 954 988 b 1507 979 1207 956 1368 969 b 1521 778 1531 913 1546 826 b 1138 849 1424 811 1290 835 b 476 -306 790 547 511 4 m 125 -660 b 231 -561 174 -625 208 -589 b 167 -500 206 -546 182 -526 b 317 -350 189 -454 239 -393 b 404 -467 349 -376 389 -421 b 149 -706 360 -565 246 -653 b 125 -660 136 -696 121 -678 "},"Ṭ":{"ha":1032,"x_min":0,"x_max":0,"o":"m 476 -306 b 249 -237 389 -342 275 -301 b 1024 857 363 39 701 569 b 197 799 763 871 463 854 b 303 1014 189 846 210 924 b 1157 946 543 1064 954 988 b 1507 979 1207 956 1368 969 b 1521 778 1531 913 1546 826 b 1138 849 1424 811 1290 835 b 476 -306 790 547 511 4 m 142 -507 b 294 -385 164 -487 225 -453 b 425 -475 308 -403 354 -453 b 247 -633 382 -528 314 -596 b 142 -507 211 -601 165 -551 "},"Ṯ":{"ha":1032,"x_min":0,"x_max":0,"o":"m 476 -306 b 249 -237 389 -342 275 -301 b 1024 857 363 39 701 569 b 197 799 763 871 463 854 b 303 1014 189 846 210 924 b 1157 946 543 1064 954 988 b 1507 979 1207 956 1368 969 b 1521 778 1531 913 1546 826 b 1138 849 1424 811 1290 835 b 476 -306 790 547 511 4 m 90 -482 b 129 -399 90 -460 110 -424 b 483 -399 257 -411 394 -417 b 468 -526 513 -425 488 -496 b 90 -482 303 -558 119 -494 "},"U":{"ha":1229,"x_min":0,"x_max":0,"o":"m -18 -32 b 331 969 -272 122 371 540 b 517 933 389 976 474 976 b 183 133 524 624 -10 257 b 699 511 264 82 440 268 b 1056 979 768 661 883 826 b 1165 878 1104 969 1142 921 b 832 135 772 633 706 207 b 1231 388 933 72 1138 199 l 1292 347 b 669 4 1140 14 794 -81 b 643 367 607 47 589 186 b -18 -32 389 104 132 -122 "},"Ú":{"ha":1229,"x_min":0,"x_max":0,"o":"m -18 -32 b 331 969 -272 122 371 540 b 517 933 389 976 474 976 b 183 133 524 624 -10 257 b 699 511 264 82 440 268 b 1056 979 768 661 883 826 b 1165 878 1104 969 1142 921 b 832 135 772 633 706 207 b 1231 388 933 72 1138 199 l 1292 347 b 669 4 1140 14 794 -81 b 643 367 607 47 589 186 b -18 -32 389 104 132 -122 m 640 961 b 640 1028 625 968 628 1004 b 903 1264 729 1083 836 1167 b 972 1118 965 1272 993 1197 b 640 961 890 1038 749 985 "},"Ŭ":{"ha":1229,"x_min":0,"x_max":0,"o":"m -18 -32 b 331 969 -272 122 371 540 b 517 933 389 976 474 976 b 183 133 524 624 -10 257 b 699 511 264 82 440 268 b 1056 979 768 661 883 826 b 1165 878 1104 969 1142 921 b 832 135 772 633 706 207 b 1231 388 933 72 1138 199 l 1292 347 b 669 4 1140 14 794 -81 b 643 367 607 47 589 186 b -18 -32 389 104 132 -122 m 551 1124 b 735 1153 628 1200 729 1189 b 918 1150 726 1014 833 988 b 1022 1131 978 1182 1031 1161 b 551 1124 910 922 596 893 "},"Ǔ":{"ha":1229,"x_min":0,"x_max":0,"o":"m -18 -32 b 331 969 -272 122 371 540 b 517 933 389 976 474 976 b 183 133 524 624 -10 257 b 699 511 264 82 440 268 b 1056 979 768 661 883 826 b 1165 878 1104 969 1142 921 b 832 135 772 633 706 207 b 1231 388 933 72 1138 199 l 1292 347 b 669 4 1140 14 794 -81 b 643 367 607 47 589 186 b -18 -32 389 104 132 -122 m 576 1144 b 661 1224 592 1175 622 1214 b 744 1056 678 1185 708 1122 b 925 1225 776 1089 840 1150 b 976 1129 949 1204 974 1169 b 783 949 897 1076 829 1010 b 696 982 747 954 707 965 b 576 1144 690 1026 671 1058 "},"Û":{"ha":1229,"x_min":0,"x_max":0,"o":"m -18 -32 b 331 969 -272 122 371 540 b 517 933 389 976 474 976 b 183 133 524 624 -10 257 b 699 511 264 82 440 268 b 1056 979 768 661 883 826 b 1165 878 1104 969 1142 921 b 832 135 772 633 706 207 b 1231 388 933 72 1138 199 l 1292 347 b 669 4 1140 14 794 -81 b 643 367 607 47 589 186 b -18 -32 389 104 132 -122 m 575 1021 b 767 1201 653 1074 721 1140 b 856 1168 803 1196 844 1185 b 972 1007 858 1124 878 1092 b 889 926 957 975 926 938 b 807 1093 872 965 842 1029 b 625 925 775 1061 710 1000 b 575 1021 601 946 576 981 "},"Ü":{"ha":1229,"x_min":0,"x_max":0,"o":"m -18 -32 b 331 969 -272 122 371 540 b 517 933 389 976 474 976 b 183 133 524 624 -10 257 b 699 511 264 82 440 268 b 1056 979 768 661 883 826 b 1165 878 1104 969 1142 921 b 832 135 772 633 706 207 b 1231 388 933 72 1138 199 l 1292 347 b 669 4 1140 14 794 -81 b 643 367 607 47 589 186 b -18 -32 389 104 132 -122 m 540 1074 b 693 1196 563 1093 625 1129 b 790 1118 706 1179 742 1144 b 910 1215 821 1140 864 1171 b 1040 1125 924 1197 969 1147 b 863 967 997 1072 929 1004 b 779 1056 838 988 804 1021 b 646 947 746 1021 700 978 b 540 1074 610 981 563 1029 "},"Ǘ":{"ha":1229,"x_min":0,"x_max":0,"o":"m -18 -32 b 331 969 -272 122 371 540 b 517 933 389 976 474 976 b 183 133 524 624 -10 257 b 699 511 264 82 440 268 b 1056 979 768 661 883 826 b 1165 878 1104 969 1142 921 b 832 135 772 633 706 207 b 1231 388 933 72 1138 199 l 1292 347 b 669 4 1140 14 794 -81 b 643 367 607 47 589 186 b -18 -32 389 104 132 -122 m 540 1074 b 693 1196 563 1093 625 1129 b 790 1118 706 1179 742 1144 b 910 1215 821 1140 864 1171 b 1040 1125 924 1197 969 1147 b 863 967 997 1072 929 1004 b 779 1056 838 988 804 1021 b 646 947 746 1021 700 978 b 540 1074 610 981 563 1029 m 742 1243 b 742 1310 726 1250 729 1286 b 1004 1546 831 1365 938 1449 b 1074 1400 1067 1554 1094 1479 b 742 1243 992 1319 850 1267 "},"Ǚ":{"ha":1229,"x_min":0,"x_max":0,"o":"m -18 -32 b 331 969 -272 122 371 540 b 517 933 389 976 474 976 b 183 133 524 624 -10 257 b 699 511 264 82 440 268 b 1056 979 768 661 883 826 b 1165 878 1104 969 1142 921 b 832 135 772 633 706 207 b 1231 388 933 72 1138 199 l 1292 347 b 669 4 1140 14 794 -81 b 643 367 607 47 589 186 b -18 -32 389 104 132 -122 m 540 1074 b 693 1196 563 1093 625 1129 b 790 1118 706 1179 742 1144 b 910 1215 821 1140 864 1171 b 1040 1125 924 1197 969 1147 b 863 967 997 1072 929 1004 b 779 1056 838 988 804 1021 b 646 947 746 1021 700 978 b 540 1074 610 981 563 1029 m 678 1426 b 763 1506 693 1457 724 1496 b 846 1338 779 1467 810 1404 b 1026 1507 878 1371 942 1432 b 1078 1411 1050 1486 1075 1451 b 885 1231 999 1358 931 1292 b 797 1264 849 1236 808 1247 b 678 1426 792 1308 772 1340 "},"Ǜ":{"ha":1229,"x_min":0,"x_max":0,"o":"m -18 -32 b 331 969 -272 122 371 540 b 517 933 389 976 474 976 b 183 133 524 624 -10 257 b 699 511 264 82 440 268 b 1056 979 768 661 883 826 b 1165 878 1104 969 1142 921 b 832 135 772 633 706 207 b 1231 388 933 72 1138 199 l 1292 347 b 669 4 1140 14 794 -81 b 643 367 607 47 589 186 b -18 -32 389 104 132 -122 m 540 1074 b 693 1196 563 1093 625 1129 b 790 1118 706 1179 742 1144 b 910 1215 821 1140 864 1171 b 1040 1125 924 1197 969 1147 b 863 967 997 1072 929 1004 b 779 1056 838 988 804 1021 b 646 947 746 1021 700 978 b 540 1074 610 981 563 1029 m 743 1354 b 875 1478 754 1414 815 1479 b 1040 1308 903 1406 976 1347 b 1014 1254 1043 1290 1031 1261 b 743 1354 913 1264 793 1294 "},"Ǖ":{"ha":1229,"x_min":0,"x_max":0,"o":"m -18 -32 b 331 969 -272 122 371 540 b 517 933 389 976 474 976 b 183 133 524 624 -10 257 b 699 511 264 82 440 268 b 1056 979 768 661 883 826 b 1165 878 1104 969 1142 921 b 832 135 772 633 706 207 b 1231 388 933 72 1138 199 l 1292 347 b 669 4 1140 14 794 -81 b 643 367 607 47 589 186 b -18 -32 389 104 132 -122 m 540 1074 b 693 1196 563 1093 625 1129 b 790 1118 706 1179 742 1144 b 910 1215 821 1140 864 1171 b 1040 1125 924 1197 969 1147 b 863 967 997 1072 929 1004 b 779 1056 838 988 804 1021 b 646 947 746 1021 700 978 b 540 1074 610 981 563 1029 m 649 1304 b 688 1388 649 1326 668 1361 b 1042 1386 815 1375 953 1369 b 1026 1258 1071 1360 1046 1289 b 649 1304 861 1226 678 1290 "},"Ụ":{"ha":1229,"x_min":0,"x_max":0,"o":"m -18 -32 b 331 969 -272 122 371 540 b 517 933 389 976 474 976 b 183 133 524 624 -10 257 b 699 511 264 82 440 268 b 1056 979 768 661 883 826 b 1165 878 1104 969 1142 921 b 832 135 772 633 706 207 b 1231 388 933 72 1138 199 l 1292 347 b 669 4 1140 14 794 -81 b 643 367 607 47 589 186 b -18 -32 389 104 132 -122 m 118 -189 b 271 -67 140 -169 201 -135 b 401 -157 285 -85 331 -135 b 224 -315 358 -210 290 -278 b 118 -189 188 -283 142 -233 "},"Ù":{"ha":1229,"x_min":0,"x_max":0,"o":"m -18 -32 b 331 969 -272 122 371 540 b 517 933 389 976 474 976 b 183 133 524 624 -10 257 b 699 511 264 82 440 268 b 1056 979 768 661 883 826 b 1165 878 1104 969 1142 921 b 832 135 772 633 706 207 b 1231 388 933 72 1138 199 l 1292 347 b 669 4 1140 14 794 -81 b 643 367 607 47 589 186 b -18 -32 389 104 132 -122 m 642 1072 b 774 1196 653 1132 714 1197 b 939 1026 801 1124 875 1065 b 913 972 942 1008 929 979 b 642 1072 811 982 692 1013 "},"Ủ":{"ha":1229,"x_min":0,"x_max":0,"o":"m -18 -32 b 331 969 -272 122 371 540 b 517 933 389 976 474 976 b 183 133 524 624 -10 257 b 699 511 264 82 440 268 b 1056 979 768 661 883 826 b 1165 878 1104 969 1142 921 b 832 135 772 633 706 207 b 1231 388 933 72 1138 199 l 1292 347 b 669 4 1140 14 794 -81 b 643 367 607 47 589 186 b -18 -32 389 104 132 -122 m 610 989 b 843 1239 822 1065 879 1193 b 728 1253 808 1279 757 1265 b 715 1286 717 1257 710 1269 b 1004 1336 826 1383 946 1404 b 626 956 1075 1253 982 1064 l 610 989 "},"Ư":{"ha":1229,"x_min":0,"x_max":0,"o":"m -18 -32 b 331 969 -272 122 371 540 b 517 933 389 976 474 976 b 183 133 524 624 -10 257 b 699 511 264 82 440 268 b 1056 979 768 661 883 826 b 1165 878 1104 969 1142 921 b 1017 764 1110 843 1060 804 b 1347 1007 1125 753 1281 819 l 1381 989 b 942 679 1274 635 1107 543 l 946 688 b 832 135 751 457 735 190 b 1231 388 933 72 1138 199 l 1292 347 b 669 4 1140 14 794 -81 b 643 367 607 47 589 186 b -18 -32 389 104 132 -122 "},"Ứ":{"ha":1229,"x_min":0,"x_max":0,"o":"m -18 -32 b 331 969 -272 122 371 540 b 517 933 389 976 474 976 b 183 133 524 624 -10 257 b 699 511 264 82 440 268 b 1056 979 768 661 883 826 b 1165 878 1104 969 1142 921 b 1017 764 1110 843 1060 804 b 1347 1007 1125 753 1281 819 l 1381 989 b 942 679 1274 635 1107 543 l 946 688 b 832 135 751 457 735 190 b 1231 388 933 72 1138 199 l 1292 347 b 669 4 1140 14 794 -81 b 643 367 607 47 589 186 b -18 -32 389 104 132 -122 m 640 961 b 640 1028 625 968 628 1004 b 903 1264 729 1083 836 1167 b 972 1118 965 1272 993 1197 b 640 961 890 1038 749 985 "},"Ự":{"ha":1229,"x_min":0,"x_max":0,"o":"m -18 -32 b 331 969 -272 122 371 540 b 517 933 389 976 474 976 b 183 133 524 624 -10 257 b 699 511 264 82 440 268 b 1056 979 768 661 883 826 b 1165 878 1104 969 1142 921 b 1017 764 1110 843 1060 804 b 1347 1007 1125 753 1281 819 l 1381 989 b 942 679 1274 635 1107 543 l 946 688 b 832 135 751 457 735 190 b 1231 388 933 72 1138 199 l 1292 347 b 669 4 1140 14 794 -81 b 643 367 607 47 589 186 b -18 -32 389 104 132 -122 m 118 -189 b 271 -67 140 -169 201 -135 b 401 -157 285 -85 331 -135 b 224 -315 358 -210 290 -278 b 118 -189 188 -283 142 -233 "},"Ừ":{"ha":1229,"x_min":0,"x_max":0,"o":"m -18 -32 b 331 969 -272 122 371 540 b 517 933 389 976 474 976 b 183 133 524 624 -10 257 b 699 511 264 82 440 268 b 1056 979 768 661 883 826 b 1165 878 1104 969 1142 921 b 1017 764 1110 843 1060 804 b 1347 1007 1125 753 1281 819 l 1381 989 b 942 679 1274 635 1107 543 l 946 688 b 832 135 751 457 735 190 b 1231 388 933 72 1138 199 l 1292 347 b 669 4 1140 14 794 -81 b 643 367 607 47 589 186 b -18 -32 389 104 132 -122 m 642 1072 b 774 1196 653 1132 714 1197 b 939 1026 801 1124 875 1065 b 913 972 942 1008 929 979 b 642 1072 811 982 692 1013 "},"Ử":{"ha":1229,"x_min":0,"x_max":0,"o":"m -18 -32 b 331 969 -272 122 371 540 b 517 933 389 976 474 976 b 183 133 524 624 -10 257 b 699 511 264 82 440 268 b 1056 979 768 661 883 826 b 1165 878 1104 969 1142 921 b 1017 764 1110 843 1060 804 b 1347 1007 1125 753 1281 819 l 1381 989 b 942 679 1274 635 1107 543 l 946 688 b 832 135 751 457 735 190 b 1231 388 933 72 1138 199 l 1292 347 b 669 4 1140 14 794 -81 b 643 367 607 47 589 186 b -18 -32 389 104 132 -122 m 610 989 b 843 1239 822 1065 879 1193 b 728 1253 808 1279 757 1265 b 715 1286 717 1257 710 1269 b 1004 1336 826 1383 946 1404 b 626 956 1075 1253 982 1064 l 610 989 "},"Ữ":{"ha":1229,"x_min":0,"x_max":0,"o":"m -18 -32 b 331 969 -272 122 371 540 b 517 933 389 976 474 976 b 183 133 524 624 -10 257 b 699 511 264 82 440 268 b 1056 979 768 661 883 826 b 1165 878 1104 969 1142 921 b 1017 764 1110 843 1060 804 b 1347 1007 1125 753 1281 819 l 1381 989 b 942 679 1274 635 1107 543 l 946 688 b 832 135 751 457 735 190 b 1231 388 933 72 1138 199 l 1292 347 b 669 4 1140 14 794 -81 b 643 367 607 47 589 186 b -18 -32 389 104 132 -122 m 564 1103 b 842 1099 817 1326 775 1072 b 913 1176 882 1114 904 1147 b 1043 1118 975 1203 1056 1196 b 783 988 947 1010 821 978 b 724 1108 738 994 750 1111 b 654 985 694 1104 660 1035 b 564 1103 593 969 556 1054 "},"Ű":{"ha":1229,"x_min":0,"x_max":0,"o":"m -18 -32 b 331 969 -272 122 371 540 b 517 933 389 976 474 976 b 183 133 524 624 -10 257 b 699 511 264 82 440 268 b 1056 979 768 661 883 826 b 1165 878 1104 969 1142 921 b 832 135 772 633 706 207 b 1231 388 933 72 1138 199 l 1292 347 b 669 4 1140 14 794 -81 b 643 367 607 47 589 186 b -18 -32 389 104 132 -122 m 572 974 b 572 1040 557 981 560 1017 b 835 1276 661 1096 768 1179 b 904 1150 889 1282 917 1222 b 1021 1276 949 1186 986 1231 b 1090 1131 1083 1285 1111 1210 b 758 974 1008 1050 867 997 b 761 1038 749 981 747 1007 b 572 974 692 1004 619 983 "},"Ū":{"ha":1229,"x_min":0,"x_max":0,"o":"m -18 -32 b 331 969 -272 122 371 540 b 517 933 389 976 474 976 b 183 133 524 624 -10 257 b 699 511 264 82 440 268 b 1056 979 768 661 883 826 b 1165 878 1104 969 1142 921 b 832 135 772 633 706 207 b 1231 388 933 72 1138 199 l 1292 347 b 669 4 1140 14 794 -81 b 643 367 607 47 589 186 b -18 -32 389 104 132 -122 m 547 1022 b 586 1106 547 1044 567 1079 b 940 1104 714 1093 851 1088 b 925 976 969 1078 944 1007 b 547 1022 760 944 576 1008 "},"Ų":{"ha":1229,"x_min":0,"x_max":0,"o":"m -18 -32 b 331 969 -272 122 371 540 b 517 933 389 976 474 976 b 183 133 524 624 -10 257 b 699 511 264 82 440 268 b 1056 979 768 661 883 826 b 1165 878 1104 969 1142 921 b 832 135 772 633 706 207 b 1231 388 933 72 1138 199 l 1292 347 b 838 -21 1188 117 990 1 b 649 -253 661 -99 615 -211 b 764 -267 683 -293 735 -279 b 776 -300 775 -271 782 -283 b 488 -350 667 -397 546 -418 b 729 -19 426 -279 486 -129 b 669 4 707 -15 686 -7 b 643 367 607 47 589 186 b -18 -32 389 104 132 -122 "},"Ů":{"ha":1229,"x_min":0,"x_max":0,"o":"m -18 -32 b 331 969 -272 122 371 540 b 517 933 389 976 474 976 b 183 133 524 624 -10 257 b 699 511 264 82 440 268 b 1056 979 768 661 883 826 b 1165 878 1104 969 1142 921 b 832 135 772 633 706 207 b 1231 388 933 72 1138 199 l 1292 347 b 669 4 1140 14 794 -81 b 643 367 607 47 589 186 b -18 -32 389 104 132 -122 m 779 979 b 890 1247 478 919 594 1179 b 779 979 1182 1311 1086 1040 m 788 1036 b 851 1181 856 1043 997 1193 b 788 1036 729 1168 692 1026 "},"Ũ":{"ha":1229,"x_min":0,"x_max":0,"o":"m -18 -32 b 331 969 -272 122 371 540 b 517 933 389 976 474 976 b 183 133 524 624 -10 257 b 699 511 264 82 440 268 b 1056 979 768 661 883 826 b 1165 878 1104 969 1142 921 b 832 135 772 633 706 207 b 1231 388 933 72 1138 199 l 1292 347 b 669 4 1140 14 794 -81 b 643 367 607 47 589 186 b -18 -32 389 104 132 -122 m 564 1103 b 842 1099 817 1326 775 1072 b 913 1176 882 1114 904 1147 b 1043 1118 975 1203 1056 1196 b 783 988 947 1010 821 978 b 724 1108 738 994 750 1111 b 654 985 694 1104 660 1035 b 564 1103 593 969 556 1054 "},"V":{"ha":1136,"x_min":0,"x_max":0,"o":"m 38 -87 b 221 913 229 236 321 850 b 446 1049 264 965 351 1039 b 169 -11 576 989 390 404 b 1132 1085 586 271 1038 785 b 1365 965 1233 1106 1347 1040 b 79 -165 1169 665 510 49 b 36 -93 50 -147 38 -117 l 46 -87 b 38 -87 43 -87 40 -87 "},"W":{"ha":1553,"x_min":0,"x_max":0,"o":"m 36 -87 b 222 914 226 236 319 850 b 442 1049 263 965 350 1039 b 169 -7 576 989 390 408 b 846 946 535 253 754 651 b 1000 897 919 963 972 936 b 697 -8 1146 776 914 376 b 1658 1085 1113 274 1565 786 b 1892 965 1760 1106 1875 1040 b 607 -165 1696 665 1036 49 b 561 -93 578 -147 564 -117 l 571 -87 b 563 -87 568 -87 565 -87 b 849 596 683 115 801 397 b 79 -165 657 318 399 -6 b 35 -93 49 -147 36 -117 l 44 -87 b 36 -87 42 -87 39 -87 "},"Ẃ":{"ha":1553,"x_min":0,"x_max":0,"o":"m 36 -87 b 222 914 226 236 319 850 b 442 1049 263 965 350 1039 b 169 -7 576 989 390 408 b 846 946 535 253 754 651 b 1000 897 919 963 972 936 b 697 -8 1146 776 914 376 b 1658 1085 1113 274 1565 786 b 1892 965 1760 1106 1875 1040 b 607 -165 1696 665 1036 49 b 561 -93 578 -147 564 -117 l 571 -87 b 563 -87 568 -87 565 -87 b 849 596 683 115 801 397 b 79 -165 657 318 399 -6 b 35 -93 49 -147 36 -117 l 44 -87 b 36 -87 42 -87 39 -87 m 913 994 b 913 1061 897 1001 900 1038 b 1175 1297 1001 1117 1108 1200 b 1244 1151 1238 1306 1265 1231 b 913 994 1163 1071 1021 1018 "},"Ŵ":{"ha":1553,"x_min":0,"x_max":0,"o":"m 36 -87 b 222 914 226 236 319 850 b 442 1049 263 965 350 1039 b 169 -7 576 989 390 408 b 846 946 535 253 754 651 b 1000 897 919 963 972 936 b 697 -8 1146 776 914 376 b 1658 1085 1113 274 1565 786 b 1892 965 1760 1106 1875 1040 b 607 -165 1696 665 1036 49 b 561 -93 578 -147 564 -117 l 571 -87 b 563 -87 568 -87 565 -87 b 849 596 683 115 801 397 b 79 -165 657 318 399 -6 b 35 -93 49 -147 36 -117 l 44 -87 b 36 -87 42 -87 39 -87 m 847 1054 b 1039 1235 925 1107 993 1174 b 1128 1201 1075 1229 1117 1218 b 1244 1040 1131 1157 1150 1125 b 1161 960 1229 1008 1199 971 b 1079 1126 1144 999 1114 1063 b 897 958 1047 1094 982 1033 b 847 1054 874 979 849 1014 "},"Ẅ":{"ha":1553,"x_min":0,"x_max":0,"o":"m 36 -87 b 222 914 226 236 319 850 b 442 1049 263 965 350 1039 b 169 -7 576 989 390 408 b 846 946 535 253 754 651 b 1000 897 919 963 972 936 b 697 -8 1146 776 914 376 b 1658 1085 1113 274 1565 786 b 1892 965 1760 1106 1875 1040 b 607 -165 1696 665 1036 49 b 561 -93 578 -147 564 -117 l 571 -87 b 563 -87 568 -87 565 -87 b 849 596 683 115 801 397 b 79 -165 657 318 399 -6 b 35 -93 49 -147 36 -117 l 44 -87 b 36 -87 42 -87 39 -87 m 813 1107 b 965 1229 835 1126 897 1163 b 1063 1151 978 1213 1014 1178 b 1182 1249 1093 1174 1136 1204 b 1313 1158 1196 1231 1242 1181 b 1135 1000 1269 1106 1201 1038 b 1051 1089 1110 1021 1076 1054 b 918 981 1018 1054 972 1011 b 813 1107 882 1014 835 1063 "},"Ẁ":{"ha":1553,"x_min":0,"x_max":0,"o":"m 36 -87 b 222 914 226 236 319 850 b 442 1049 263 965 350 1039 b 169 -7 576 989 390 408 b 846 946 535 253 754 651 b 1000 897 919 963 972 936 b 697 -8 1146 776 914 376 b 1658 1085 1113 274 1565 786 b 1892 965 1760 1106 1875 1040 b 607 -165 1696 665 1036 49 b 561 -93 578 -147 564 -117 l 571 -87 b 563 -87 568 -87 565 -87 b 849 596 683 115 801 397 b 79 -165 657 318 399 -6 b 35 -93 49 -147 36 -117 l 44 -87 b 36 -87 42 -87 39 -87 m 914 1106 b 1046 1229 925 1165 986 1231 b 1211 1060 1074 1157 1147 1099 b 1185 1006 1214 1042 1201 1013 b 914 1106 1083 1015 964 1046 "},"X":{"ha":1251,"x_min":0,"x_max":0,"o":"m -1 -301 b -176 -182 -87 -300 -172 -228 b 488 394 53 -85 256 158 b 515 892 457 535 456 704 b 688 872 572 914 640 896 b 593 500 614 740 586 613 b 1194 893 767 665 960 815 b 1256 843 1217 885 1246 868 b 614 390 963 719 771 560 b 872 133 654 263 747 168 b 1253 386 985 101 1154 182 l 1314 347 b 710 3 1165 25 835 -82 b 519 282 650 43 571 142 b -1 -301 351 81 213 -128 "},"Y":{"ha":964,"x_min":0,"x_max":0,"o":"m -17 -32 b 329 969 -272 122 371 542 b 517 933 389 976 472 976 b 183 133 524 624 -11 257 b 596 414 251 89 393 221 b 933 888 706 618 821 782 b 1114 785 1010 882 1065 850 b 314 -457 888 613 460 -17 b 258 -365 286 -437 257 -403 b 497 219 333 -154 413 43 b -17 -32 294 28 104 -106 "},"Ý":{"ha":964,"x_min":0,"x_max":0,"o":"m -17 -32 b 329 969 -272 122 371 542 b 517 933 389 976 472 976 b 183 133 524 624 -11 257 b 596 414 251 89 393 221 b 933 888 706 618 821 782 b 1114 785 1010 882 1065 850 b 314 -457 888 613 460 -17 b 258 -365 286 -437 257 -403 b 497 219 333 -154 413 43 b -17 -32 294 28 104 -106 m 618 994 b 618 1061 603 1001 606 1038 b 881 1297 707 1117 814 1200 b 950 1151 943 1306 971 1231 b 618 994 868 1071 726 1018 "},"Ŷ":{"ha":964,"x_min":0,"x_max":0,"o":"m -17 -32 b 329 969 -272 122 371 542 b 517 933 389 976 472 976 b 183 133 524 624 -11 257 b 596 414 251 89 393 221 b 933 888 706 618 821 782 b 1114 785 1010 882 1065 850 b 314 -457 888 613 460 -17 b 258 -365 286 -437 257 -403 b 497 219 333 -154 413 43 b -17 -32 294 28 104 -106 m 553 1054 b 744 1235 631 1107 699 1174 b 833 1201 781 1229 822 1218 b 950 1040 836 1157 856 1125 b 867 960 935 1008 904 971 b 785 1126 850 999 819 1063 b 603 958 753 1094 688 1033 b 553 1054 579 979 554 1014 "},"Ÿ":{"ha":964,"x_min":0,"x_max":0,"o":"m -17 -32 b 329 969 -272 122 371 542 b 517 933 389 976 472 976 b 183 133 524 624 -11 257 b 596 414 251 89 393 221 b 933 888 706 618 821 782 b 1114 785 1010 882 1065 850 b 314 -457 888 613 460 -17 b 258 -365 286 -437 257 -403 b 497 219 333 -154 413 43 b -17 -32 294 28 104 -106 m 518 1107 b 671 1229 540 1126 603 1163 b 768 1151 683 1213 719 1178 b 888 1249 799 1174 842 1204 b 1018 1158 901 1231 947 1181 b 840 1000 975 1106 907 1038 b 757 1089 815 1021 782 1054 b 624 981 724 1054 678 1011 b 518 1107 588 1014 540 1063 "},"Ẏ":{"ha":964,"x_min":0,"x_max":0,"o":"m -17 -32 b 329 969 -272 122 371 542 b 517 933 389 976 472 976 b 183 133 524 624 -11 257 b 596 414 251 89 393 221 b 933 888 706 618 821 782 b 1114 785 1010 882 1065 850 b 314 -457 888 613 460 -17 b 258 -365 286 -437 257 -403 b 497 219 333 -154 413 43 b -17 -32 294 28 104 -106 m 638 1135 b 790 1257 660 1154 721 1189 b 921 1167 804 1239 850 1189 b 743 1008 878 1114 810 1046 b 638 1135 707 1042 661 1090 "},"Ỵ":{"ha":964,"x_min":0,"x_max":0,"o":"m -17 -32 b 329 969 -272 122 371 542 b 517 933 389 976 472 976 b 183 133 524 624 -11 257 b 596 414 251 89 393 221 b 933 888 706 618 821 782 b 1114 785 1010 882 1065 850 b 314 -457 888 613 460 -17 b 258 -365 286 -437 257 -403 b 497 219 333 -154 413 43 b -17 -32 294 28 104 -106 m -60 -251 b 93 -129 -37 -232 24 -197 b 224 -219 107 -147 153 -197 b 46 -378 181 -272 113 -340 b -60 -251 10 -346 -36 -296 "},"Ỳ":{"ha":964,"x_min":0,"x_max":0,"o":"m -17 -32 b 329 969 -272 122 371 542 b 517 933 389 976 472 976 b 183 133 524 624 -11 257 b 596 414 251 89 393 221 b 933 888 706 618 821 782 b 1114 785 1010 882 1065 850 b 314 -457 888 613 460 -17 b 258 -365 286 -437 257 -403 b 497 219 333 -154 413 43 b -17 -32 294 28 104 -106 m 619 1106 b 751 1229 631 1165 692 1231 b 917 1060 779 1157 853 1099 b 890 1006 919 1042 907 1013 b 619 1106 789 1015 669 1046 "},"Ỷ":{"ha":964,"x_min":0,"x_max":0,"o":"m -17 -32 b 329 969 -272 122 371 542 b 517 933 389 976 472 976 b 183 133 524 624 -11 257 b 596 414 251 89 393 221 b 933 888 706 618 821 782 b 1114 785 1010 882 1065 850 b 314 -457 888 613 460 -17 b 258 -365 286 -437 257 -403 b 497 219 333 -154 413 43 b -17 -32 294 28 104 -106 m 588 1022 b 821 1272 800 1099 857 1226 b 706 1286 786 1313 735 1299 b 693 1319 694 1290 688 1303 b 982 1369 804 1417 924 1438 b 604 989 1053 1286 960 1097 l 588 1022 "},"Ȳ":{"ha":964,"x_min":0,"x_max":0,"o":"m -17 -32 b 329 969 -272 122 371 542 b 517 933 389 976 472 976 b 183 133 524 624 -11 257 b 596 414 251 89 393 221 b 933 888 706 618 821 782 b 1114 785 1010 882 1065 850 b 314 -457 888 613 460 -17 b 258 -365 286 -437 257 -403 b 497 219 333 -154 413 43 b -17 -32 294 28 104 -106 m 525 1056 b 564 1139 525 1078 544 1113 b 918 1138 692 1126 829 1121 b 903 1010 947 1111 922 1040 b 525 1056 738 978 554 1042 "},"Ỹ":{"ha":964,"x_min":0,"x_max":0,"o":"m -17 -32 b 329 969 -272 122 371 542 b 517 933 389 976 472 976 b 183 133 524 624 -11 257 b 596 414 251 89 393 221 b 933 888 706 618 821 782 b 1114 785 1010 882 1065 850 b 314 -457 888 613 460 -17 b 258 -365 286 -437 257 -403 b 497 219 333 -154 413 43 b -17 -32 294 28 104 -106 m 542 1136 b 819 1132 794 1360 753 1106 b 890 1210 860 1147 882 1181 b 1021 1151 953 1236 1033 1229 b 761 1021 925 1043 799 1011 b 701 1142 715 1028 728 1144 b 632 1018 672 1138 638 1068 b 542 1136 571 1003 533 1088 "},"Z":{"ha":1206,"x_min":0,"x_max":0,"o":"m 671 3 b 342 172 563 74 511 217 b 86 -54 264 97 179 21 b -86 65 3 -51 -82 21 b 979 821 290 222 567 618 b 317 731 797 821 586 788 b 421 946 307 778 329 854 b 1115 904 681 956 913 946 b 1317 972 1175 932 1257 957 b 1347 765 1357 911 1367 839 b 1143 811 1281 788 1214 803 b 419 246 854 681 654 474 b 835 133 574 263 665 181 b 1207 388 947 100 1111 190 l 1268 347 b 671 3 1128 38 794 -82 "},"Ź":{"ha":1206,"x_min":0,"x_max":0,"o":"m 671 3 b 342 172 563 74 511 217 b 86 -54 264 97 179 21 b -86 65 3 -51 -82 21 b 979 821 290 222 567 618 b 317 731 797 821 586 788 b 421 946 307 778 329 854 b 1115 904 681 956 913 946 b 1317 972 1175 932 1257 957 b 1347 765 1357 911 1367 839 b 1143 811 1281 788 1214 803 b 419 246 854 681 654 474 b 835 133 574 263 665 181 b 1207 388 947 100 1111 190 l 1268 347 b 671 3 1128 38 794 -82 m 739 994 b 739 1061 724 1001 726 1038 b 1001 1297 828 1117 935 1200 b 1071 1151 1064 1306 1092 1231 b 739 994 989 1071 847 1018 "},"Ž":{"ha":1206,"x_min":0,"x_max":0,"o":"m 671 3 b 342 172 563 74 511 217 b 86 -54 264 97 179 21 b -86 65 3 -51 -82 21 b 979 821 290 222 567 618 b 317 731 797 821 586 788 b 421 946 307 778 329 854 b 1115 904 681 956 913 946 b 1317 972 1175 932 1257 957 b 1347 765 1357 911 1367 839 b 1143 811 1281 788 1214 803 b 419 246 854 681 654 474 b 835 133 574 263 665 181 b 1207 388 947 100 1111 190 l 1268 347 b 671 3 1128 38 794 -82 m 675 1178 b 760 1257 690 1208 721 1247 b 843 1089 776 1218 807 1156 b 1024 1258 875 1122 939 1183 b 1075 1163 1047 1238 1072 1203 b 882 982 996 1110 928 1043 b 794 1015 846 988 806 999 b 675 1178 789 1060 769 1092 "},"Ż":{"ha":1206,"x_min":0,"x_max":0,"o":"m 671 3 b 342 172 563 74 511 217 b 86 -54 264 97 179 21 b -86 65 3 -51 -82 21 b 979 821 290 222 567 618 b 317 731 797 821 586 788 b 421 946 307 778 329 854 b 1115 904 681 956 913 946 b 1317 972 1175 932 1257 957 b 1347 765 1357 911 1367 839 b 1143 811 1281 788 1214 803 b 419 246 854 681 654 474 b 835 133 574 263 665 181 b 1207 388 947 100 1111 190 l 1268 347 b 671 3 1128 38 794 -82 m 758 1135 b 911 1257 781 1154 842 1189 b 1042 1167 925 1239 971 1189 b 864 1008 999 1114 931 1046 b 758 1135 828 1042 782 1090 "},"Ẓ":{"ha":1206,"x_min":0,"x_max":0,"o":"m 671 3 b 342 172 563 74 511 217 b 86 -54 264 97 179 21 b -86 65 3 -51 -82 21 b 979 821 290 222 567 618 b 317 731 797 821 586 788 b 421 946 307 778 329 854 b 1115 904 681 956 913 946 b 1317 972 1175 932 1257 957 b 1347 765 1357 911 1367 839 b 1143 811 1281 788 1214 803 b 419 246 854 681 654 474 b 835 133 574 263 665 181 b 1207 388 947 100 1111 190 l 1268 347 b 671 3 1128 38 794 -82 m 200 -231 b 353 -108 222 -211 283 -176 b 483 -199 367 -126 413 -176 b 306 -357 440 -251 372 -319 b 200 -231 269 -325 224 -275 "},"Ẕ":{"ha":1206,"x_min":0,"x_max":0,"o":"m 671 3 b 342 172 563 74 511 217 b 86 -54 264 97 179 21 b -86 65 3 -51 -82 21 b 979 821 290 222 567 618 b 317 731 797 821 586 788 b 421 946 307 778 329 854 b 1115 904 681 956 913 946 b 1317 972 1175 932 1257 957 b 1347 765 1357 911 1367 839 b 1143 811 1281 788 1214 803 b 419 246 854 681 654 474 b 835 133 574 263 665 181 b 1207 388 947 100 1111 190 l 1268 347 b 671 3 1128 38 794 -82 m 149 -206 b 188 -122 149 -183 168 -147 b 542 -122 315 -135 453 -140 b 526 -250 571 -149 546 -219 b 149 -206 361 -282 178 -218 "},"a":{"ha":863,"x_min":0,"x_max":0,"o":"m 136 17 b 21 414 -99 -53 -171 181 b 429 435 174 600 381 582 b 474 501 442 458 457 481 b 617 411 508 493 603 449 b 558 146 546 253 508 194 b 865 388 610 99 758 175 l 925 347 b 542 17 872 222 732 13 b 378 186 446 19 390 90 b 136 17 300 100 217 39 m 172 126 b 385 321 235 143 318 231 b 396 358 389 333 392 346 b 183 376 379 456 307 511 b 172 126 33 213 51 92 "},"á":{"ha":863,"x_min":0,"x_max":0,"o":"m 136 17 b 21 414 -99 -53 -171 181 b 429 435 174 600 381 582 b 474 501 442 458 457 481 b 617 411 508 493 603 449 b 558 146 546 253 508 194 b 865 388 610 99 758 175 l 925 347 b 542 17 872 222 732 13 b 378 186 446 19 390 90 b 136 17 300 100 217 39 m 172 126 b 385 321 235 143 318 231 b 396 358 389 333 392 346 b 183 376 379 456 307 511 b 172 126 33 213 51 92 m 285 644 b 285 711 269 651 272 688 b 547 947 374 767 481 850 b 617 801 610 956 638 881 b 285 644 535 721 393 668 "},"ă":{"ha":863,"x_min":0,"x_max":0,"o":"m 136 17 b 21 414 -99 -53 -171 181 b 429 435 174 600 381 582 b 474 501 442 458 457 481 b 617 411 508 493 603 449 b 558 146 546 253 508 194 b 865 388 610 99 758 175 l 925 347 b 542 17 872 222 732 13 b 378 186 446 19 390 90 b 136 17 300 100 217 39 m 172 126 b 385 321 235 143 318 231 b 396 358 389 333 392 346 b 183 376 379 456 307 511 b 172 126 33 213 51 92 m 196 807 b 379 836 272 883 374 872 b 563 833 371 697 478 671 b 667 814 622 865 675 844 b 196 807 554 606 240 576 "},"ắ":{"ha":863,"x_min":0,"x_max":0,"o":"m 136 17 b 21 414 -99 -53 -171 181 b 429 435 174 600 381 582 b 474 501 442 458 457 481 b 617 411 508 493 603 449 b 558 146 546 253 508 194 b 865 388 610 99 758 175 l 925 347 b 542 17 872 222 732 13 b 378 186 446 19 390 90 b 136 17 300 100 217 39 m 172 126 b 385 321 235 143 318 231 b 396 358 389 333 392 346 b 183 376 379 456 307 511 b 172 126 33 213 51 92 m 199 806 b 382 835 275 882 376 871 b 565 832 374 696 481 669 b 669 813 625 864 678 843 b 199 806 557 604 243 575 m 361 886 b 361 953 346 893 349 929 b 624 1189 450 1008 557 1092 b 693 1043 686 1197 714 1122 b 361 886 611 963 469 910 "},"ặ":{"ha":863,"x_min":0,"x_max":0,"o":"m 136 17 b 21 414 -99 -53 -171 181 b 429 435 174 600 381 582 b 474 501 442 458 457 481 b 617 411 508 493 603 449 b 558 146 546 253 508 194 b 865 388 610 99 758 175 l 925 347 b 542 17 872 222 732 13 b 378 186 446 19 390 90 b 136 17 300 100 217 39 m 54 -167 b 207 -44 76 -147 138 -112 b 338 -135 221 -62 267 -112 b 160 -293 294 -187 226 -256 b 54 -167 124 -261 78 -211 m 172 126 b 385 321 235 143 318 231 b 396 358 389 333 392 346 b 183 376 379 456 307 511 b 172 126 33 213 51 92 m 196 807 b 379 836 272 883 374 872 b 563 833 371 697 478 671 b 667 814 622 865 675 844 b 196 807 554 606 240 576 "},"ằ":{"ha":863,"x_min":0,"x_max":0,"o":"m 136 17 b 21 414 -99 -53 -171 181 b 429 435 174 600 381 582 b 474 501 442 458 457 481 b 617 411 508 493 603 449 b 558 146 546 253 508 194 b 865 388 610 99 758 175 l 925 347 b 542 17 872 222 732 13 b 378 186 446 19 390 90 b 136 17 300 100 217 39 m 172 126 b 385 321 235 143 318 231 b 396 358 389 333 392 346 b 183 376 379 456 307 511 b 172 126 33 213 51 92 m 203 806 b 386 835 279 882 381 871 b 569 832 378 696 485 669 b 674 813 629 864 682 843 b 203 806 561 604 247 575 m 367 997 b 499 1121 378 1057 439 1122 b 664 951 526 1049 600 990 b 638 897 667 933 654 904 b 367 997 536 907 417 938 "},"ẳ":{"ha":863,"x_min":0,"x_max":0,"o":"m 136 17 b 21 414 -99 -53 -171 181 b 429 435 174 600 381 582 b 474 501 442 458 457 481 b 617 411 508 493 603 449 b 558 146 546 253 508 194 b 865 388 610 99 758 175 l 925 347 b 542 17 872 222 732 13 b 378 186 446 19 390 90 b 136 17 300 100 217 39 m 172 126 b 385 321 235 143 318 231 b 396 358 389 333 392 346 b 183 376 379 456 307 511 b 172 126 33 213 51 92 m 218 804 b 401 833 294 881 396 869 b 585 831 393 694 500 668 b 689 811 644 863 697 842 b 218 804 576 603 263 574 m 419 868 b 653 1118 632 944 689 1072 b 538 1132 618 1158 567 1144 b 525 1165 526 1136 519 1149 b 814 1215 636 1263 756 1283 b 436 835 885 1132 792 943 l 419 868 "},"ẵ":{"ha":863,"x_min":0,"x_max":0,"o":"m 136 17 b 21 414 -99 -53 -171 181 b 429 435 174 600 381 582 b 474 501 442 458 457 481 b 617 411 508 493 603 449 b 558 146 546 253 508 194 b 865 388 610 99 758 175 l 925 347 b 542 17 872 222 732 13 b 378 186 446 19 390 90 b 136 17 300 100 217 39 m 172 126 b 385 321 235 143 318 231 b 396 358 389 333 392 346 b 183 376 379 456 307 511 b 172 126 33 213 51 92 m 199 817 b 382 846 275 893 376 882 b 565 843 374 707 481 681 b 669 824 625 875 678 854 b 199 817 557 615 243 586 m 285 1039 b 563 1035 538 1263 496 1008 b 633 1113 603 1050 625 1083 b 764 1054 696 1139 776 1132 b 504 924 668 946 542 914 b 444 1044 458 931 471 1047 b 375 921 415 1040 381 971 b 285 1039 314 906 276 990 "},"ǎ":{"ha":863,"x_min":0,"x_max":0,"o":"m 136 17 b 21 414 -99 -53 -171 181 b 429 435 174 600 381 582 b 474 501 442 458 457 481 b 617 411 508 493 603 449 b 558 146 546 253 508 194 b 865 388 610 99 758 175 l 925 347 b 542 17 872 222 732 13 b 378 186 446 19 390 90 b 136 17 300 100 217 39 m 172 126 b 385 321 235 143 318 231 b 396 358 389 333 392 346 b 183 376 379 456 307 511 b 172 126 33 213 51 92 m 221 828 b 306 907 236 858 267 897 b 389 739 322 868 353 806 b 569 908 421 772 485 833 b 621 813 593 888 618 853 b 428 632 542 760 474 693 b 340 665 392 638 351 649 b 221 828 335 710 315 742 "},"â":{"ha":863,"x_min":0,"x_max":0,"o":"m 136 17 b 21 414 -99 -53 -171 181 b 429 435 174 600 381 582 b 474 501 442 458 457 481 b 617 411 508 493 603 449 b 558 146 546 253 508 194 b 865 388 610 99 758 175 l 925 347 b 542 17 872 222 732 13 b 378 186 446 19 390 90 b 136 17 300 100 217 39 m 172 126 b 385 321 235 143 318 231 b 396 358 389 333 392 346 b 183 376 379 456 307 511 b 172 126 33 213 51 92 m 219 704 b 411 885 297 757 365 824 b 500 851 447 879 489 868 b 617 690 503 807 522 775 b 533 610 601 658 571 621 b 451 776 517 649 486 713 b 269 608 419 744 354 683 b 219 704 246 629 221 664 "},"ấ":{"ha":863,"x_min":0,"x_max":0,"o":"m 136 17 b 21 414 -99 -53 -171 181 b 429 435 174 600 381 582 b 474 501 442 458 457 481 b 617 411 508 493 603 449 b 558 146 546 253 508 194 b 865 388 610 99 758 175 l 925 347 b 542 17 872 222 732 13 b 378 186 446 19 390 90 b 136 17 300 100 217 39 m 172 126 b 385 321 235 143 318 231 b 396 358 389 333 392 346 b 183 376 379 456 307 511 b 172 126 33 213 51 92 m 192 690 b 383 871 269 743 338 810 b 472 838 419 865 461 854 b 589 676 475 793 494 761 b 506 596 574 644 543 607 b 424 763 489 635 458 699 b 242 594 392 731 326 669 b 192 690 218 615 193 650 m 369 897 b 369 964 354 904 357 940 b 632 1200 458 1019 565 1103 b 701 1054 694 1208 722 1133 b 369 897 619 974 478 921 "},"ậ":{"ha":863,"x_min":0,"x_max":0,"o":"m 136 17 b 21 414 -99 -53 -171 181 b 429 435 174 600 381 582 b 474 501 442 458 457 481 b 617 411 508 493 603 449 b 558 146 546 253 508 194 b 865 388 610 99 758 175 l 925 347 b 542 17 872 222 732 13 b 378 186 446 19 390 90 b 136 17 300 100 217 39 m 54 -167 b 207 -44 76 -147 138 -112 b 338 -135 221 -62 267 -112 b 160 -293 294 -187 226 -256 b 54 -167 124 -261 78 -211 m 172 126 b 385 321 235 143 318 231 b 396 358 389 333 392 346 b 183 376 379 456 307 511 b 172 126 33 213 51 92 m 219 704 b 411 885 297 757 365 824 b 500 851 447 879 489 868 b 617 690 503 807 522 775 b 533 610 601 658 571 621 b 451 776 517 649 486 713 b 269 608 419 744 354 683 b 219 704 246 629 221 664 "},"ầ":{"ha":863,"x_min":0,"x_max":0,"o":"m 136 17 b 21 414 -99 -53 -171 181 b 429 435 174 600 381 582 b 474 501 442 458 457 481 b 617 411 508 493 603 449 b 558 146 546 253 508 194 b 865 388 610 99 758 175 l 925 347 b 542 17 872 222 732 13 b 378 186 446 19 390 90 b 136 17 300 100 217 39 m 172 126 b 385 321 235 143 318 231 b 396 358 389 333 392 346 b 183 376 379 456 307 511 b 172 126 33 213 51 92 m 201 710 b 393 890 279 763 347 829 b 482 857 429 885 471 874 b 599 696 485 813 504 781 b 515 615 583 664 553 626 b 433 782 499 654 468 718 b 251 614 401 750 336 689 b 201 710 228 635 203 669 m 381 1028 b 513 1151 392 1088 453 1153 b 678 982 540 1079 614 1021 b 651 928 681 964 668 935 b 381 1028 550 938 431 968 "},"ẩ":{"ha":863,"x_min":0,"x_max":0,"o":"m 136 17 b 21 414 -99 -53 -171 181 b 429 435 174 600 381 582 b 474 501 442 458 457 481 b 617 411 508 493 603 449 b 558 146 546 253 508 194 b 865 388 610 99 758 175 l 925 347 b 542 17 872 222 732 13 b 378 186 446 19 390 90 b 136 17 300 100 217 39 m 172 126 b 385 321 235 143 318 231 b 396 358 389 333 392 346 b 183 376 379 456 307 511 b 172 126 33 213 51 92 m 225 724 b 417 904 303 776 371 843 b 506 871 453 899 494 888 b 622 710 508 826 528 794 b 539 629 607 678 576 640 b 457 796 522 668 492 732 b 275 628 425 764 360 703 b 225 724 251 649 226 683 m 372 958 b 606 1208 585 1035 642 1163 b 490 1222 571 1249 519 1235 b 478 1256 479 1226 472 1239 b 767 1306 589 1353 708 1374 b 389 925 838 1222 744 1033 l 372 958 "},"ẫ":{"ha":863,"x_min":0,"x_max":0,"o":"m 136 17 b 21 414 -99 -53 -171 181 b 429 435 174 600 381 582 b 474 501 442 458 457 481 b 617 411 508 493 603 449 b 558 146 546 253 508 194 b 865 388 610 99 758 175 l 925 347 b 542 17 872 222 732 13 b 378 186 446 19 390 90 b 136 17 300 100 217 39 m 172 126 b 385 321 235 143 318 231 b 396 358 389 333 392 346 b 183 376 379 456 307 511 b 172 126 33 213 51 92 m 219 735 b 411 915 297 788 365 854 b 500 882 447 910 489 899 b 617 721 503 838 522 806 b 533 640 601 689 571 651 b 451 807 517 679 486 743 b 269 639 419 775 354 714 b 219 735 246 660 221 694 m 321 1083 b 599 1079 574 1307 532 1053 b 669 1157 639 1094 661 1128 b 800 1099 732 1183 813 1176 b 540 968 704 990 578 958 b 481 1089 494 975 507 1092 b 411 965 451 1085 417 1015 b 321 1083 350 950 313 1035 "},"ä":{"ha":863,"x_min":0,"x_max":0,"o":"m 136 17 b 21 414 -99 -53 -171 181 b 429 435 174 600 381 582 b 474 501 442 458 457 481 b 617 411 508 493 603 449 b 558 146 546 253 508 194 b 865 388 610 99 758 175 l 925 347 b 542 17 872 222 732 13 b 378 186 446 19 390 90 b 136 17 300 100 217 39 m 172 126 b 385 321 235 143 318 231 b 396 358 389 333 392 346 b 183 376 379 456 307 511 b 172 126 33 213 51 92 m 185 757 b 338 879 207 776 269 813 b 435 801 350 863 386 828 b 554 899 465 824 508 854 b 685 808 568 881 614 831 b 507 650 642 756 574 688 b 424 739 482 671 449 704 b 290 631 390 704 344 661 b 185 757 254 664 207 713 "},"ǟ":{"ha":863,"x_min":0,"x_max":0,"o":"m 136 17 b 21 414 -99 -53 -171 181 b 429 435 174 600 381 582 b 474 501 442 458 457 481 b 617 411 508 493 603 449 b 558 146 546 253 508 194 b 865 388 610 99 758 175 l 925 347 b 542 17 872 222 732 13 b 378 186 446 19 390 90 b 136 17 300 100 217 39 m 172 126 b 385 321 235 143 318 231 b 396 358 389 333 392 346 b 183 376 379 456 307 511 b 172 126 33 213 51 92 m 185 757 b 338 879 207 776 269 813 b 435 801 350 863 386 828 b 554 899 465 824 508 854 b 685 808 568 881 614 831 b 507 650 642 756 574 688 b 424 739 482 671 449 704 b 290 631 390 704 344 661 b 185 757 254 664 207 713 m 293 988 b 332 1071 293 1010 313 1044 b 686 1069 460 1058 597 1053 b 671 942 715 1043 690 972 b 293 988 506 910 322 974 "},"ạ":{"ha":863,"x_min":0,"x_max":0,"o":"m 136 17 b 21 414 -99 -53 -171 181 b 429 435 174 600 381 582 b 474 501 442 458 457 481 b 617 411 508 493 603 449 b 558 146 546 253 508 194 b 865 388 610 99 758 175 l 925 347 b 542 17 872 222 732 13 b 378 186 446 19 390 90 b 136 17 300 100 217 39 m 54 -167 b 207 -44 76 -147 138 -112 b 338 -135 221 -62 267 -112 b 160 -293 294 -187 226 -256 b 54 -167 124 -261 78 -211 m 172 126 b 385 321 235 143 318 231 b 396 358 389 333 392 346 b 183 376 379 456 307 511 b 172 126 33 213 51 92 "},"à":{"ha":863,"x_min":0,"x_max":0,"o":"m 136 17 b 21 414 -99 -53 -171 181 b 429 435 174 600 381 582 b 474 501 442 458 457 481 b 617 411 508 493 603 449 b 558 146 546 253 508 194 b 865 388 610 99 758 175 l 925 347 b 542 17 872 222 732 13 b 378 186 446 19 390 90 b 136 17 300 100 217 39 m 172 126 b 385 321 235 143 318 231 b 396 358 389 333 392 346 b 183 376 379 456 307 511 b 172 126 33 213 51 92 m 286 756 b 418 879 297 815 358 881 b 583 710 446 807 519 749 b 557 656 586 692 574 663 b 286 756 456 665 336 696 "},"ả":{"ha":863,"x_min":0,"x_max":0,"o":"m 136 17 b 21 414 -99 -53 -171 181 b 429 435 174 600 381 582 b 474 501 442 458 457 481 b 617 411 508 493 603 449 b 558 146 546 253 508 194 b 865 388 610 99 758 175 l 925 347 b 542 17 872 222 732 13 b 378 186 446 19 390 90 b 136 17 300 100 217 39 m 172 126 b 385 321 235 143 318 231 b 396 358 389 333 392 346 b 183 376 379 456 307 511 b 172 126 33 213 51 92 m 254 672 b 488 922 467 749 524 876 b 372 936 453 963 401 949 b 360 969 361 940 354 953 b 649 1019 471 1067 590 1088 b 271 639 719 936 626 747 l 254 672 "},"ā":{"ha":863,"x_min":0,"x_max":0,"o":"m 136 17 b 21 414 -99 -53 -171 181 b 429 435 174 600 381 582 b 474 501 442 458 457 481 b 617 411 508 493 603 449 b 558 146 546 253 508 194 b 865 388 610 99 758 175 l 925 347 b 542 17 872 222 732 13 b 378 186 446 19 390 90 b 136 17 300 100 217 39 m 172 126 b 385 321 235 143 318 231 b 396 358 389 333 392 346 b 183 376 379 456 307 511 b 172 126 33 213 51 92 m 192 706 b 231 789 192 728 211 763 b 585 788 358 776 496 771 b 569 660 614 761 589 690 b 192 706 404 628 221 692 "},"ą":{"ha":863,"x_min":0,"x_max":0,"o":"m 136 17 b 21 414 -99 -53 -171 181 b 429 435 174 600 381 582 b 474 501 442 458 457 481 b 617 411 508 493 603 449 b 558 146 546 253 508 194 b 865 388 610 99 758 175 l 925 347 b 560 17 874 226 742 26 b 389 -207 399 -60 357 -167 b 504 -221 424 -247 475 -233 b 517 -254 515 -225 522 -237 b 228 -304 407 -351 286 -372 b 479 31 167 -232 229 -79 b 378 186 422 56 388 114 b 136 17 300 100 217 39 m 172 126 b 385 321 235 143 318 231 b 396 358 389 333 392 346 b 183 376 379 456 307 511 b 172 126 33 213 51 92 "},"å":{"ha":863,"x_min":0,"x_max":0,"o":"m 136 17 b 21 414 -99 -53 -171 181 b 429 435 174 600 381 582 b 474 501 442 458 457 481 b 617 411 508 493 603 449 b 558 146 546 253 508 194 b 865 388 610 99 758 175 l 925 347 b 542 17 872 222 732 13 b 378 186 446 19 390 90 b 136 17 300 100 217 39 m 172 126 b 385 321 235 143 318 231 b 396 358 389 333 392 346 b 183 376 379 456 307 511 b 172 126 33 213 51 92 m 424 663 b 535 931 122 603 239 863 b 424 663 826 994 731 724 m 432 719 b 496 864 500 726 642 876 b 432 719 374 851 336 710 "},"ã":{"ha":863,"x_min":0,"x_max":0,"o":"m 136 17 b 21 414 -99 -53 -171 181 b 429 435 174 600 381 582 b 474 501 442 458 457 481 b 617 411 508 493 603 449 b 558 146 546 253 508 194 b 865 388 610 99 758 175 l 925 347 b 542 17 872 222 732 13 b 378 186 446 19 390 90 b 136 17 300 100 217 39 m 172 126 b 385 321 235 143 318 231 b 396 358 389 333 392 346 b 183 376 379 456 307 511 b 172 126 33 213 51 92 m 208 786 b 486 782 461 1010 419 756 b 557 860 526 797 549 831 b 688 801 619 886 700 879 b 428 671 592 693 465 661 b 368 792 382 678 394 794 b 299 668 339 788 304 718 b 208 786 238 653 200 738 "},"æ":{"ha":1135,"x_min":0,"x_max":0,"o":"m 136 17 b 21 414 -99 -53 -171 181 b 438 400 185 614 411 578 l 458 426 b 799 544 563 556 700 575 b 718 239 953 496 988 322 b 533 189 672 224 603 206 b 789 110 544 104 638 61 b 1143 399 910 149 1079 274 l 1204 360 b 833 43 1169 281 1003 117 b 371 178 624 -47 400 22 b 136 17 296 97 215 39 m 172 126 b 399 340 239 144 329 242 b 183 376 388 447 315 519 b 172 126 33 213 51 92 m 538 250 b 675 300 592 267 638 285 b 763 469 824 364 843 456 b 621 389 726 474 682 456 b 538 250 576 340 549 292 "},"ǣ":{"ha":1135,"x_min":0,"x_max":0,"o":"m 136 17 b 21 414 -99 -53 -171 181 b 438 400 185 614 411 578 l 458 426 b 799 544 563 556 700 575 b 718 239 953 496 988 322 b 533 189 672 224 603 206 b 789 110 544 104 638 61 b 1143 399 910 149 1079 274 l 1204 360 b 833 43 1169 281 1003 117 b 371 178 624 -47 400 22 b 136 17 296 97 215 39 m 172 126 b 399 340 239 144 329 242 b 183 376 388 447 315 519 b 172 126 33 213 51 92 m 192 706 b 231 789 192 728 211 763 b 585 788 358 776 496 771 b 569 660 614 761 589 690 b 192 706 404 628 221 692 m 538 250 b 675 300 592 267 638 285 b 763 469 824 364 843 456 b 621 389 726 474 682 456 b 538 250 576 340 549 292 "},"b":{"ha":693,"x_min":0,"x_max":0,"o":"m 160 17 b 331 1004 -199 60 40 671 b 496 890 388 1003 482 929 b 144 131 121 461 28 188 b 378 293 218 93 332 176 b 293 349 357 292 317 321 b 483 492 240 513 396 657 b 500 342 500 458 503 399 b 693 388 572 325 654 328 l 754 347 b 481 265 717 264 592 246 b 160 17 425 144 333 -4 "},"ḅ":{"ha":693,"x_min":0,"x_max":0,"o":"m 160 17 b 331 1004 -199 60 40 671 b 496 890 388 1003 482 929 b 144 131 121 461 28 188 b 378 293 218 93 332 176 b 293 349 357 292 317 321 b 483 492 240 513 396 657 b 500 342 500 458 503 399 b 693 388 572 325 654 328 l 754 347 b 481 265 717 264 592 246 b 160 17 425 144 333 -4 m 1 -231 b 154 -108 24 -211 85 -176 b 285 -199 168 -126 214 -176 b 107 -357 242 -251 174 -319 b 1 -231 71 -325 25 -275 "},"c":{"ha":711,"x_min":0,"x_max":0,"o":"m 403 43 b 26 426 100 -87 -229 114 b 368 544 132 556 269 578 b 410 303 481 507 510 378 b 294 364 344 294 301 310 b 347 476 379 388 406 464 b 190 389 310 482 250 456 b 357 110 18 199 110 31 b 713 388 481 149 649 263 l 774 349 b 403 43 738 269 571 117 "},"ć":{"ha":711,"x_min":0,"x_max":0,"o":"m 403 43 b 26 426 100 -87 -229 114 b 368 544 132 556 269 578 b 410 303 481 507 510 378 b 294 364 344 294 301 310 b 347 476 379 388 406 464 b 190 389 310 482 250 456 b 357 110 18 199 110 31 b 713 388 481 149 649 263 l 774 349 b 403 43 738 269 571 117 m 215 611 b 215 678 200 618 203 654 b 478 914 304 733 411 817 b 547 768 540 922 568 847 b 215 611 465 688 324 635 "},"č":{"ha":711,"x_min":0,"x_max":0,"o":"m 403 43 b 26 426 100 -87 -229 114 b 368 544 132 556 269 578 b 410 303 481 507 510 378 b 294 364 344 294 301 310 b 347 476 379 388 406 464 b 190 389 310 482 250 456 b 357 110 18 199 110 31 b 713 388 481 149 649 263 l 774 349 b 403 43 738 269 571 117 m 151 794 b 236 874 167 825 197 864 b 319 706 253 835 283 772 b 500 875 351 739 415 800 b 551 779 524 854 549 819 b 358 599 472 726 404 660 b 271 632 322 604 282 615 b 151 794 265 676 246 708 "},"ç":{"ha":711,"x_min":0,"x_max":0,"o":"m 403 43 b 190 3 331 13 257 0 l 119 -56 b 274 -290 294 -61 358 -186 b -125 -324 190 -390 -18 -410 b -99 -279 -125 -308 -115 -289 b 113 -233 -18 -311 64 -294 b -11 -108 160 -171 125 -100 l 17 -61 l 129 11 b 26 426 -49 50 -149 213 b 368 544 132 556 269 578 b 410 303 481 507 510 378 b 294 364 344 294 301 310 b 347 476 379 388 406 464 b 190 389 310 482 250 456 b 357 110 18 199 110 31 b 713 388 481 149 649 263 l 774 349 b 403 43 738 269 571 117 "},"ĉ":{"ha":711,"x_min":0,"x_max":0,"o":"m 403 43 b 26 426 100 -87 -229 114 b 368 544 132 556 269 578 b 410 303 481 507 510 378 b 294 364 344 294 301 310 b 347 476 379 388 406 464 b 190 389 310 482 250 456 b 357 110 18 199 110 31 b 713 388 481 149 649 263 l 774 349 b 403 43 738 269 571 117 m 150 671 b 342 851 228 724 296 790 b 431 818 378 846 419 835 b 547 657 433 774 453 742 b 464 576 532 625 501 588 b 382 743 447 615 417 679 b 200 575 350 711 285 650 b 150 671 176 596 151 631 "},"ċ":{"ha":711,"x_min":0,"x_max":0,"o":"m 403 43 b 26 426 100 -87 -229 114 b 368 544 132 556 269 578 b 410 303 481 507 510 378 b 294 364 344 294 301 310 b 347 476 379 388 406 464 b 190 389 310 482 250 456 b 357 110 18 199 110 31 b 713 388 481 149 649 263 l 774 349 b 403 43 738 269 571 117 m 235 751 b 388 874 257 771 318 806 b 518 783 401 856 447 806 b 340 625 475 731 407 663 b 235 751 304 658 258 707 "},"d":{"ha":865,"x_min":0,"x_max":0,"o":"m 139 17 b 22 414 -96 -53 -169 179 b 435 428 176 603 389 581 b 785 1035 497 628 628 861 b 929 944 819 1029 914 982 b 538 131 536 408 453 179 b 868 388 597 96 761 175 l 928 347 b 543 17 875 222 735 17 b 393 201 439 17 394 90 b 139 17 313 108 224 40 m 176 126 b 400 339 242 144 331 242 b 186 376 392 447 317 522 b 176 126 40 215 50 92 "},"ð":{"ha":654,"x_min":0,"x_max":0,"o":"m 250 63 b 88 -42 192 3 131 -35 b -36 313 -7 -54 -144 111 b 261 582 50 468 176 544 b 307 558 275 581 289 572 b 286 669 304 596 299 633 b 140 618 215 640 157 622 b 129 693 128 632 126 665 b 247 754 169 713 208 733 b 176 840 229 783 204 814 b 246 908 167 868 231 908 b 332 803 279 875 307 839 b 489 910 394 842 449 878 b 550 821 535 893 551 853 b 385 715 500 781 440 744 b 344 208 464 547 442 382 b 656 388 428 193 574 225 l 715 347 b 267 86 635 163 411 85 l 250 63 m 136 151 b 308 521 208 154 307 332 b 136 151 21 382 22 146 "},"ď":{"ha":865,"x_min":0,"x_max":0,"o":"m 139 17 b 22 414 -96 -53 -169 179 b 435 428 176 603 389 581 b 785 1035 497 628 628 861 b 929 944 819 1029 914 982 b 538 131 536 408 453 179 b 868 388 597 96 761 175 l 928 347 b 543 17 875 222 735 17 b 393 201 439 17 394 90 b 139 17 313 108 224 40 m 176 126 b 400 339 242 144 331 242 b 186 376 392 447 317 522 b 176 126 40 215 50 92 m 983 988 b 1217 990 1036 1025 1128 1067 b 1086 669 1160 943 1078 774 b 994 654 1067 651 1021 649 b 983 988 983 676 946 821 "},"đ":{"ha":865,"x_min":0,"x_max":0,"o":"m 139 17 b 22 414 -96 -53 -169 179 b 435 428 176 603 389 581 b 549 694 461 513 500 604 b 339 635 478 685 406 667 b 438 839 333 715 388 794 b 649 861 510 854 582 860 b 785 1035 690 922 736 982 b 929 944 819 1029 914 982 l 850 835 b 883 822 863 831 874 826 b 842 674 882 754 871 721 b 753 693 818 682 788 689 b 538 131 513 335 468 171 b 868 388 597 96 761 175 l 928 347 b 543 17 875 222 735 17 b 393 201 439 17 394 90 b 139 17 313 108 224 40 m 176 126 b 400 339 242 144 331 242 b 186 376 392 447 317 522 b 176 126 40 215 50 92 "},"ḍ":{"ha":865,"x_min":0,"x_max":0,"o":"m 139 17 b 22 414 -96 -53 -169 179 b 435 428 176 603 389 581 b 785 1035 497 628 628 861 b 929 944 819 1029 914 982 b 538 131 536 408 453 179 b 868 388 597 96 761 175 l 928 347 b 543 17 875 222 735 17 b 393 201 439 17 394 90 b 139 17 313 108 224 40 m 88 -153 b 240 -31 110 -133 171 -99 b 371 -121 254 -49 300 -99 b 193 -279 328 -174 260 -242 b 88 -153 157 -247 111 -197 m 176 126 b 400 339 242 144 331 242 b 186 376 392 447 317 522 b 176 126 40 215 50 92 "},"ḏ":{"ha":865,"x_min":0,"x_max":0,"o":"m 139 17 b 22 414 -96 -53 -169 179 b 435 428 176 603 389 581 b 785 1035 497 628 628 861 b 929 944 819 1029 914 982 b 538 131 536 408 453 179 b 868 388 597 96 761 175 l 928 347 b 543 17 875 222 735 17 b 393 201 439 17 394 90 b 139 17 313 108 224 40 m 36 -128 b 75 -44 36 -106 56 -69 b 429 -44 203 -57 340 -62 b 414 -172 458 -71 433 -142 b 36 -128 249 -204 65 -140 m 176 126 b 400 339 242 144 331 242 b 186 376 392 447 317 522 b 176 126 40 215 50 92 "},"e":{"ha":715,"x_min":0,"x_max":0,"o":"m 407 43 b 32 426 106 -87 -224 114 b 372 544 136 556 274 575 b 292 239 526 496 561 322 b 107 189 246 224 176 206 b 363 110 118 104 211 61 b 717 399 483 149 653 274 l 778 360 b 407 43 743 281 576 117 m 111 250 b 249 300 165 267 211 285 b 336 469 397 364 417 456 b 194 389 300 474 256 456 b 111 250 150 340 122 292 "},"é":{"ha":715,"x_min":0,"x_max":0,"o":"m 407 43 b 32 426 106 -87 -224 114 b 372 544 136 556 274 575 b 292 239 526 496 561 322 b 107 189 246 224 176 206 b 363 110 118 104 211 61 b 717 399 483 149 653 274 l 778 360 b 407 43 743 281 576 117 m 111 250 b 249 300 165 267 211 285 b 336 469 397 364 417 456 b 194 389 300 474 256 456 b 111 250 150 340 122 292 m 269 651 b 269 718 254 658 257 694 b 532 954 358 774 465 857 b 601 808 594 963 622 888 b 269 651 519 728 378 675 "},"ě":{"ha":715,"x_min":0,"x_max":0,"o":"m 407 43 b 32 426 106 -87 -224 114 b 372 544 136 556 274 575 b 292 239 526 496 561 322 b 107 189 246 224 176 206 b 363 110 118 104 211 61 b 717 399 483 149 653 274 l 778 360 b 407 43 743 281 576 117 m 111 250 b 249 300 165 267 211 285 b 336 469 397 364 417 456 b 194 389 300 474 256 456 b 111 250 150 340 122 292 m 206 835 b 290 914 221 865 251 904 b 374 746 307 875 338 813 b 554 915 406 779 469 840 b 606 819 578 894 603 860 b 413 639 526 767 458 700 b 325 672 376 644 336 656 b 206 835 319 717 300 749 "},"ȩ":{"ha":715,"x_min":0,"x_max":0,"o":"m 407 43 b 163 7 324 7 238 -4 l 100 -46 b 254 -281 275 -51 339 -176 b -144 -314 171 -381 -37 -400 b -118 -269 -144 -299 -135 -279 b 93 -224 -37 -301 44 -285 b -31 -99 140 -161 106 -90 l -3 -51 l 106 19 b 32 426 -54 68 -133 224 b 372 544 136 556 274 575 b 292 239 526 496 561 322 b 107 189 246 224 176 206 b 363 110 118 104 211 61 b 717 399 483 149 653 274 l 778 360 b 407 43 743 281 576 117 m 111 250 b 249 300 165 267 211 285 b 336 469 397 364 417 456 b 194 389 300 474 256 456 b 111 250 150 340 122 292 "},"ê":{"ha":715,"x_min":0,"x_max":0,"o":"m 407 43 b 32 426 106 -87 -224 114 b 372 544 136 556 274 575 b 292 239 526 496 561 322 b 107 189 246 224 176 206 b 363 110 118 104 211 61 b 717 399 483 149 653 274 l 778 360 b 407 43 743 281 576 117 m 111 250 b 249 300 165 267 211 285 b 336 469 397 364 417 456 b 194 389 300 474 256 456 b 111 250 150 340 122 292 m 204 711 b 396 892 282 764 350 831 b 485 858 432 886 474 875 b 601 697 488 814 507 782 b 518 617 586 665 556 628 b 436 783 501 656 471 719 b 254 615 404 751 339 690 b 204 711 231 636 206 671 "},"ế":{"ha":715,"x_min":0,"x_max":0,"o":"m 407 43 b 32 426 106 -87 -224 114 b 372 544 136 556 274 575 b 292 239 526 496 561 322 b 107 189 246 224 176 206 b 363 110 118 104 211 61 b 717 399 483 149 653 274 l 778 360 b 407 43 743 281 576 117 m 111 250 b 249 300 165 267 211 285 b 336 469 397 364 417 456 b 194 389 300 474 256 456 b 111 250 150 340 122 292 m 176 697 b 368 878 254 750 322 817 b 457 844 404 872 446 861 b 574 683 460 800 479 768 b 490 603 558 651 528 614 b 408 769 474 642 443 706 b 226 601 376 738 311 676 b 176 697 203 622 178 657 m 354 904 b 354 971 339 911 342 947 b 617 1207 443 1026 550 1110 b 686 1061 679 1215 707 1140 b 354 904 604 981 463 928 "},"ệ":{"ha":715,"x_min":0,"x_max":0,"o":"m 407 43 b 32 426 106 -87 -224 114 b 372 544 136 556 274 575 b 292 239 526 496 561 322 b 107 189 246 224 176 206 b 363 110 118 104 211 61 b 717 399 483 149 653 274 l 778 360 b 407 43 743 281 576 117 m -37 -190 b 115 -68 -15 -171 46 -136 b 246 -158 129 -86 175 -136 b 68 -317 203 -211 135 -279 b -37 -190 32 -285 -14 -235 m 111 250 b 249 300 165 267 211 285 b 336 469 397 364 417 456 b 194 389 300 474 256 456 b 111 250 150 340 122 292 m 204 711 b 396 892 282 764 350 831 b 485 858 432 886 474 875 b 601 697 488 814 507 782 b 518 617 586 665 556 628 b 436 783 501 656 471 719 b 254 615 404 751 339 690 b 204 711 231 636 206 671 "},"ề":{"ha":715,"x_min":0,"x_max":0,"o":"m 407 43 b 32 426 106 -87 -224 114 b 372 544 136 556 274 575 b 292 239 526 496 561 322 b 107 189 246 224 176 206 b 363 110 118 104 211 61 b 717 399 483 149 653 274 l 778 360 b 407 43 743 281 576 117 m 111 250 b 249 300 165 267 211 285 b 336 469 397 364 417 456 b 194 389 300 474 256 456 b 111 250 150 340 122 292 m 186 717 b 378 897 264 769 332 836 b 467 864 414 892 456 881 b 583 703 469 819 489 788 b 500 622 568 671 538 633 b 418 789 483 661 453 725 b 236 621 386 757 321 696 b 186 717 213 642 188 676 m 365 1035 b 497 1158 376 1094 438 1160 b 663 989 525 1086 599 1028 b 636 935 665 971 653 942 b 365 1035 535 944 415 975 "},"ể":{"ha":715,"x_min":0,"x_max":0,"o":"m 407 43 b 32 426 106 -87 -224 114 b 372 544 136 556 274 575 b 292 239 526 496 561 322 b 107 189 246 224 176 206 b 363 110 118 104 211 61 b 717 399 483 149 653 274 l 778 360 b 407 43 743 281 576 117 m 111 250 b 249 300 165 267 211 285 b 336 469 397 364 417 456 b 194 389 300 474 256 456 b 111 250 150 340 122 292 m 210 731 b 401 911 288 783 356 850 b 490 878 438 906 479 894 b 607 717 493 833 513 801 b 524 636 592 685 561 647 b 442 803 507 675 476 739 b 260 635 410 771 344 710 b 210 731 236 656 211 690 m 357 965 b 590 1215 569 1042 626 1169 b 475 1229 556 1256 504 1242 b 463 1263 464 1233 457 1246 b 751 1313 574 1360 693 1381 b 374 932 822 1229 729 1040 l 357 965 "},"ễ":{"ha":715,"x_min":0,"x_max":0,"o":"m 407 43 b 32 426 106 -87 -224 114 b 372 544 136 556 274 575 b 292 239 526 496 561 322 b 107 189 246 224 176 206 b 363 110 118 104 211 61 b 717 399 483 149 653 274 l 778 360 b 407 43 743 281 576 117 m 111 250 b 249 300 165 267 211 285 b 336 469 397 364 417 456 b 194 389 300 474 256 456 b 111 250 150 340 122 292 m 204 742 b 396 922 282 794 350 861 b 485 889 432 917 474 906 b 601 728 488 844 507 813 b 518 647 586 696 556 658 b 436 814 501 686 471 750 b 254 646 404 782 339 721 b 204 742 231 667 206 701 m 306 1090 b 583 1086 558 1314 517 1060 b 654 1164 624 1101 646 1135 b 785 1106 717 1190 797 1183 b 525 975 689 997 563 965 b 465 1096 479 982 492 1099 b 396 972 436 1092 401 1022 b 306 1090 335 957 297 1042 "},"ë":{"ha":715,"x_min":0,"x_max":0,"o":"m 407 43 b 32 426 106 -87 -224 114 b 372 544 136 556 274 575 b 292 239 526 496 561 322 b 107 189 246 224 176 206 b 363 110 118 104 211 61 b 717 399 483 149 653 274 l 778 360 b 407 43 743 281 576 117 m 111 250 b 249 300 165 267 211 285 b 336 469 397 364 417 456 b 194 389 300 474 256 456 b 111 250 150 340 122 292 m 169 764 b 322 886 192 783 254 819 b 419 808 335 869 371 835 b 539 906 450 831 493 861 b 669 815 553 888 599 838 b 492 657 626 763 558 694 b 408 746 467 678 433 711 b 275 638 375 711 329 668 b 169 764 239 671 192 719 "},"ė":{"ha":715,"x_min":0,"x_max":0,"o":"m 407 43 b 32 426 106 -87 -224 114 b 372 544 136 556 274 575 b 292 239 526 496 561 322 b 107 189 246 224 176 206 b 363 110 118 104 211 61 b 717 399 483 149 653 274 l 778 360 b 407 43 743 281 576 117 m 111 250 b 249 300 165 267 211 285 b 336 469 397 364 417 456 b 194 389 300 474 256 456 b 111 250 150 340 122 292 m 289 792 b 442 914 311 811 372 846 b 572 824 456 896 501 846 b 394 665 529 771 461 703 b 289 792 358 699 313 747 "},"ẹ":{"ha":715,"x_min":0,"x_max":0,"o":"m 407 43 b 32 426 106 -87 -224 114 b 372 544 136 556 274 575 b 292 239 526 496 561 322 b 107 189 246 224 176 206 b 363 110 118 104 211 61 b 717 399 483 149 653 274 l 778 360 b 407 43 743 281 576 117 m -37 -190 b 115 -68 -15 -171 46 -136 b 246 -158 129 -86 175 -136 b 68 -317 203 -211 135 -279 b -37 -190 32 -285 -14 -235 m 111 250 b 249 300 165 267 211 285 b 336 469 397 364 417 456 b 194 389 300 474 256 456 b 111 250 150 340 122 292 "},"è":{"ha":715,"x_min":0,"x_max":0,"o":"m 407 43 b 32 426 106 -87 -224 114 b 372 544 136 556 274 575 b 292 239 526 496 561 322 b 107 189 246 224 176 206 b 363 110 118 104 211 61 b 717 399 483 149 653 274 l 778 360 b 407 43 743 281 576 117 m 111 250 b 249 300 165 267 211 285 b 336 469 397 364 417 456 b 194 389 300 474 256 456 b 111 250 150 340 122 292 m 271 763 b 403 886 282 822 343 888 b 568 717 431 814 504 756 b 542 663 571 699 558 669 b 271 763 440 672 321 703 "},"ẻ":{"ha":715,"x_min":0,"x_max":0,"o":"m 407 43 b 32 426 106 -87 -224 114 b 372 544 136 556 274 575 b 292 239 526 496 561 322 b 107 189 246 224 176 206 b 363 110 118 104 211 61 b 717 399 483 149 653 274 l 778 360 b 407 43 743 281 576 117 m 111 250 b 249 300 165 267 211 285 b 336 469 397 364 417 456 b 194 389 300 474 256 456 b 111 250 150 340 122 292 m 239 679 b 472 929 451 756 508 883 b 357 943 438 969 386 956 b 344 976 346 947 339 960 b 633 1026 456 1074 575 1094 b 256 646 704 943 611 754 l 239 679 "},"ē":{"ha":715,"x_min":0,"x_max":0,"o":"m 407 43 b 32 426 106 -87 -224 114 b 372 544 136 556 274 575 b 292 239 526 496 561 322 b 107 189 246 224 176 206 b 363 110 118 104 211 61 b 717 399 483 149 653 274 l 778 360 b 407 43 743 281 576 117 m 111 250 b 249 300 165 267 211 285 b 336 469 397 364 417 456 b 194 389 300 474 256 456 b 111 250 150 340 122 292 m 176 713 b 215 796 176 735 196 769 b 569 794 343 783 481 778 b 554 667 599 768 574 697 b 176 713 389 635 206 699 "},"ę":{"ha":715,"x_min":0,"x_max":0,"o":"m 407 43 b 238 3 350 18 293 6 b 42 -232 56 -74 8 -189 b 157 -246 76 -272 128 -258 b 169 -279 168 -250 175 -262 b -119 -329 60 -376 -61 -397 b 143 10 -182 -256 -117 -100 b 32 426 -40 44 -146 208 b 372 544 136 556 274 575 b 292 239 526 496 561 322 b 107 189 246 224 176 206 b 363 110 118 104 211 61 b 717 399 483 149 653 274 l 778 360 b 407 43 743 281 576 117 m 111 250 b 249 300 165 267 211 285 b 336 469 397 364 417 456 b 194 389 300 474 256 456 b 111 250 150 340 122 292 "},"ẽ":{"ha":715,"x_min":0,"x_max":0,"o":"m 407 43 b 32 426 106 -87 -224 114 b 372 544 136 556 274 575 b 292 239 526 496 561 322 b 107 189 246 224 176 206 b 363 110 118 104 211 61 b 717 399 483 149 653 274 l 778 360 b 407 43 743 281 576 117 m 111 250 b 249 300 165 267 211 285 b 336 469 397 364 417 456 b 194 389 300 474 256 456 b 111 250 150 340 122 292 m 193 793 b 471 789 446 1017 404 763 b 542 867 511 804 533 838 b 672 808 604 893 685 886 b 413 678 576 700 450 668 b 353 799 367 685 379 801 b 283 675 324 794 289 725 b 193 793 222 660 185 744 "},"ə":{"ha":715,"x_min":0,"x_max":0,"o":"m 233 510 b 608 128 535 640 864 439 b 268 10 504 -3 367 -22 b 349 315 114 57 79 231 b 535 364 394 329 464 347 b 278 444 524 449 429 492 b -76 156 157 406 -12 279 l -137 193 b 233 510 -103 272 64 438 m 304 85 b 446 164 340 81 385 97 b 529 303 490 213 518 261 b 392 253 476 286 431 268 b 304 85 243 190 224 97 "},"f":{"ha":522,"x_min":0,"x_max":0,"o":"m 51 -374 b 43 358 -164 -372 -103 -8 b -6 403 19 376 0 394 b 111 515 -7 488 53 524 b 404 1004 201 713 310 896 b 571 890 463 1003 557 929 b 224 388 438 739 318 560 b 524 388 276 344 460 289 l 585 347 b 253 279 542 249 374 240 b 51 -374 271 79 233 -374 m 36 -258 b 174 278 111 -297 188 -12 l 167 281 b 36 -258 31 7 -32 -225 "},"g":{"ha":864,"x_min":0,"x_max":0,"o":"m 163 -274 b -194 -240 -28 -365 -167 -311 b 75 -19 -247 -97 -111 -18 b 286 -1 138 -19 208 -14 b 364 169 321 58 349 119 b 138 17 292 93 214 38 b 22 414 -97 -53 -169 181 b 432 433 176 600 383 582 b 476 501 444 457 460 479 b 618 411 508 493 604 449 b 561 283 596 357 575 315 b 444 36 550 256 508 150 b 594 90 493 51 543 69 b 867 388 703 135 800 257 l 926 347 b 694 58 890 260 806 131 b 386 -58 601 -1 492 -37 b 163 -274 324 -150 249 -233 m -51 -204 b 133 -189 -21 -246 63 -244 b 235 -81 168 -162 203 -124 b 60 -89 169 -86 108 -89 b -51 -204 -68 -90 -94 -149 m 174 126 b 389 325 236 143 319 232 l 399 356 b 186 376 382 454 310 513 b 174 126 40 218 50 92 "},"ğ":{"ha":864,"x_min":0,"x_max":0,"o":"m 163 -274 b -194 -240 -28 -365 -167 -311 b 75 -19 -247 -97 -111 -18 b 286 -1 138 -19 208 -14 b 364 169 321 58 349 119 b 138 17 292 93 214 38 b 22 414 -97 -53 -169 181 b 432 433 176 600 383 582 b 476 501 444 457 460 479 b 618 411 508 493 604 449 b 561 283 596 357 575 315 b 444 36 550 256 508 150 b 594 90 493 51 543 69 b 867 388 703 135 800 257 l 926 347 b 694 58 890 260 806 131 b 386 -58 601 -1 492 -37 b 163 -274 324 -150 249 -233 m -51 -204 b 133 -189 -21 -246 63 -244 b 235 -81 168 -162 203 -124 b 60 -89 169 -86 108 -89 b -51 -204 -68 -90 -94 -149 m 147 771 b 331 800 224 847 325 836 b 514 797 322 661 429 635 b 618 778 574 829 626 808 b 147 771 506 569 192 540 m 174 126 b 389 325 236 143 319 232 l 399 356 b 186 376 382 454 310 513 b 174 126 40 218 50 92 "},"ǧ":{"ha":864,"x_min":0,"x_max":0,"o":"m 163 -274 b -194 -240 -28 -365 -167 -311 b 75 -19 -247 -97 -111 -18 b 286 -1 138 -19 208 -14 b 364 169 321 58 349 119 b 138 17 292 93 214 38 b 22 414 -97 -53 -169 181 b 432 433 176 600 383 582 b 476 501 444 457 460 479 b 618 411 508 493 604 449 b 561 283 596 357 575 315 b 444 36 550 256 508 150 b 594 90 493 51 543 69 b 867 388 703 135 800 257 l 926 347 b 694 58 890 260 806 131 b 386 -58 601 -1 492 -37 b 163 -274 324 -150 249 -233 m -51 -204 b 133 -189 -21 -246 63 -244 b 235 -81 168 -162 203 -124 b 60 -89 169 -86 108 -89 b -51 -204 -68 -90 -94 -149 m 172 792 b 257 871 188 822 218 861 b 340 703 274 832 304 769 b 521 872 372 736 436 797 b 572 776 544 851 569 817 b 379 596 493 724 425 657 b 292 629 343 601 303 613 b 172 792 286 674 267 706 m 174 126 b 389 325 236 143 319 232 l 399 356 b 186 376 382 454 310 513 b 174 126 40 218 50 92 "},"ĝ":{"ha":864,"x_min":0,"x_max":0,"o":"m 163 -274 b -194 -240 -28 -365 -167 -311 b 75 -19 -247 -97 -111 -18 b 286 -1 138 -19 208 -14 b 364 169 321 58 349 119 b 138 17 292 93 214 38 b 22 414 -97 -53 -169 181 b 432 433 176 600 383 582 b 476 501 444 457 460 479 b 618 411 508 493 604 449 b 561 283 596 357 575 315 b 444 36 550 256 508 150 b 594 90 493 51 543 69 b 867 388 703 135 800 257 l 926 347 b 694 58 890 260 806 131 b 386 -58 601 -1 492 -37 b 163 -274 324 -150 249 -233 m -51 -204 b 133 -189 -21 -246 63 -244 b 235 -81 168 -162 203 -124 b 60 -89 169 -86 108 -89 b -51 -204 -68 -90 -94 -149 m 171 668 b 363 849 249 721 317 788 b 451 815 399 843 440 832 b 568 654 454 771 474 739 b 485 574 553 622 522 585 b 403 740 468 613 438 676 b 221 572 371 708 306 647 b 171 668 197 593 172 628 m 174 126 b 389 325 236 143 319 232 l 399 356 b 186 376 382 454 310 513 b 174 126 40 218 50 92 "},"ģ":{"ha":864,"x_min":0,"x_max":0,"o":"m 163 -274 b -194 -240 -28 -365 -167 -311 b 75 -19 -247 -97 -111 -18 b 286 -1 138 -19 208 -14 b 364 169 321 58 349 119 b 138 17 292 93 214 38 b 22 414 -97 -53 -169 181 b 432 433 176 600 383 582 b 476 501 444 457 460 479 b 618 411 508 493 604 449 b 561 283 596 357 575 315 b 444 36 550 256 508 150 b 594 90 493 51 543 69 b 867 388 703 135 800 257 l 926 347 b 694 58 890 260 806 131 b 386 -58 601 -1 492 -37 b 163 -274 324 -150 249 -233 m -51 -204 b 133 -189 -21 -246 63 -244 b 235 -81 168 -162 203 -124 b 60 -89 169 -86 108 -89 b -51 -204 -68 -90 -94 -149 m 174 126 b 389 325 236 143 319 232 l 399 356 b 186 376 382 454 310 513 b 174 126 40 218 50 92 m 236 689 b 531 964 288 803 419 903 b 560 911 546 953 563 932 b 439 797 504 871 463 831 b 511 728 464 781 492 757 b 338 554 485 675 426 603 b 236 689 300 585 256 636 "},"ġ":{"ha":864,"x_min":0,"x_max":0,"o":"m 163 -274 b -194 -240 -28 -365 -167 -311 b 75 -19 -247 -97 -111 -18 b 286 -1 138 -19 208 -14 b 364 169 321 58 349 119 b 138 17 292 93 214 38 b 22 414 -97 -53 -169 181 b 432 433 176 600 383 582 b 476 501 444 457 460 479 b 618 411 508 493 604 449 b 561 283 596 357 575 315 b 444 36 550 256 508 150 b 594 90 493 51 543 69 b 867 388 703 135 800 257 l 926 347 b 694 58 890 260 806 131 b 386 -58 601 -1 492 -37 b 163 -274 324 -150 249 -233 m -51 -204 b 133 -189 -21 -246 63 -244 b 235 -81 168 -162 203 -124 b 60 -89 169 -86 108 -89 b -51 -204 -68 -90 -94 -149 m 174 126 b 389 325 236 143 319 232 l 399 356 b 186 376 382 454 310 513 b 174 126 40 218 50 92 m 256 749 b 408 871 278 768 339 803 b 539 781 422 853 468 803 b 361 622 496 728 428 660 b 256 749 325 656 279 704 "},"ḡ":{"ha":864,"x_min":0,"x_max":0,"o":"m 163 -274 b -194 -240 -28 -365 -167 -311 b 75 -19 -247 -97 -111 -18 b 286 -1 138 -19 208 -14 b 364 169 321 58 349 119 b 138 17 292 93 214 38 b 22 414 -97 -53 -169 181 b 432 433 176 600 383 582 b 476 501 444 457 460 479 b 618 411 508 493 604 449 b 561 283 596 357 575 315 b 444 36 550 256 508 150 b 594 90 493 51 543 69 b 867 388 703 135 800 257 l 926 347 b 694 58 890 260 806 131 b 386 -58 601 -1 492 -37 b 163 -274 324 -150 249 -233 m -51 -204 b 133 -189 -21 -246 63 -244 b 235 -81 168 -162 203 -124 b 60 -89 169 -86 108 -89 b -51 -204 -68 -90 -94 -149 m 143 669 b 182 753 143 692 163 726 b 536 751 310 740 447 735 b 521 624 565 725 540 654 b 143 669 356 592 172 656 m 174 126 b 389 325 236 143 319 232 l 399 356 b 186 376 382 454 310 513 b 174 126 40 218 50 92 "},"ǥ":{"ha":863,"x_min":0,"x_max":0,"o":"m 293 372 b 392 385 326 378 360 382 b 186 376 367 464 297 499 b 174 126 40 218 50 92 b 332 254 219 139 278 190 b 211 217 290 246 250 233 b 293 372 206 278 251 338 m -194 -240 b 75 -19 -247 -97 -111 -18 b 286 -1 138 -19 208 -14 b 364 169 321 58 349 119 b 138 17 292 93 214 38 b 22 414 -97 -53 -169 181 b 432 433 176 600 383 582 b 476 501 444 457 460 479 b 618 411 508 493 604 449 l 604 376 b 668 358 629 372 650 365 b 633 246 668 307 657 282 b 553 261 611 253 583 258 b 444 36 535 218 497 131 b 594 90 493 51 543 69 b 867 388 703 135 800 257 l 926 347 b 694 58 890 260 806 131 b 386 -58 601 -1 492 -37 b 163 -274 324 -150 249 -233 b -194 -240 -28 -365 -167 -311 m -51 -204 b 133 -189 -21 -246 63 -244 b 235 -81 168 -162 203 -124 b 60 -89 169 -86 108 -89 b -51 -204 -68 -90 -94 -149 "},"h":{"ha":710,"x_min":0,"x_max":0,"o":"m -51 -17 b -175 51 -108 -11 -150 14 b 196 939 -106 125 203 800 b 340 894 239 951 289 944 b 126 308 350 836 238 549 b 319 499 189 368 257 435 b 321 501 319 500 321 500 b 463 411 353 493 450 449 b 406 146 392 253 356 194 b 711 388 456 99 606 175 l 772 347 b 388 17 719 221 579 13 b 232 325 249 22 193 169 b -14 38 149 249 63 143 b -51 -17 -28 15 -40 -4 "},"ħ":{"ha":710,"x_min":0,"x_max":0,"o":"m -51 -17 b -175 51 -108 -11 -150 14 b 74 553 -135 93 -18 331 b -37 513 36 543 -1 531 b 61 717 -43 593 11 672 b 143 731 89 722 115 726 b 196 939 176 824 197 901 b 340 894 239 951 289 944 b 303 738 344 872 329 814 b 507 700 388 736 460 722 b 465 551 506 632 494 599 b 243 578 414 568 333 581 b 126 308 208 490 167 396 b 319 499 189 368 257 435 b 321 501 319 500 321 500 b 463 411 353 493 450 449 b 406 146 392 253 356 194 b 711 388 456 99 606 175 l 772 347 b 388 17 719 221 579 13 b 232 325 249 22 193 169 b -14 38 149 249 63 143 b -51 -17 -28 15 -40 -4 "},"ḫ":{"ha":710,"x_min":0,"x_max":0,"o":"m -51 -17 b -175 51 -108 -11 -150 14 b 196 939 -106 125 203 800 b 340 894 239 951 289 944 b 126 308 350 836 238 549 b 319 499 189 368 257 435 b 321 501 319 500 321 500 b 463 411 353 493 450 449 b 406 146 392 253 356 194 b 711 388 456 99 606 175 l 772 347 b 388 17 719 221 579 13 b 232 325 249 22 193 169 b -14 38 149 249 63 143 b -51 -17 -28 15 -40 -4 m -51 -128 b 132 -99 25 -51 126 -62 b 315 -101 124 -237 231 -264 b 419 -121 375 -69 428 -90 b -51 -128 307 -329 -7 -358 "},"ĥ":{"ha":710,"x_min":0,"x_max":0,"o":"m -51 -17 b -175 51 -108 -11 -150 14 b 196 939 -106 125 203 800 b 340 894 239 951 289 944 b 126 308 350 836 238 549 b 319 499 189 368 257 435 b 321 501 319 500 321 500 b 463 411 353 493 450 449 b 406 146 392 253 356 194 b 711 388 456 99 606 175 l 772 347 b 388 17 719 221 579 13 b 232 325 249 22 193 169 b -14 38 149 249 63 143 b -51 -17 -28 15 -40 -4 m 353 996 b 544 1176 431 1049 499 1115 b 633 1143 581 1171 622 1160 b 750 982 636 1099 656 1067 b 667 901 735 950 704 913 b 585 1068 650 940 619 1004 b 403 900 553 1036 488 975 b 353 996 379 921 354 956 "},"ḥ":{"ha":710,"x_min":0,"x_max":0,"o":"m -51 -17 b -175 51 -108 -11 -150 14 b 196 939 -106 125 203 800 b 340 894 239 951 289 944 b 126 308 350 836 238 549 b 319 499 189 368 257 435 b 321 501 319 500 321 500 b 463 411 353 493 450 449 b 406 146 392 253 356 194 b 711 388 456 99 606 175 l 772 347 b 388 17 719 221 579 13 b 232 325 249 22 193 169 b -14 38 149 249 63 143 b -51 -17 -28 15 -40 -4 m 10 -231 b 163 -108 32 -211 93 -176 b 293 -199 176 -126 222 -176 b 115 -357 250 -251 182 -319 b 10 -231 79 -325 33 -275 "},"ẖ":{"ha":710,"x_min":0,"x_max":0,"o":"m -51 -17 b -175 51 -108 -11 -150 14 b 196 939 -106 125 203 800 b 340 894 239 951 289 944 b 126 308 350 836 238 549 b 319 499 189 368 257 435 b 321 501 319 500 321 500 b 463 411 353 493 450 449 b 406 146 392 253 356 194 b 711 388 456 99 606 175 l 772 347 b 388 17 719 221 579 13 b 232 325 249 22 193 169 b -14 38 149 249 63 143 b -51 -17 -28 15 -40 -4 m -43 -206 b -3 -122 -43 -183 -22 -147 b 351 -122 125 -135 263 -140 b 336 -250 381 -149 356 -219 b -43 -206 171 -282 -12 -218 "},"i":{"ha":457,"x_min":0,"x_max":0,"o":"m 135 17 b 67 501 -57 24 -89 303 b 210 411 103 493 196 449 b 151 146 140 253 101 194 b 458 388 204 99 353 175 l 519 347 b 135 17 467 221 326 13 m 125 653 b 238 767 125 715 175 767 b 351 653 301 767 351 715 b 238 540 351 589 301 540 b 125 653 175 540 125 589 "},"ı":{"ha":457,"x_min":0,"x_max":0,"o":"m 135 17 b 67 501 -57 24 -89 303 b 210 411 103 493 196 449 b 151 146 140 253 101 194 b 458 388 204 99 353 175 l 519 347 b 135 17 467 221 326 13 "},"í":{"ha":457,"x_min":0,"x_max":0,"o":"m 135 17 b 67 501 -57 24 -89 303 b 210 411 103 493 196 449 b 151 146 140 253 101 194 b 458 388 204 99 353 175 l 519 347 b 135 17 467 221 326 13 m 72 575 b 72 642 57 582 60 618 b 335 878 161 697 268 781 b 404 732 397 886 425 811 b 72 575 322 651 181 599 "},"ǐ":{"ha":457,"x_min":0,"x_max":0,"o":"m 135 17 b 67 501 -57 24 -89 303 b 210 411 103 493 196 449 b 151 146 140 253 101 194 b 458 388 204 99 353 175 l 519 347 b 135 17 467 221 326 13 m 8 758 b 93 838 24 789 54 828 b 176 669 110 799 140 736 b 357 839 208 703 272 764 b 408 743 381 818 406 783 b 215 563 329 690 261 624 b 128 596 179 568 139 579 b 8 758 122 640 103 672 "},"î":{"ha":457,"x_min":0,"x_max":0,"o":"m 135 17 b 67 501 -57 24 -89 303 b 210 411 103 493 196 449 b 151 146 140 253 101 194 b 458 388 204 99 353 175 l 519 347 b 135 17 467 221 326 13 m 7 635 b 199 815 85 688 153 754 b 288 782 235 810 276 799 b 404 621 290 738 310 706 b 321 540 389 589 358 551 b 239 707 304 579 274 643 b 57 539 207 675 142 614 b 7 635 33 560 8 594 "},"ï":{"ha":457,"x_min":0,"x_max":0,"o":"m 135 17 b 67 501 -57 24 -89 303 b 210 411 103 493 196 449 b 151 146 140 253 101 194 b 458 388 204 99 353 175 l 519 347 b 135 17 467 221 326 13 m -28 688 b 125 810 -6 707 57 743 b 222 732 138 793 174 758 b 342 829 253 754 296 785 b 472 739 356 811 401 761 b 294 581 429 686 361 618 b 211 669 269 601 236 635 b 78 561 178 635 132 592 b -28 688 42 594 -6 643 "},"ḯ":{"ha":457,"x_min":0,"x_max":0,"o":"m 135 17 b 67 501 -57 24 -89 303 b 210 411 103 493 196 449 b 151 146 140 253 101 194 b 458 388 204 99 353 175 l 519 347 b 135 17 467 221 326 13 m -28 688 b 125 810 -6 707 57 743 b 222 732 138 793 174 758 b 342 829 253 754 296 785 b 472 739 356 811 401 761 b 294 581 429 686 361 618 b 211 669 269 601 236 635 b 78 561 178 635 132 592 b -28 688 42 594 -6 643 m 174 857 b 174 924 158 864 161 900 b 436 1160 263 979 369 1063 b 506 1014 499 1168 526 1093 b 174 857 424 933 282 881 "},"ị":{"ha":457,"x_min":0,"x_max":0,"o":"m 135 17 b 67 501 -57 24 -89 303 b 210 411 103 493 196 449 b 151 146 140 253 101 194 b 458 388 204 99 353 175 l 519 347 b 135 17 467 221 326 13 m -158 -231 b -6 -108 -136 -211 -75 -176 b 125 -199 8 -126 54 -176 b -53 -357 82 -251 14 -319 b -158 -231 -89 -325 -135 -275 m 125 653 b 238 767 125 715 175 767 b 351 653 301 767 351 715 b 238 540 351 589 301 540 b 125 653 175 540 125 589 "},"ì":{"ha":457,"x_min":0,"x_max":0,"o":"m 135 17 b 67 501 -57 24 -89 303 b 210 411 103 493 196 449 b 151 146 140 253 101 194 b 458 388 204 99 353 175 l 519 347 b 135 17 467 221 326 13 m 74 686 b 206 810 85 746 146 811 b 371 640 233 738 307 679 b 344 586 374 622 361 593 b 74 686 243 596 124 626 "},"ỉ":{"ha":457,"x_min":0,"x_max":0,"o":"m 135 17 b 67 501 -57 24 -89 303 b 210 411 103 493 196 449 b 151 146 140 253 101 194 b 458 388 204 99 353 175 l 519 347 b 135 17 467 221 326 13 m 42 603 b 275 853 254 679 311 807 b 160 867 240 893 189 879 b 147 900 149 871 142 883 b 436 950 258 997 378 1018 b 58 569 507 867 414 678 l 42 603 "},"ĳ":{"ha":907,"x_min":0,"x_max":0,"o":"m 135 17 b 67 501 -57 24 -89 303 b 210 411 103 493 196 449 b 151 146 140 253 101 194 b 458 388 204 99 353 175 l 460 386 b 517 501 482 440 501 482 b 661 411 553 493 644 449 b 604 283 638 357 615 317 b 472 14 592 254 544 135 b 910 388 635 49 840 254 l 969 347 b 378 -126 931 258 728 -37 b 4 -251 221 -374 33 -324 b 263 -57 -40 -144 76 -54 l 271 -57 b 342 99 294 -11 318 43 b 135 17 283 49 214 15 m 119 -203 b 222 -142 128 -225 196 -204 b 119 -203 140 -146 104 -178 m 125 653 b 238 767 125 715 175 767 b 351 653 301 767 351 715 b 238 540 351 589 301 540 b 125 653 175 540 125 589 m 554 653 b 665 767 554 715 604 767 b 781 653 729 767 781 715 b 665 540 781 589 729 540 b 554 653 604 540 554 589 "},"ī":{"ha":457,"x_min":0,"x_max":0,"o":"m 135 17 b 67 501 -57 24 -89 303 b 210 411 103 493 196 449 b 151 146 140 253 101 194 b 458 388 204 99 353 175 l 519 347 b 135 17 467 221 326 13 m -22 636 b 18 719 -22 658 -1 693 b 372 718 146 707 283 701 b 357 590 401 692 376 621 b -22 636 192 558 8 622 "},"į":{"ha":457,"x_min":0,"x_max":0,"o":"m 244 838 b 375 747 258 819 304 769 b 197 589 332 694 264 626 b 92 715 161 622 115 671 b 244 838 114 735 175 769 m -175 -308 b 79 28 -237 -236 -174 -82 b 67 501 -61 81 -72 324 b 210 411 103 493 196 449 b 151 146 140 253 101 194 b 458 388 204 99 353 175 l 519 347 b 169 18 469 229 343 38 b -14 -211 -3 -58 -47 -169 b 101 -225 21 -251 72 -237 b 114 -258 113 -229 119 -242 b -175 -308 4 -356 -117 -376 "},"ɨ":{"ha":457,"x_min":0,"x_max":0,"o":"m 135 17 b -31 261 15 21 -42 131 b -143 213 -69 250 -107 235 b -65 417 -147 293 -104 372 b 22 433 -36 424 -7 429 b 67 501 35 457 50 479 b 196 431 97 494 165 463 b 286 400 232 424 263 414 b 254 251 286 332 276 299 b 150 275 228 263 192 271 b 151 146 124 213 119 176 b 458 388 204 99 353 175 l 519 347 b 135 17 467 221 326 13 m 92 715 b 244 838 114 735 175 769 b 375 747 258 819 304 769 b 197 589 332 694 264 626 b 92 715 161 622 115 671 "},"ĩ":{"ha":457,"x_min":0,"x_max":0,"o":"m 135 17 b 67 501 -57 24 -89 303 b 210 411 103 493 196 449 b 151 146 140 253 101 194 b 458 388 204 99 353 175 l 519 347 b 135 17 467 221 326 13 m -4 717 b 274 713 249 940 207 686 b 344 790 314 728 336 761 b 475 732 407 817 488 810 b 215 601 379 624 253 592 b 156 722 169 608 182 725 b 86 599 126 718 92 649 b -4 717 25 583 -12 668 "},"j":{"ha":450,"x_min":0,"x_max":0,"o":"m -337 -203 b -235 -142 -329 -225 -261 -204 b -337 -203 -317 -146 -353 -178 m -453 -251 b -194 -57 -497 -144 -381 -54 l -187 -57 b 60 501 -90 131 11 438 b 204 411 96 493 188 449 b 147 283 181 357 158 317 b 15 14 135 254 88 135 b 453 388 178 49 383 254 l 513 347 b -81 -126 474 258 271 -37 b -453 -251 -237 -374 -424 -324 m 97 653 b 208 767 97 715 147 767 b 324 653 272 767 324 715 b 208 540 324 589 272 540 b 97 653 147 540 97 589 "},"ȷ":{"ha":450,"x_min":0,"x_max":0,"o":"m -337 -203 b -235 -142 -329 -225 -261 -204 b -337 -203 -317 -146 -353 -178 m -453 -251 b -194 -57 -497 -144 -381 -54 l -187 -57 b 60 501 -90 131 11 438 b 204 411 96 493 188 449 b 147 283 181 357 158 317 b 15 14 135 254 88 135 b 453 388 178 49 383 254 l 513 347 b -81 -126 474 258 271 -37 b -453 -251 -237 -374 -424 -324 "},"ĵ":{"ha":450,"x_min":0,"x_max":0,"o":"m -337 -203 b -235 -142 -329 -225 -261 -204 b -337 -203 -317 -146 -353 -178 m -453 -251 b -194 -57 -497 -144 -381 -54 l -187 -57 b 60 501 -90 131 11 438 b 204 411 96 493 188 449 b 147 283 181 357 158 317 b 15 14 135 254 88 135 b 453 388 178 49 383 254 l 513 347 b -81 -126 474 258 271 -37 b -453 -251 -237 -374 -424 -324 m -19 610 b 174 790 60 663 128 729 b 263 757 210 785 251 774 b 379 596 265 713 285 681 b 296 515 364 564 333 526 b 214 682 279 554 249 618 b 32 514 182 650 117 589 b -19 610 8 535 -17 569 "},"k":{"ha":724,"x_min":0,"x_max":0,"o":"m -51 -17 b -176 51 -111 -11 -151 14 b 196 939 -107 125 203 800 b 338 894 238 951 288 944 b 124 304 347 836 236 546 b 446 547 236 347 374 429 b 565 464 479 540 551 503 b 264 285 501 349 369 297 b 403 119 260 175 310 124 b 725 388 471 117 618 176 l 788 347 b 372 -18 732 221 564 -6 b 122 301 156 -31 103 133 b -51 -17 56 158 -11 32 "},"ǩ":{"ha":724,"x_min":0,"x_max":0,"o":"m -51 -17 b -176 51 -111 -11 -151 14 b 196 939 -107 125 203 800 b 338 894 238 951 288 944 b 124 304 347 836 236 546 b 446 547 236 347 374 429 b 565 464 479 540 551 503 b 264 285 501 349 369 297 b 403 119 260 175 310 124 b 725 388 471 117 618 176 l 788 347 b 372 -18 732 221 564 -6 b 122 301 156 -31 103 133 b -51 -17 56 158 -11 32 m 328 974 b 413 1053 343 1004 374 1043 b 496 885 429 1014 460 951 b 676 1054 528 918 592 979 b 728 958 700 1033 725 999 b 535 778 649 906 581 839 b 447 811 499 783 458 794 b 328 974 442 856 422 888 "},"ķ":{"ha":724,"x_min":0,"x_max":0,"o":"m -51 -17 b -176 51 -111 -11 -151 14 b 196 939 -107 125 203 800 b 338 894 238 951 288 944 b 124 304 347 836 236 546 b 446 547 236 347 374 429 b 565 464 479 540 551 503 b 264 285 501 349 369 297 b 403 119 260 175 310 124 b 725 388 471 117 618 176 l 788 347 b 372 -18 732 221 564 -6 b 122 301 156 -31 103 133 b -51 -17 56 158 -11 32 m -99 -307 b 7 -208 -50 -272 -15 -236 b -57 -147 -18 -193 -42 -174 b 93 3 -35 -101 15 -40 b 181 -114 125 -24 165 -68 b -75 -353 136 -212 22 -300 b -99 -307 -87 -343 -103 -325 "},"ḵ":{"ha":724,"x_min":0,"x_max":0,"o":"m -51 -17 b -176 51 -111 -11 -151 14 b 196 939 -107 125 203 800 b 338 894 238 951 288 944 b 124 304 347 836 236 546 b 446 547 236 347 374 429 b 565 464 479 540 551 503 b 264 285 501 349 369 297 b 403 119 260 175 310 124 b 725 388 471 117 618 176 l 788 347 b 372 -18 732 221 564 -6 b 122 301 156 -31 103 133 b -51 -17 56 158 -11 32 m -135 -129 b -94 -46 -135 -107 -114 -71 b 260 -46 33 -58 171 -64 b 244 -174 289 -72 264 -143 b -135 -129 79 -206 -104 -142 "},"l":{"ha":499,"x_min":0,"x_max":0,"o":"m 160 17 b 331 1004 -200 60 40 671 b 497 890 389 1003 483 929 b 144 131 121 461 28 188 b 501 388 232 88 394 175 l 561 347 b 160 17 507 221 350 -7 "},"ĺ":{"ha":499,"x_min":0,"x_max":0,"o":"m 160 17 b 331 1004 -200 60 40 671 b 497 890 389 1003 483 929 b 144 131 121 461 28 188 b 501 388 232 88 394 175 l 561 347 b 160 17 507 221 350 -7 m 356 1008 b 356 1075 340 1015 343 1051 b 618 1311 444 1131 551 1214 b 688 1165 681 1319 708 1244 b 356 1008 606 1085 464 1032 "},"ľ":{"ha":499,"x_min":0,"x_max":0,"o":"m 160 17 b 331 1004 -200 60 40 671 b 497 890 389 1003 483 929 b 144 131 121 461 28 188 b 501 388 232 88 394 175 l 561 347 b 160 17 507 221 350 -7 m 540 929 b 774 932 593 967 685 1008 b 643 611 717 885 635 715 b 551 596 624 593 578 590 b 540 929 540 618 503 763 "},"ļ":{"ha":499,"x_min":0,"x_max":0,"o":"m 160 17 b 331 1004 -200 60 40 671 b 497 890 389 1003 483 929 b 144 131 121 461 28 188 b 501 388 232 88 394 175 l 561 347 b 160 17 507 221 350 -7 m -112 -383 b -7 -285 -64 -349 -29 -312 b -71 -224 -32 -269 -56 -250 b 79 -74 -49 -178 1 -117 b 167 -190 111 -100 151 -144 b -89 -429 122 -289 8 -376 b -112 -383 -101 -419 -117 -401 "},"ḷ":{"ha":499,"x_min":0,"x_max":0,"o":"m 160 17 b 331 1004 -200 60 40 671 b 497 890 389 1003 483 929 b 144 131 121 461 28 188 b 501 388 232 88 394 175 l 561 347 b 160 17 507 221 350 -7 m -96 -231 b 57 -108 -74 -211 -12 -176 b 188 -199 71 -126 117 -176 b 10 -357 144 -251 76 -319 b -96 -231 -26 -325 -72 -275 "},"ḹ":{"ha":499,"x_min":0,"x_max":0,"o":"m 160 17 b 331 1004 -200 60 40 671 b 497 890 389 1003 483 929 b 144 131 121 461 28 188 b 501 388 232 88 394 175 l 561 347 b 160 17 507 221 350 -7 m -96 -231 b 57 -108 -74 -211 -12 -176 b 188 -199 71 -126 117 -176 b 10 -357 144 -251 76 -319 b -96 -231 -26 -325 -72 -275 m 263 1069 b 301 1153 263 1092 282 1126 b 656 1151 429 1140 567 1135 b 640 1024 685 1125 660 1054 b 263 1069 475 992 292 1056 "},"ḻ":{"ha":499,"x_min":0,"x_max":0,"o":"m 160 17 b 331 1004 -200 60 40 671 b 497 890 389 1003 483 929 b 144 131 121 461 28 188 b 501 388 232 88 394 175 l 561 347 b 160 17 507 221 350 -7 m -149 -206 b -108 -122 -149 -183 -128 -147 b 246 -122 19 -135 157 -140 b 231 -250 275 -149 250 -219 b -149 -206 65 -282 -118 -218 "},"ł":{"ha":499,"x_min":0,"x_max":0,"o":"m 160 17 b 157 761 -124 50 -35 436 b -47 703 89 753 18 735 b 51 907 -53 783 1 863 b 269 929 126 922 201 929 b 331 1004 289 956 310 981 b 497 890 389 1003 483 929 b 456 742 496 822 485 789 b 386 758 436 749 413 754 b 144 131 103 406 40 182 b 501 388 232 88 394 175 l 561 347 b 160 17 507 221 350 -7 "},"m":{"ha":1022,"x_min":0,"x_max":0,"o":"m -6 -17 b -129 50 -62 -11 -103 14 b 11 499 -58 128 18 363 b 153 453 56 510 104 503 b 144 326 158 424 154 378 b 272 467 182 369 225 417 l 275 467 b 275 468 275 467 275 468 b 415 422 317 481 367 471 b 407 269 421 389 419 329 b 629 499 474 338 554 419 b 631 501 629 500 631 500 b 774 411 667 493 758 449 b 717 146 704 253 664 194 b 1024 388 768 99 917 175 l 1086 347 b 699 17 1031 221 890 13 b 547 336 557 22 503 176 b 346 -17 464 254 381 121 b 222 51 289 -11 249 14 b 275 368 254 161 271 267 b 76 117 206 307 142 215 b -6 -17 53 67 25 21 "},"ḿ":{"ha":1022,"x_min":0,"x_max":0,"o":"m -6 -17 b -129 50 -62 -11 -103 14 b 11 499 -58 128 18 363 b 153 453 56 510 104 503 b 144 326 158 424 154 378 b 272 467 182 369 225 417 l 275 467 b 275 468 275 467 275 468 b 415 422 317 481 367 471 b 407 269 421 389 419 329 b 629 499 474 338 554 419 b 631 501 629 500 631 500 b 774 411 667 493 758 449 b 717 146 704 253 664 194 b 1024 388 768 99 917 175 l 1086 347 b 699 17 1031 221 890 13 b 547 336 557 22 503 176 b 346 -17 464 254 381 121 b 222 51 289 -11 249 14 b 275 368 254 161 271 267 b 76 117 206 307 142 215 b -6 -17 53 67 25 21 m 322 526 b 322 593 307 533 310 569 b 585 829 411 649 518 732 b 654 683 647 838 675 763 b 322 526 572 603 431 550 "},"ṁ":{"ha":1022,"x_min":0,"x_max":0,"o":"m -6 -17 b -129 50 -62 -11 -103 14 b 11 499 -58 128 18 363 b 153 453 56 510 104 503 b 144 326 158 424 154 378 b 272 467 182 369 225 417 l 275 467 b 275 468 275 467 275 468 b 415 422 317 481 367 471 b 407 269 421 389 419 329 b 629 499 474 338 554 419 b 631 501 629 500 631 500 b 774 411 667 493 758 449 b 717 146 704 253 664 194 b 1024 388 768 99 917 175 l 1086 347 b 699 17 1031 221 890 13 b 547 336 557 22 503 176 b 346 -17 464 254 381 121 b 222 51 289 -11 249 14 b 275 368 254 161 271 267 b 76 117 206 307 142 215 b -6 -17 53 67 25 21 m 342 667 b 494 789 364 686 425 721 b 625 699 508 771 554 721 b 447 540 582 646 514 578 b 342 667 411 574 365 622 "},"ṃ":{"ha":1022,"x_min":0,"x_max":0,"o":"m -6 -17 b -129 50 -62 -11 -103 14 b 11 499 -58 128 18 363 b 153 453 56 510 104 503 b 144 326 158 424 154 378 b 272 467 182 369 225 417 l 275 467 b 275 468 275 467 275 468 b 415 422 317 481 367 471 b 407 269 421 389 419 329 b 629 499 474 338 554 419 b 631 501 629 500 631 500 b 774 411 667 493 758 449 b 717 146 704 253 664 194 b 1024 388 768 99 917 175 l 1086 347 b 699 17 1031 221 890 13 b 547 336 557 22 503 176 b 346 -17 464 254 381 121 b 222 51 289 -11 249 14 b 275 368 254 161 271 267 b 76 117 206 307 142 215 b -6 -17 53 67 25 21 m 76 -176 b 229 -54 99 -157 160 -122 b 360 -144 243 -72 289 -122 b 182 -303 317 -197 249 -265 b 76 -176 146 -271 100 -221 "},"n":{"ha":786,"x_min":0,"x_max":0,"o":"m 25 -17 b -97 50 -32 -11 -72 14 b 3 503 -31 128 11 367 b 144 457 46 514 96 507 b 133 244 153 413 150 332 b 396 499 215 319 311 410 b 397 501 396 500 397 500 b 540 411 429 493 526 449 b 481 146 469 253 431 194 b 789 388 533 99 683 175 l 849 347 b 465 17 797 222 656 13 b 310 326 326 22 271 169 b 60 33 225 249 136 142 b 28 -14 50 17 39 0 l 26 -15 b 26 -15 26 -15 26 -15 l 25 -17 "},"ń":{"ha":786,"x_min":0,"x_max":0,"o":"m 25 -17 b -97 50 -32 -11 -72 14 b 3 503 -31 128 11 367 b 144 457 46 514 96 507 b 133 244 153 413 150 332 b 396 499 215 319 311 410 b 397 501 396 500 397 500 b 540 411 429 493 526 449 b 481 146 469 253 431 194 b 789 388 533 99 683 175 l 849 347 b 465 17 797 222 656 13 b 310 326 326 22 271 169 b 60 33 225 249 136 142 b 28 -14 50 17 39 0 l 26 -15 b 26 -15 26 -15 26 -15 l 25 -17 m 197 553 b 197 619 182 560 185 596 b 460 856 286 675 393 758 b 529 710 522 864 550 789 b 197 553 447 629 306 576 "},"ň":{"ha":786,"x_min":0,"x_max":0,"o":"m 25 -17 b -97 50 -32 -11 -72 14 b 3 503 -31 128 11 367 b 144 457 46 514 96 507 b 133 244 153 413 150 332 b 396 499 215 319 311 410 b 397 501 396 500 397 500 b 540 411 429 493 526 449 b 481 146 469 253 431 194 b 789 388 533 99 683 175 l 849 347 b 465 17 797 222 656 13 b 310 326 326 22 271 169 b 60 33 225 249 136 142 b 28 -14 50 17 39 0 l 26 -15 b 26 -15 26 -15 26 -15 l 25 -17 m 133 736 b 218 815 149 767 179 806 b 301 647 235 776 265 714 b 482 817 333 681 397 742 b 533 721 506 796 531 761 b 340 540 454 668 386 601 b 253 574 304 546 264 557 b 133 736 247 618 228 650 "},"ņ":{"ha":786,"x_min":0,"x_max":0,"o":"m 25 -17 b -97 50 -32 -11 -72 14 b 3 503 -31 128 11 367 b 144 457 46 514 96 507 b 133 244 153 413 150 332 b 396 499 215 319 311 410 b 397 501 396 500 397 500 b 540 411 429 493 526 449 b 481 146 469 253 431 194 b 789 388 533 99 683 175 l 849 347 b 465 17 797 222 656 13 b 310 326 326 22 271 169 b 60 33 225 249 136 142 b 28 -14 50 17 39 0 l 26 -15 b 26 -15 26 -15 26 -15 l 25 -17 m -39 -333 b 67 -235 10 -299 44 -262 b 3 -174 42 -219 18 -200 b 153 -24 25 -128 75 -67 b 240 -140 185 -50 225 -94 b -15 -379 196 -239 82 -326 b -39 -333 -28 -369 -43 -351 "},"ṅ":{"ha":786,"x_min":0,"x_max":0,"o":"m 25 -17 b -97 50 -32 -11 -72 14 b 3 503 -31 128 11 367 b 144 457 46 514 96 507 b 133 244 153 413 150 332 b 396 499 215 319 311 410 b 397 501 396 500 397 500 b 540 411 429 493 526 449 b 481 146 469 253 431 194 b 789 388 533 99 683 175 l 849 347 b 465 17 797 222 656 13 b 310 326 326 22 271 169 b 60 33 225 249 136 142 b 28 -14 50 17 39 0 l 26 -15 b 26 -15 26 -15 26 -15 l 25 -17 m 217 693 b 369 815 239 713 300 747 b 500 725 383 797 429 747 b 322 567 457 672 389 604 b 217 693 286 600 240 649 "},"ṇ":{"ha":786,"x_min":0,"x_max":0,"o":"m 25 -17 b -97 50 -32 -11 -72 14 b 3 503 -31 128 11 367 b 144 457 46 514 96 507 b 133 244 153 413 150 332 b 396 499 215 319 311 410 b 397 501 396 500 397 500 b 540 411 429 493 526 449 b 481 146 469 253 431 194 b 789 388 533 99 683 175 l 849 347 b 465 17 797 222 656 13 b 310 326 326 22 271 169 b 60 33 225 249 136 142 b 28 -14 50 17 39 0 l 26 -15 b 26 -15 26 -15 26 -15 l 25 -17 m -22 -181 b 131 -58 0 -161 61 -126 b 261 -149 144 -76 190 -126 b 83 -307 218 -201 150 -269 b -22 -181 47 -275 1 -225 "},"ṉ":{"ha":786,"x_min":0,"x_max":0,"o":"m 25 -17 b -97 50 -32 -11 -72 14 b 3 503 -31 128 11 367 b 144 457 46 514 96 507 b 133 244 153 413 150 332 b 396 499 215 319 311 410 b 397 501 396 500 397 500 b 540 411 429 493 526 449 b 481 146 469 253 431 194 b 789 388 533 99 683 175 l 849 347 b 465 17 797 222 656 13 b 310 326 326 22 271 169 b 60 33 225 249 136 142 b 28 -14 50 17 39 0 l 26 -15 b 26 -15 26 -15 26 -15 l 25 -17 m -75 -156 b -35 -72 -75 -133 -54 -97 b 319 -72 93 -85 231 -90 b 304 -200 349 -99 324 -169 b -75 -156 139 -232 -44 -168 "},"ñ":{"ha":786,"x_min":0,"x_max":0,"o":"m 25 -17 b -97 50 -32 -11 -72 14 b 3 503 -31 128 11 367 b 144 457 46 514 96 507 b 133 244 153 413 150 332 b 396 499 215 319 311 410 b 397 501 396 500 397 500 b 540 411 429 493 526 449 b 481 146 469 253 431 194 b 789 388 533 99 683 175 l 849 347 b 465 17 797 222 656 13 b 310 326 326 22 271 169 b 60 33 225 249 136 142 b 28 -14 50 17 39 0 l 26 -15 b 26 -15 26 -15 26 -15 l 25 -17 m 121 694 b 399 690 374 918 332 664 b 469 768 439 706 461 739 b 600 710 532 794 613 788 b 340 579 504 601 378 569 b 281 700 294 586 307 703 b 211 576 251 696 217 626 b 121 694 150 561 113 646 "},"ŋ":{"ha":786,"x_min":0,"x_max":0,"o":"m 25 -17 b -97 50 -32 -11 -72 14 b 3 503 -31 128 11 367 b 144 457 46 514 96 507 b 133 244 153 413 150 332 b 394 500 215 319 311 410 l 396 499 b 397 501 396 500 397 500 b 542 411 433 493 525 449 b 485 283 518 357 496 317 b 353 14 472 254 425 135 b 790 388 515 49 721 254 l 850 347 b 258 -126 811 258 608 -37 b -115 -251 101 -374 -86 -324 b 143 -57 -160 -144 -43 -54 l 151 -57 b 318 335 210 57 269 214 b 60 33 231 256 139 144 b 28 -14 50 17 39 0 l 26 -15 b 26 -15 26 -15 26 -15 l 25 -17 m 0 -203 b 101 -142 8 -225 75 -204 b 0 -203 19 -146 -15 -178 "},"o":{"ha":690,"x_min":0,"x_max":0,"o":"m 157 17 b 256 583 -203 60 -6 583 b 314 524 285 583 301 556 b 479 492 356 579 429 588 b 497 342 497 458 500 399 b 692 388 568 325 651 328 l 753 347 b 478 265 715 264 589 246 b 157 17 421 144 329 -4 m 142 131 b 376 293 215 93 328 178 b 290 349 354 292 313 321 b 279 433 281 378 278 407 b 142 131 118 392 39 182 "},"ó":{"ha":690,"x_min":0,"x_max":0,"o":"m 157 17 b 256 583 -203 60 -6 583 b 314 524 285 583 301 556 b 479 492 356 579 429 588 b 497 342 497 458 500 399 b 692 388 568 325 651 328 l 753 347 b 478 265 715 264 589 246 b 157 17 421 144 329 -4 m 142 131 b 376 293 215 93 328 178 b 290 349 354 292 313 321 b 279 433 281 378 278 407 b 142 131 118 392 39 182 m 232 657 b 232 724 217 664 219 700 b 494 960 321 779 428 863 b 564 814 557 968 585 893 b 232 657 482 733 340 681 "},"ǒ":{"ha":690,"x_min":0,"x_max":0,"o":"m 157 17 b 256 583 -203 60 -6 583 b 314 524 285 583 301 556 b 479 492 356 579 429 588 b 497 342 497 458 500 399 b 692 388 568 325 651 328 l 753 347 b 478 265 715 264 589 246 b 157 17 421 144 329 -4 m 142 131 b 376 293 215 93 328 178 b 290 349 354 292 313 321 b 279 433 281 378 278 407 b 142 131 118 392 39 182 m 168 840 b 253 919 183 871 214 910 b 336 751 269 881 300 818 b 517 921 368 785 432 846 b 568 825 540 900 565 865 b 375 644 489 772 421 706 b 288 678 339 650 299 661 b 168 840 282 722 263 754 "},"ô":{"ha":690,"x_min":0,"x_max":0,"o":"m 157 17 b 256 583 -203 60 -6 583 b 314 524 285 583 301 556 b 479 492 356 579 429 588 b 497 342 497 458 500 399 b 692 388 568 325 651 328 l 753 347 b 478 265 715 264 589 246 b 157 17 421 144 329 -4 m 142 131 b 376 293 215 93 328 178 b 290 349 354 292 313 321 b 279 433 281 378 278 407 b 142 131 118 392 39 182 m 167 717 b 358 897 244 769 313 836 b 447 864 394 892 436 881 b 564 703 450 819 469 788 b 481 622 549 671 518 633 b 399 789 464 661 433 725 b 217 621 367 757 301 696 b 167 717 193 642 168 676 "},"ố":{"ha":690,"x_min":0,"x_max":0,"o":"m 157 17 b 256 583 -203 60 -6 583 b 314 524 285 583 301 556 b 479 492 356 579 429 588 b 497 342 497 458 500 399 b 692 388 568 325 651 328 l 753 347 b 478 265 715 264 589 246 b 157 17 421 144 329 -4 m 139 703 b 331 883 217 756 285 822 b 419 850 367 878 408 867 b 536 689 422 806 442 774 b 453 608 521 657 490 619 b 371 775 436 647 406 711 b 189 607 339 743 274 682 b 139 703 165 628 140 663 m 142 131 b 376 293 215 93 328 178 b 290 349 354 292 313 321 b 279 433 281 378 278 407 b 142 131 118 392 39 182 m 317 910 b 317 976 301 917 304 953 b 579 1213 406 1032 513 1115 b 649 1067 642 1221 669 1146 b 317 910 567 986 425 933 "},"ộ":{"ha":690,"x_min":0,"x_max":0,"o":"m 157 17 b 256 583 -203 60 -6 583 b 314 524 285 583 301 556 b 479 492 356 579 429 588 b 497 342 497 458 500 399 b 692 388 568 325 651 328 l 753 347 b 478 265 715 264 589 246 b 157 17 421 144 329 -4 m -19 -147 b 133 -25 3 -128 64 -93 b 264 -115 147 -43 193 -93 b 86 -274 221 -168 153 -236 b -19 -147 50 -242 4 -192 m 142 131 b 376 293 215 93 328 178 b 290 349 354 292 313 321 b 279 433 281 378 278 407 b 142 131 118 392 39 182 m 167 717 b 358 897 244 769 313 836 b 447 864 394 892 436 881 b 564 703 450 819 469 788 b 481 622 549 671 518 633 b 399 789 464 661 433 725 b 217 621 367 757 301 696 b 167 717 193 642 168 676 "},"ồ":{"ha":690,"x_min":0,"x_max":0,"o":"m 157 17 b 256 583 -203 60 -6 583 b 314 524 285 583 301 556 b 479 492 356 579 429 588 b 497 342 497 458 500 399 b 692 388 568 325 651 328 l 753 347 b 478 265 715 264 589 246 b 157 17 421 144 329 -4 m 142 131 b 376 293 215 93 328 178 b 290 349 354 292 313 321 b 279 433 281 378 278 407 b 142 131 118 392 39 182 m 149 722 b 340 903 226 775 294 842 b 429 869 376 897 418 886 b 546 708 432 825 451 793 b 463 628 531 676 500 639 b 381 794 446 667 415 731 b 199 626 349 763 283 701 b 149 722 175 647 150 682 m 328 1040 b 460 1164 339 1100 400 1165 b 625 994 488 1092 561 1033 b 599 940 628 976 615 947 b 328 1040 497 950 378 981 "},"ổ":{"ha":690,"x_min":0,"x_max":0,"o":"m 157 17 b 256 583 -203 60 -6 583 b 314 524 285 583 301 556 b 479 492 356 579 429 588 b 497 342 497 458 500 399 b 692 388 568 325 651 328 l 753 347 b 478 265 715 264 589 246 b 157 17 421 144 329 -4 m 142 131 b 376 293 215 93 328 178 b 290 349 354 292 313 321 b 279 433 281 378 278 407 b 142 131 118 392 39 182 m 172 736 b 364 917 250 789 318 856 b 453 883 400 911 442 900 b 569 722 456 839 475 807 b 486 642 554 690 524 653 b 404 808 469 681 439 744 b 222 640 372 776 307 715 b 172 736 199 661 174 696 m 319 971 b 553 1221 532 1047 589 1175 b 438 1235 518 1261 467 1247 b 425 1268 426 1239 419 1251 b 714 1318 536 1365 656 1386 b 336 938 785 1235 692 1046 l 319 971 "},"ỗ":{"ha":690,"x_min":0,"x_max":0,"o":"m 157 17 b 256 583 -203 60 -6 583 b 314 524 285 583 301 556 b 479 492 356 579 429 588 b 497 342 497 458 500 399 b 692 388 568 325 651 328 l 753 347 b 478 265 715 264 589 246 b 157 17 421 144 329 -4 m 142 131 b 376 293 215 93 328 178 b 290 349 354 292 313 321 b 279 433 281 378 278 407 b 142 131 118 392 39 182 m 167 747 b 358 928 244 800 313 867 b 447 894 394 922 436 911 b 564 733 450 850 469 818 b 481 653 549 701 518 664 b 399 819 464 692 433 756 b 217 651 367 788 301 726 b 167 747 193 672 168 707 m 268 1096 b 546 1092 521 1319 479 1065 b 617 1169 586 1107 608 1140 b 747 1111 679 1196 760 1189 b 488 981 651 1003 525 971 b 428 1101 442 988 454 1104 b 358 978 399 1097 364 1028 b 268 1096 297 963 260 1047 "},"ö":{"ha":690,"x_min":0,"x_max":0,"o":"m 157 17 b 256 583 -203 60 -6 583 b 314 524 285 583 301 556 b 479 492 356 579 429 588 b 497 342 497 458 500 399 b 692 388 568 325 651 328 l 753 347 b 478 265 715 264 589 246 b 157 17 421 144 329 -4 m 132 769 b 285 892 154 789 217 825 b 382 814 297 875 333 840 b 501 911 413 836 456 867 b 632 821 515 893 561 843 b 454 663 589 768 521 700 b 371 751 429 683 396 717 b 238 643 338 717 292 674 b 132 769 201 676 154 725 m 142 131 b 376 293 215 93 328 178 b 290 349 354 292 313 321 b 279 433 281 378 278 407 b 142 131 118 392 39 182 "},"ȫ":{"ha":690,"x_min":0,"x_max":0,"o":"m 157 17 b 256 583 -203 60 -6 583 b 314 524 285 583 301 556 b 479 492 356 579 429 588 b 497 342 497 458 500 399 b 692 388 568 325 651 328 l 753 347 b 478 265 715 264 589 246 b 157 17 421 144 329 -4 m 132 769 b 285 892 154 789 217 825 b 382 814 297 875 333 840 b 501 911 413 836 456 867 b 632 821 515 893 561 843 b 454 663 589 768 521 700 b 371 751 429 683 396 717 b 238 643 338 717 292 674 b 132 769 201 676 154 725 m 142 131 b 376 293 215 93 328 178 b 290 349 354 292 313 321 b 279 433 281 378 278 407 b 142 131 118 392 39 182 m 240 1000 b 279 1083 240 1022 260 1057 b 633 1082 407 1071 544 1065 b 618 954 663 1056 638 985 b 240 1000 453 922 269 986 "},"ọ":{"ha":690,"x_min":0,"x_max":0,"o":"m 157 17 b 256 583 -203 60 -6 583 b 314 524 285 583 301 556 b 479 492 356 579 429 588 b 497 342 497 458 500 399 b 692 388 568 325 651 328 l 753 347 b 478 265 715 264 589 246 b 157 17 421 144 329 -4 m -19 -147 b 133 -25 3 -128 64 -93 b 264 -115 147 -43 193 -93 b 86 -274 221 -168 153 -236 b -19 -147 50 -242 4 -192 m 142 131 b 376 293 215 93 328 178 b 290 349 354 292 313 321 b 279 433 281 378 278 407 b 142 131 118 392 39 182 "},"ò":{"ha":690,"x_min":0,"x_max":0,"o":"m 157 17 b 256 583 -203 60 -6 583 b 314 524 285 583 301 556 b 479 492 356 579 429 588 b 497 342 497 458 500 399 b 692 388 568 325 651 328 l 753 347 b 478 265 715 264 589 246 b 157 17 421 144 329 -4 m 142 131 b 376 293 215 93 328 178 b 290 349 354 292 313 321 b 279 433 281 378 278 407 b 142 131 118 392 39 182 m 233 768 b 365 892 244 828 306 893 b 531 722 393 819 467 761 b 504 668 533 704 521 675 b 233 768 403 678 283 708 "},"ỏ":{"ha":690,"x_min":0,"x_max":0,"o":"m 157 17 b 256 583 -203 60 -6 583 b 314 524 285 583 301 556 b 479 492 356 579 429 588 b 497 342 497 458 500 399 b 692 388 568 325 651 328 l 753 347 b 478 265 715 264 589 246 b 157 17 421 144 329 -4 m 142 131 b 376 293 215 93 328 178 b 290 349 354 292 313 321 b 279 433 281 378 278 407 b 142 131 118 392 39 182 m 201 685 b 435 935 414 761 471 889 b 319 949 400 975 349 961 b 307 982 308 953 301 965 b 596 1032 418 1079 538 1100 b 218 651 667 949 574 760 l 201 685 "},"ơ":{"ha":690,"x_min":0,"x_max":0,"o":"m 157 17 b 256 583 -203 60 -6 583 b 314 524 285 583 301 556 b 453 532 349 569 406 583 b 814 769 560 504 740 563 l 847 751 b 499 390 760 461 632 347 b 497 342 499 374 499 357 b 692 388 568 325 651 328 l 753 347 b 478 265 715 264 589 246 b 157 17 421 144 329 -4 m 142 131 b 376 293 215 93 328 178 b 290 349 354 292 313 321 b 279 433 281 378 278 407 b 142 131 118 392 39 182 "},"ớ":{"ha":690,"x_min":0,"x_max":0,"o":"m 157 17 b 256 583 -203 60 -6 583 b 314 524 285 583 301 556 b 453 532 349 569 406 583 b 814 769 560 504 740 563 l 847 751 b 499 390 760 461 632 347 b 497 342 499 374 499 357 b 692 388 568 325 651 328 l 753 347 b 478 265 715 264 589 246 b 157 17 421 144 329 -4 m 142 131 b 376 293 215 93 328 178 b 290 349 354 292 313 321 b 279 433 281 378 278 407 b 142 131 118 392 39 182 m 232 657 b 232 724 217 664 219 700 b 494 960 321 779 428 863 b 564 814 557 968 585 893 b 232 657 482 733 340 681 "},"ợ":{"ha":690,"x_min":0,"x_max":0,"o":"m 157 17 b 256 583 -203 60 -6 583 b 314 524 285 583 301 556 b 453 532 349 569 406 583 b 814 769 560 504 740 563 l 847 751 b 499 390 760 461 632 347 b 497 342 499 374 499 357 b 692 388 568 325 651 328 l 753 347 b 478 265 715 264 589 246 b 157 17 421 144 329 -4 m -19 -147 b 133 -25 3 -128 64 -93 b 264 -115 147 -43 193 -93 b 86 -274 221 -168 153 -236 b -19 -147 50 -242 4 -192 m 142 131 b 376 293 215 93 328 178 b 290 349 354 292 313 321 b 279 433 281 378 278 407 b 142 131 118 392 39 182 "},"ờ":{"ha":690,"x_min":0,"x_max":0,"o":"m 157 17 b 256 583 -203 60 -6 583 b 314 524 285 583 301 556 b 453 532 349 569 406 583 b 814 769 560 504 740 563 l 847 751 b 499 390 760 461 632 347 b 497 342 499 374 499 357 b 692 388 568 325 651 328 l 753 347 b 478 265 715 264 589 246 b 157 17 421 144 329 -4 m 142 131 b 376 293 215 93 328 178 b 290 349 354 292 313 321 b 279 433 281 378 278 407 b 142 131 118 392 39 182 m 233 768 b 365 892 244 828 306 893 b 531 722 393 819 467 761 b 504 668 533 704 521 675 b 233 768 403 678 283 708 "},"ở":{"ha":690,"x_min":0,"x_max":0,"o":"m 157 17 b 256 583 -203 60 -6 583 b 314 524 285 583 301 556 b 453 532 349 569 406 583 b 814 769 560 504 740 563 l 847 751 b 499 390 760 461 632 347 b 497 342 499 374 499 357 b 692 388 568 325 651 328 l 753 347 b 478 265 715 264 589 246 b 157 17 421 144 329 -4 m 142 131 b 376 293 215 93 328 178 b 290 349 354 292 313 321 b 279 433 281 378 278 407 b 142 131 118 392 39 182 m 201 685 b 435 935 414 761 471 889 b 319 949 400 975 349 961 b 307 982 308 953 301 965 b 596 1032 418 1079 538 1100 b 218 651 667 949 574 760 l 201 685 "},"ỡ":{"ha":690,"x_min":0,"x_max":0,"o":"m 157 17 b 256 583 -203 60 -6 583 b 314 524 285 583 301 556 b 453 532 349 569 406 583 b 814 769 560 504 740 563 l 847 751 b 499 390 760 461 632 347 b 497 342 499 374 499 357 b 692 388 568 325 651 328 l 753 347 b 478 265 715 264 589 246 b 157 17 421 144 329 -4 m 142 131 b 376 293 215 93 328 178 b 290 349 354 292 313 321 b 279 433 281 378 278 407 b 142 131 118 392 39 182 m 156 799 b 433 794 408 1022 367 768 b 504 872 474 810 496 843 b 635 814 567 899 647 892 b 375 683 539 706 413 674 b 315 804 329 690 342 807 b 246 681 286 800 251 731 b 156 799 185 665 147 750 "},"ő":{"ha":690,"x_min":0,"x_max":0,"o":"m 157 17 b 256 583 -203 60 -6 583 b 314 524 285 583 301 556 b 479 492 356 579 429 588 b 497 342 497 458 500 399 b 692 388 568 325 651 328 l 753 347 b 478 265 715 264 589 246 b 157 17 421 144 329 -4 m 142 131 b 376 293 215 93 328 178 b 290 349 354 292 313 321 b 279 433 281 378 278 407 b 142 131 118 392 39 182 m 164 669 b 164 736 149 676 151 713 b 426 972 253 792 360 875 b 496 846 481 978 508 918 b 613 972 540 882 578 926 b 682 826 675 981 703 906 b 350 669 600 746 458 693 b 353 733 340 676 339 703 b 164 669 283 700 211 679 "},"ō":{"ha":690,"x_min":0,"x_max":0,"o":"m 157 17 b 256 583 -203 60 -6 583 b 314 524 285 583 301 556 b 479 492 356 579 429 588 b 497 342 497 458 500 399 b 692 388 568 325 651 328 l 753 347 b 478 265 715 264 589 246 b 157 17 421 144 329 -4 m 139 718 b 178 801 139 740 158 775 b 532 800 306 789 443 783 b 517 672 561 774 536 703 b 139 718 351 640 168 704 m 142 131 b 376 293 215 93 328 178 b 290 349 354 292 313 321 b 279 433 281 378 278 407 b 142 131 118 392 39 182 "},"ṓ":{"ha":690,"x_min":0,"x_max":0,"o":"m 157 17 b 256 583 -203 60 -6 583 b 314 524 285 583 301 556 b 479 492 356 579 429 588 b 497 342 497 458 500 399 b 692 388 568 325 651 328 l 753 347 b 478 265 715 264 589 246 b 157 17 421 144 329 -4 m 142 131 b 376 293 215 93 328 178 b 290 349 354 292 313 321 b 279 433 281 378 278 407 b 142 131 118 392 39 182 m 158 718 b 197 801 158 740 178 775 b 551 800 325 789 463 783 b 536 672 581 774 556 703 b 158 718 371 640 188 704 m 294 826 b 294 893 279 833 282 869 b 557 1129 383 949 490 1032 b 626 983 619 1138 647 1063 b 294 826 544 903 403 850 "},"ṑ":{"ha":690,"x_min":0,"x_max":0,"o":"m 157 17 b 256 583 -203 60 -6 583 b 314 524 285 583 301 556 b 479 492 356 579 429 588 b 497 342 497 458 500 399 b 692 388 568 325 651 328 l 753 347 b 478 265 715 264 589 246 b 157 17 421 144 329 -4 m 142 131 b 376 293 215 93 328 178 b 290 349 354 292 313 321 b 279 433 281 378 278 407 b 142 131 118 392 39 182 m 160 719 b 199 803 160 742 179 776 b 553 801 326 790 464 785 b 538 674 582 775 557 704 b 160 719 372 642 189 706 m 297 939 b 429 1063 308 999 369 1064 b 594 893 457 990 531 932 b 568 839 597 875 585 846 b 297 939 467 849 347 879 "}}}
